%TF.GenerationSoftware,KiCad,Pcbnew,9.0.3*%
%TF.CreationDate,2025-08-31T17:25:54+05:30*%
%TF.ProjectId,fc_nickel_v1.0,66635f6e-6963-46b6-956c-5f76312e302e,rev?*%
%TF.SameCoordinates,Original*%
%TF.FileFunction,Legend,Bot*%
%TF.FilePolarity,Positive*%
%FSLAX46Y46*%
G04 Gerber Fmt 4.6, Leading zero omitted, Abs format (unit mm)*
G04 Created by KiCad (PCBNEW 9.0.3) date 2025-08-31 17:25:54*
%MOMM*%
%LPD*%
G01*
G04 APERTURE LIST*
%ADD10C,0.100000*%
%ADD11C,0.150000*%
%ADD12C,0.300000*%
%ADD13C,0.400000*%
%ADD14C,0.125000*%
%ADD15C,0.120000*%
G04 APERTURE END LIST*
D10*
D11*
X177002200Y-166007200D02*
X285002200Y-166007200D01*
X285002200Y-198007200D01*
X177002200Y-198007200D01*
X177002200Y-166007200D01*
D10*
D11*
X10000000Y-10000000D02*
X287002200Y-10000000D01*
X287002200Y-200007200D01*
X10000000Y-200007200D01*
X10000000Y-10000000D01*
D10*
D11*
X12000000Y-12000000D02*
X285002200Y-12000000D01*
X285002200Y-198007200D01*
X12000000Y-198007200D01*
X12000000Y-12000000D01*
D10*
D11*
X60000000Y-12000000D02*
X60000000Y-10000000D01*
D10*
D11*
X110000000Y-12000000D02*
X110000000Y-10000000D01*
D10*
D11*
X160000000Y-12000000D02*
X160000000Y-10000000D01*
D10*
D11*
X210000000Y-12000000D02*
X210000000Y-10000000D01*
D10*
D11*
X260000000Y-12000000D02*
X260000000Y-10000000D01*
D10*
D11*
X36089160Y-11593604D02*
X35346303Y-11593604D01*
X35717731Y-11593604D02*
X35717731Y-10293604D01*
X35717731Y-10293604D02*
X35593922Y-10479319D01*
X35593922Y-10479319D02*
X35470112Y-10603128D01*
X35470112Y-10603128D02*
X35346303Y-10665033D01*
D10*
D11*
X85346303Y-10417414D02*
X85408207Y-10355509D01*
X85408207Y-10355509D02*
X85532017Y-10293604D01*
X85532017Y-10293604D02*
X85841541Y-10293604D01*
X85841541Y-10293604D02*
X85965350Y-10355509D01*
X85965350Y-10355509D02*
X86027255Y-10417414D01*
X86027255Y-10417414D02*
X86089160Y-10541223D01*
X86089160Y-10541223D02*
X86089160Y-10665033D01*
X86089160Y-10665033D02*
X86027255Y-10850747D01*
X86027255Y-10850747D02*
X85284398Y-11593604D01*
X85284398Y-11593604D02*
X86089160Y-11593604D01*
D10*
D11*
X135284398Y-10293604D02*
X136089160Y-10293604D01*
X136089160Y-10293604D02*
X135655826Y-10788842D01*
X135655826Y-10788842D02*
X135841541Y-10788842D01*
X135841541Y-10788842D02*
X135965350Y-10850747D01*
X135965350Y-10850747D02*
X136027255Y-10912652D01*
X136027255Y-10912652D02*
X136089160Y-11036461D01*
X136089160Y-11036461D02*
X136089160Y-11345985D01*
X136089160Y-11345985D02*
X136027255Y-11469795D01*
X136027255Y-11469795D02*
X135965350Y-11531700D01*
X135965350Y-11531700D02*
X135841541Y-11593604D01*
X135841541Y-11593604D02*
X135470112Y-11593604D01*
X135470112Y-11593604D02*
X135346303Y-11531700D01*
X135346303Y-11531700D02*
X135284398Y-11469795D01*
D10*
D11*
X185965350Y-10726938D02*
X185965350Y-11593604D01*
X185655826Y-10231700D02*
X185346303Y-11160271D01*
X185346303Y-11160271D02*
X186151064Y-11160271D01*
D10*
D11*
X236027255Y-10293604D02*
X235408207Y-10293604D01*
X235408207Y-10293604D02*
X235346303Y-10912652D01*
X235346303Y-10912652D02*
X235408207Y-10850747D01*
X235408207Y-10850747D02*
X235532017Y-10788842D01*
X235532017Y-10788842D02*
X235841541Y-10788842D01*
X235841541Y-10788842D02*
X235965350Y-10850747D01*
X235965350Y-10850747D02*
X236027255Y-10912652D01*
X236027255Y-10912652D02*
X236089160Y-11036461D01*
X236089160Y-11036461D02*
X236089160Y-11345985D01*
X236089160Y-11345985D02*
X236027255Y-11469795D01*
X236027255Y-11469795D02*
X235965350Y-11531700D01*
X235965350Y-11531700D02*
X235841541Y-11593604D01*
X235841541Y-11593604D02*
X235532017Y-11593604D01*
X235532017Y-11593604D02*
X235408207Y-11531700D01*
X235408207Y-11531700D02*
X235346303Y-11469795D01*
D10*
D11*
X285965350Y-10293604D02*
X285717731Y-10293604D01*
X285717731Y-10293604D02*
X285593922Y-10355509D01*
X285593922Y-10355509D02*
X285532017Y-10417414D01*
X285532017Y-10417414D02*
X285408207Y-10603128D01*
X285408207Y-10603128D02*
X285346303Y-10850747D01*
X285346303Y-10850747D02*
X285346303Y-11345985D01*
X285346303Y-11345985D02*
X285408207Y-11469795D01*
X285408207Y-11469795D02*
X285470112Y-11531700D01*
X285470112Y-11531700D02*
X285593922Y-11593604D01*
X285593922Y-11593604D02*
X285841541Y-11593604D01*
X285841541Y-11593604D02*
X285965350Y-11531700D01*
X285965350Y-11531700D02*
X286027255Y-11469795D01*
X286027255Y-11469795D02*
X286089160Y-11345985D01*
X286089160Y-11345985D02*
X286089160Y-11036461D01*
X286089160Y-11036461D02*
X286027255Y-10912652D01*
X286027255Y-10912652D02*
X285965350Y-10850747D01*
X285965350Y-10850747D02*
X285841541Y-10788842D01*
X285841541Y-10788842D02*
X285593922Y-10788842D01*
X285593922Y-10788842D02*
X285470112Y-10850747D01*
X285470112Y-10850747D02*
X285408207Y-10912652D01*
X285408207Y-10912652D02*
X285346303Y-11036461D01*
D10*
D11*
X60000000Y-198007200D02*
X60000000Y-200007200D01*
D10*
D11*
X110000000Y-198007200D02*
X110000000Y-200007200D01*
D10*
D11*
X160000000Y-198007200D02*
X160000000Y-200007200D01*
D10*
D11*
X210000000Y-198007200D02*
X210000000Y-200007200D01*
D10*
D11*
X260000000Y-198007200D02*
X260000000Y-200007200D01*
D10*
D11*
X36089160Y-199600804D02*
X35346303Y-199600804D01*
X35717731Y-199600804D02*
X35717731Y-198300804D01*
X35717731Y-198300804D02*
X35593922Y-198486519D01*
X35593922Y-198486519D02*
X35470112Y-198610328D01*
X35470112Y-198610328D02*
X35346303Y-198672233D01*
D10*
D11*
X85346303Y-198424614D02*
X85408207Y-198362709D01*
X85408207Y-198362709D02*
X85532017Y-198300804D01*
X85532017Y-198300804D02*
X85841541Y-198300804D01*
X85841541Y-198300804D02*
X85965350Y-198362709D01*
X85965350Y-198362709D02*
X86027255Y-198424614D01*
X86027255Y-198424614D02*
X86089160Y-198548423D01*
X86089160Y-198548423D02*
X86089160Y-198672233D01*
X86089160Y-198672233D02*
X86027255Y-198857947D01*
X86027255Y-198857947D02*
X85284398Y-199600804D01*
X85284398Y-199600804D02*
X86089160Y-199600804D01*
D10*
D11*
X135284398Y-198300804D02*
X136089160Y-198300804D01*
X136089160Y-198300804D02*
X135655826Y-198796042D01*
X135655826Y-198796042D02*
X135841541Y-198796042D01*
X135841541Y-198796042D02*
X135965350Y-198857947D01*
X135965350Y-198857947D02*
X136027255Y-198919852D01*
X136027255Y-198919852D02*
X136089160Y-199043661D01*
X136089160Y-199043661D02*
X136089160Y-199353185D01*
X136089160Y-199353185D02*
X136027255Y-199476995D01*
X136027255Y-199476995D02*
X135965350Y-199538900D01*
X135965350Y-199538900D02*
X135841541Y-199600804D01*
X135841541Y-199600804D02*
X135470112Y-199600804D01*
X135470112Y-199600804D02*
X135346303Y-199538900D01*
X135346303Y-199538900D02*
X135284398Y-199476995D01*
D10*
D11*
X185965350Y-198734138D02*
X185965350Y-199600804D01*
X185655826Y-198238900D02*
X185346303Y-199167471D01*
X185346303Y-199167471D02*
X186151064Y-199167471D01*
D10*
D11*
X236027255Y-198300804D02*
X235408207Y-198300804D01*
X235408207Y-198300804D02*
X235346303Y-198919852D01*
X235346303Y-198919852D02*
X235408207Y-198857947D01*
X235408207Y-198857947D02*
X235532017Y-198796042D01*
X235532017Y-198796042D02*
X235841541Y-198796042D01*
X235841541Y-198796042D02*
X235965350Y-198857947D01*
X235965350Y-198857947D02*
X236027255Y-198919852D01*
X236027255Y-198919852D02*
X236089160Y-199043661D01*
X236089160Y-199043661D02*
X236089160Y-199353185D01*
X236089160Y-199353185D02*
X236027255Y-199476995D01*
X236027255Y-199476995D02*
X235965350Y-199538900D01*
X235965350Y-199538900D02*
X235841541Y-199600804D01*
X235841541Y-199600804D02*
X235532017Y-199600804D01*
X235532017Y-199600804D02*
X235408207Y-199538900D01*
X235408207Y-199538900D02*
X235346303Y-199476995D01*
D10*
D11*
X285965350Y-198300804D02*
X285717731Y-198300804D01*
X285717731Y-198300804D02*
X285593922Y-198362709D01*
X285593922Y-198362709D02*
X285532017Y-198424614D01*
X285532017Y-198424614D02*
X285408207Y-198610328D01*
X285408207Y-198610328D02*
X285346303Y-198857947D01*
X285346303Y-198857947D02*
X285346303Y-199353185D01*
X285346303Y-199353185D02*
X285408207Y-199476995D01*
X285408207Y-199476995D02*
X285470112Y-199538900D01*
X285470112Y-199538900D02*
X285593922Y-199600804D01*
X285593922Y-199600804D02*
X285841541Y-199600804D01*
X285841541Y-199600804D02*
X285965350Y-199538900D01*
X285965350Y-199538900D02*
X286027255Y-199476995D01*
X286027255Y-199476995D02*
X286089160Y-199353185D01*
X286089160Y-199353185D02*
X286089160Y-199043661D01*
X286089160Y-199043661D02*
X286027255Y-198919852D01*
X286027255Y-198919852D02*
X285965350Y-198857947D01*
X285965350Y-198857947D02*
X285841541Y-198796042D01*
X285841541Y-198796042D02*
X285593922Y-198796042D01*
X285593922Y-198796042D02*
X285470112Y-198857947D01*
X285470112Y-198857947D02*
X285408207Y-198919852D01*
X285408207Y-198919852D02*
X285346303Y-199043661D01*
D10*
D11*
X10000000Y-60000000D02*
X12000000Y-60000000D01*
D10*
D11*
X10000000Y-110000000D02*
X12000000Y-110000000D01*
D10*
D11*
X10000000Y-160000000D02*
X12000000Y-160000000D01*
D10*
D11*
X10690476Y-35222176D02*
X11309523Y-35222176D01*
X10566666Y-35593604D02*
X10999999Y-34293604D01*
X10999999Y-34293604D02*
X11433333Y-35593604D01*
D10*
D11*
X11092857Y-84912652D02*
X11278571Y-84974557D01*
X11278571Y-84974557D02*
X11340476Y-85036461D01*
X11340476Y-85036461D02*
X11402380Y-85160271D01*
X11402380Y-85160271D02*
X11402380Y-85345985D01*
X11402380Y-85345985D02*
X11340476Y-85469795D01*
X11340476Y-85469795D02*
X11278571Y-85531700D01*
X11278571Y-85531700D02*
X11154761Y-85593604D01*
X11154761Y-85593604D02*
X10659523Y-85593604D01*
X10659523Y-85593604D02*
X10659523Y-84293604D01*
X10659523Y-84293604D02*
X11092857Y-84293604D01*
X11092857Y-84293604D02*
X11216666Y-84355509D01*
X11216666Y-84355509D02*
X11278571Y-84417414D01*
X11278571Y-84417414D02*
X11340476Y-84541223D01*
X11340476Y-84541223D02*
X11340476Y-84665033D01*
X11340476Y-84665033D02*
X11278571Y-84788842D01*
X11278571Y-84788842D02*
X11216666Y-84850747D01*
X11216666Y-84850747D02*
X11092857Y-84912652D01*
X11092857Y-84912652D02*
X10659523Y-84912652D01*
D10*
D11*
X11402380Y-135469795D02*
X11340476Y-135531700D01*
X11340476Y-135531700D02*
X11154761Y-135593604D01*
X11154761Y-135593604D02*
X11030952Y-135593604D01*
X11030952Y-135593604D02*
X10845238Y-135531700D01*
X10845238Y-135531700D02*
X10721428Y-135407890D01*
X10721428Y-135407890D02*
X10659523Y-135284080D01*
X10659523Y-135284080D02*
X10597619Y-135036461D01*
X10597619Y-135036461D02*
X10597619Y-134850747D01*
X10597619Y-134850747D02*
X10659523Y-134603128D01*
X10659523Y-134603128D02*
X10721428Y-134479319D01*
X10721428Y-134479319D02*
X10845238Y-134355509D01*
X10845238Y-134355509D02*
X11030952Y-134293604D01*
X11030952Y-134293604D02*
X11154761Y-134293604D01*
X11154761Y-134293604D02*
X11340476Y-134355509D01*
X11340476Y-134355509D02*
X11402380Y-134417414D01*
D10*
D11*
X10659523Y-185593604D02*
X10659523Y-184293604D01*
X10659523Y-184293604D02*
X10969047Y-184293604D01*
X10969047Y-184293604D02*
X11154761Y-184355509D01*
X11154761Y-184355509D02*
X11278571Y-184479319D01*
X11278571Y-184479319D02*
X11340476Y-184603128D01*
X11340476Y-184603128D02*
X11402380Y-184850747D01*
X11402380Y-184850747D02*
X11402380Y-185036461D01*
X11402380Y-185036461D02*
X11340476Y-185284080D01*
X11340476Y-185284080D02*
X11278571Y-185407890D01*
X11278571Y-185407890D02*
X11154761Y-185531700D01*
X11154761Y-185531700D02*
X10969047Y-185593604D01*
X10969047Y-185593604D02*
X10659523Y-185593604D01*
D10*
D11*
X287002200Y-60000000D02*
X285002200Y-60000000D01*
D10*
D11*
X287002200Y-110000000D02*
X285002200Y-110000000D01*
D10*
D11*
X287002200Y-160000000D02*
X285002200Y-160000000D01*
D10*
D11*
X285692676Y-35222176D02*
X286311723Y-35222176D01*
X285568866Y-35593604D02*
X286002199Y-34293604D01*
X286002199Y-34293604D02*
X286435533Y-35593604D01*
D10*
D11*
X286095057Y-84912652D02*
X286280771Y-84974557D01*
X286280771Y-84974557D02*
X286342676Y-85036461D01*
X286342676Y-85036461D02*
X286404580Y-85160271D01*
X286404580Y-85160271D02*
X286404580Y-85345985D01*
X286404580Y-85345985D02*
X286342676Y-85469795D01*
X286342676Y-85469795D02*
X286280771Y-85531700D01*
X286280771Y-85531700D02*
X286156961Y-85593604D01*
X286156961Y-85593604D02*
X285661723Y-85593604D01*
X285661723Y-85593604D02*
X285661723Y-84293604D01*
X285661723Y-84293604D02*
X286095057Y-84293604D01*
X286095057Y-84293604D02*
X286218866Y-84355509D01*
X286218866Y-84355509D02*
X286280771Y-84417414D01*
X286280771Y-84417414D02*
X286342676Y-84541223D01*
X286342676Y-84541223D02*
X286342676Y-84665033D01*
X286342676Y-84665033D02*
X286280771Y-84788842D01*
X286280771Y-84788842D02*
X286218866Y-84850747D01*
X286218866Y-84850747D02*
X286095057Y-84912652D01*
X286095057Y-84912652D02*
X285661723Y-84912652D01*
D10*
D11*
X286404580Y-135469795D02*
X286342676Y-135531700D01*
X286342676Y-135531700D02*
X286156961Y-135593604D01*
X286156961Y-135593604D02*
X286033152Y-135593604D01*
X286033152Y-135593604D02*
X285847438Y-135531700D01*
X285847438Y-135531700D02*
X285723628Y-135407890D01*
X285723628Y-135407890D02*
X285661723Y-135284080D01*
X285661723Y-135284080D02*
X285599819Y-135036461D01*
X285599819Y-135036461D02*
X285599819Y-134850747D01*
X285599819Y-134850747D02*
X285661723Y-134603128D01*
X285661723Y-134603128D02*
X285723628Y-134479319D01*
X285723628Y-134479319D02*
X285847438Y-134355509D01*
X285847438Y-134355509D02*
X286033152Y-134293604D01*
X286033152Y-134293604D02*
X286156961Y-134293604D01*
X286156961Y-134293604D02*
X286342676Y-134355509D01*
X286342676Y-134355509D02*
X286404580Y-134417414D01*
D10*
D11*
X285661723Y-185593604D02*
X285661723Y-184293604D01*
X285661723Y-184293604D02*
X285971247Y-184293604D01*
X285971247Y-184293604D02*
X286156961Y-184355509D01*
X286156961Y-184355509D02*
X286280771Y-184479319D01*
X286280771Y-184479319D02*
X286342676Y-184603128D01*
X286342676Y-184603128D02*
X286404580Y-184850747D01*
X286404580Y-184850747D02*
X286404580Y-185036461D01*
X286404580Y-185036461D02*
X286342676Y-185284080D01*
X286342676Y-185284080D02*
X286280771Y-185407890D01*
X286280771Y-185407890D02*
X286156961Y-185531700D01*
X286156961Y-185531700D02*
X285971247Y-185593604D01*
X285971247Y-185593604D02*
X285661723Y-185593604D01*
D10*
D11*
X200458026Y-193793328D02*
X200458026Y-192293328D01*
X200458026Y-192293328D02*
X200815169Y-192293328D01*
X200815169Y-192293328D02*
X201029455Y-192364757D01*
X201029455Y-192364757D02*
X201172312Y-192507614D01*
X201172312Y-192507614D02*
X201243741Y-192650471D01*
X201243741Y-192650471D02*
X201315169Y-192936185D01*
X201315169Y-192936185D02*
X201315169Y-193150471D01*
X201315169Y-193150471D02*
X201243741Y-193436185D01*
X201243741Y-193436185D02*
X201172312Y-193579042D01*
X201172312Y-193579042D02*
X201029455Y-193721900D01*
X201029455Y-193721900D02*
X200815169Y-193793328D01*
X200815169Y-193793328D02*
X200458026Y-193793328D01*
X202600884Y-193793328D02*
X202600884Y-193007614D01*
X202600884Y-193007614D02*
X202529455Y-192864757D01*
X202529455Y-192864757D02*
X202386598Y-192793328D01*
X202386598Y-192793328D02*
X202100884Y-192793328D01*
X202100884Y-192793328D02*
X201958026Y-192864757D01*
X202600884Y-193721900D02*
X202458026Y-193793328D01*
X202458026Y-193793328D02*
X202100884Y-193793328D01*
X202100884Y-193793328D02*
X201958026Y-193721900D01*
X201958026Y-193721900D02*
X201886598Y-193579042D01*
X201886598Y-193579042D02*
X201886598Y-193436185D01*
X201886598Y-193436185D02*
X201958026Y-193293328D01*
X201958026Y-193293328D02*
X202100884Y-193221900D01*
X202100884Y-193221900D02*
X202458026Y-193221900D01*
X202458026Y-193221900D02*
X202600884Y-193150471D01*
X203100884Y-192793328D02*
X203672312Y-192793328D01*
X203315169Y-192293328D02*
X203315169Y-193579042D01*
X203315169Y-193579042D02*
X203386598Y-193721900D01*
X203386598Y-193721900D02*
X203529455Y-193793328D01*
X203529455Y-193793328D02*
X203672312Y-193793328D01*
X204743741Y-193721900D02*
X204600884Y-193793328D01*
X204600884Y-193793328D02*
X204315170Y-193793328D01*
X204315170Y-193793328D02*
X204172312Y-193721900D01*
X204172312Y-193721900D02*
X204100884Y-193579042D01*
X204100884Y-193579042D02*
X204100884Y-193007614D01*
X204100884Y-193007614D02*
X204172312Y-192864757D01*
X204172312Y-192864757D02*
X204315170Y-192793328D01*
X204315170Y-192793328D02*
X204600884Y-192793328D01*
X204600884Y-192793328D02*
X204743741Y-192864757D01*
X204743741Y-192864757D02*
X204815170Y-193007614D01*
X204815170Y-193007614D02*
X204815170Y-193150471D01*
X204815170Y-193150471D02*
X204100884Y-193293328D01*
X205458026Y-193650471D02*
X205529455Y-193721900D01*
X205529455Y-193721900D02*
X205458026Y-193793328D01*
X205458026Y-193793328D02*
X205386598Y-193721900D01*
X205386598Y-193721900D02*
X205458026Y-193650471D01*
X205458026Y-193650471D02*
X205458026Y-193793328D01*
X205458026Y-192864757D02*
X205529455Y-192936185D01*
X205529455Y-192936185D02*
X205458026Y-193007614D01*
X205458026Y-193007614D02*
X205386598Y-192936185D01*
X205386598Y-192936185D02*
X205458026Y-192864757D01*
X205458026Y-192864757D02*
X205458026Y-193007614D01*
D10*
D11*
X177002200Y-194507200D02*
X285002200Y-194507200D01*
D10*
D11*
X178458026Y-196593328D02*
X178458026Y-195093328D01*
X179315169Y-196593328D02*
X178672312Y-195736185D01*
X179315169Y-195093328D02*
X178458026Y-195950471D01*
X179958026Y-196593328D02*
X179958026Y-195593328D01*
X179958026Y-195093328D02*
X179886598Y-195164757D01*
X179886598Y-195164757D02*
X179958026Y-195236185D01*
X179958026Y-195236185D02*
X180029455Y-195164757D01*
X180029455Y-195164757D02*
X179958026Y-195093328D01*
X179958026Y-195093328D02*
X179958026Y-195236185D01*
X181529455Y-196450471D02*
X181458027Y-196521900D01*
X181458027Y-196521900D02*
X181243741Y-196593328D01*
X181243741Y-196593328D02*
X181100884Y-196593328D01*
X181100884Y-196593328D02*
X180886598Y-196521900D01*
X180886598Y-196521900D02*
X180743741Y-196379042D01*
X180743741Y-196379042D02*
X180672312Y-196236185D01*
X180672312Y-196236185D02*
X180600884Y-195950471D01*
X180600884Y-195950471D02*
X180600884Y-195736185D01*
X180600884Y-195736185D02*
X180672312Y-195450471D01*
X180672312Y-195450471D02*
X180743741Y-195307614D01*
X180743741Y-195307614D02*
X180886598Y-195164757D01*
X180886598Y-195164757D02*
X181100884Y-195093328D01*
X181100884Y-195093328D02*
X181243741Y-195093328D01*
X181243741Y-195093328D02*
X181458027Y-195164757D01*
X181458027Y-195164757D02*
X181529455Y-195236185D01*
X182815170Y-196593328D02*
X182815170Y-195807614D01*
X182815170Y-195807614D02*
X182743741Y-195664757D01*
X182743741Y-195664757D02*
X182600884Y-195593328D01*
X182600884Y-195593328D02*
X182315170Y-195593328D01*
X182315170Y-195593328D02*
X182172312Y-195664757D01*
X182815170Y-196521900D02*
X182672312Y-196593328D01*
X182672312Y-196593328D02*
X182315170Y-196593328D01*
X182315170Y-196593328D02*
X182172312Y-196521900D01*
X182172312Y-196521900D02*
X182100884Y-196379042D01*
X182100884Y-196379042D02*
X182100884Y-196236185D01*
X182100884Y-196236185D02*
X182172312Y-196093328D01*
X182172312Y-196093328D02*
X182315170Y-196021900D01*
X182315170Y-196021900D02*
X182672312Y-196021900D01*
X182672312Y-196021900D02*
X182815170Y-195950471D01*
X184172313Y-196593328D02*
X184172313Y-195093328D01*
X184172313Y-196521900D02*
X184029455Y-196593328D01*
X184029455Y-196593328D02*
X183743741Y-196593328D01*
X183743741Y-196593328D02*
X183600884Y-196521900D01*
X183600884Y-196521900D02*
X183529455Y-196450471D01*
X183529455Y-196450471D02*
X183458027Y-196307614D01*
X183458027Y-196307614D02*
X183458027Y-195879042D01*
X183458027Y-195879042D02*
X183529455Y-195736185D01*
X183529455Y-195736185D02*
X183600884Y-195664757D01*
X183600884Y-195664757D02*
X183743741Y-195593328D01*
X183743741Y-195593328D02*
X184029455Y-195593328D01*
X184029455Y-195593328D02*
X184172313Y-195664757D01*
X186029455Y-195807614D02*
X186529455Y-195807614D01*
X186743741Y-196593328D02*
X186029455Y-196593328D01*
X186029455Y-196593328D02*
X186029455Y-195093328D01*
X186029455Y-195093328D02*
X186743741Y-195093328D01*
X187386598Y-196450471D02*
X187458027Y-196521900D01*
X187458027Y-196521900D02*
X187386598Y-196593328D01*
X187386598Y-196593328D02*
X187315170Y-196521900D01*
X187315170Y-196521900D02*
X187386598Y-196450471D01*
X187386598Y-196450471D02*
X187386598Y-196593328D01*
X188100884Y-196593328D02*
X188100884Y-195093328D01*
X188100884Y-195093328D02*
X188458027Y-195093328D01*
X188458027Y-195093328D02*
X188672313Y-195164757D01*
X188672313Y-195164757D02*
X188815170Y-195307614D01*
X188815170Y-195307614D02*
X188886599Y-195450471D01*
X188886599Y-195450471D02*
X188958027Y-195736185D01*
X188958027Y-195736185D02*
X188958027Y-195950471D01*
X188958027Y-195950471D02*
X188886599Y-196236185D01*
X188886599Y-196236185D02*
X188815170Y-196379042D01*
X188815170Y-196379042D02*
X188672313Y-196521900D01*
X188672313Y-196521900D02*
X188458027Y-196593328D01*
X188458027Y-196593328D02*
X188100884Y-196593328D01*
X189600884Y-196450471D02*
X189672313Y-196521900D01*
X189672313Y-196521900D02*
X189600884Y-196593328D01*
X189600884Y-196593328D02*
X189529456Y-196521900D01*
X189529456Y-196521900D02*
X189600884Y-196450471D01*
X189600884Y-196450471D02*
X189600884Y-196593328D01*
X190243742Y-196164757D02*
X190958028Y-196164757D01*
X190100885Y-196593328D02*
X190600885Y-195093328D01*
X190600885Y-195093328D02*
X191100885Y-196593328D01*
X191600884Y-196450471D02*
X191672313Y-196521900D01*
X191672313Y-196521900D02*
X191600884Y-196593328D01*
X191600884Y-196593328D02*
X191529456Y-196521900D01*
X191529456Y-196521900D02*
X191600884Y-196450471D01*
X191600884Y-196450471D02*
X191600884Y-196593328D01*
X193529456Y-196593328D02*
X193815170Y-196593328D01*
X193815170Y-196593328D02*
X193958027Y-196521900D01*
X193958027Y-196521900D02*
X194029456Y-196450471D01*
X194029456Y-196450471D02*
X194172313Y-196236185D01*
X194172313Y-196236185D02*
X194243742Y-195950471D01*
X194243742Y-195950471D02*
X194243742Y-195379042D01*
X194243742Y-195379042D02*
X194172313Y-195236185D01*
X194172313Y-195236185D02*
X194100885Y-195164757D01*
X194100885Y-195164757D02*
X193958027Y-195093328D01*
X193958027Y-195093328D02*
X193672313Y-195093328D01*
X193672313Y-195093328D02*
X193529456Y-195164757D01*
X193529456Y-195164757D02*
X193458027Y-195236185D01*
X193458027Y-195236185D02*
X193386599Y-195379042D01*
X193386599Y-195379042D02*
X193386599Y-195736185D01*
X193386599Y-195736185D02*
X193458027Y-195879042D01*
X193458027Y-195879042D02*
X193529456Y-195950471D01*
X193529456Y-195950471D02*
X193672313Y-196021900D01*
X193672313Y-196021900D02*
X193958027Y-196021900D01*
X193958027Y-196021900D02*
X194100885Y-195950471D01*
X194100885Y-195950471D02*
X194172313Y-195879042D01*
X194172313Y-195879042D02*
X194243742Y-195736185D01*
X194886598Y-196450471D02*
X194958027Y-196521900D01*
X194958027Y-196521900D02*
X194886598Y-196593328D01*
X194886598Y-196593328D02*
X194815170Y-196521900D01*
X194815170Y-196521900D02*
X194886598Y-196450471D01*
X194886598Y-196450471D02*
X194886598Y-196593328D01*
X195886599Y-195093328D02*
X196029456Y-195093328D01*
X196029456Y-195093328D02*
X196172313Y-195164757D01*
X196172313Y-195164757D02*
X196243742Y-195236185D01*
X196243742Y-195236185D02*
X196315170Y-195379042D01*
X196315170Y-195379042D02*
X196386599Y-195664757D01*
X196386599Y-195664757D02*
X196386599Y-196021900D01*
X196386599Y-196021900D02*
X196315170Y-196307614D01*
X196315170Y-196307614D02*
X196243742Y-196450471D01*
X196243742Y-196450471D02*
X196172313Y-196521900D01*
X196172313Y-196521900D02*
X196029456Y-196593328D01*
X196029456Y-196593328D02*
X195886599Y-196593328D01*
X195886599Y-196593328D02*
X195743742Y-196521900D01*
X195743742Y-196521900D02*
X195672313Y-196450471D01*
X195672313Y-196450471D02*
X195600884Y-196307614D01*
X195600884Y-196307614D02*
X195529456Y-196021900D01*
X195529456Y-196021900D02*
X195529456Y-195664757D01*
X195529456Y-195664757D02*
X195600884Y-195379042D01*
X195600884Y-195379042D02*
X195672313Y-195236185D01*
X195672313Y-195236185D02*
X195743742Y-195164757D01*
X195743742Y-195164757D02*
X195886599Y-195093328D01*
X197029455Y-196450471D02*
X197100884Y-196521900D01*
X197100884Y-196521900D02*
X197029455Y-196593328D01*
X197029455Y-196593328D02*
X196958027Y-196521900D01*
X196958027Y-196521900D02*
X197029455Y-196450471D01*
X197029455Y-196450471D02*
X197029455Y-196593328D01*
X197600884Y-195093328D02*
X198529456Y-195093328D01*
X198529456Y-195093328D02*
X198029456Y-195664757D01*
X198029456Y-195664757D02*
X198243741Y-195664757D01*
X198243741Y-195664757D02*
X198386599Y-195736185D01*
X198386599Y-195736185D02*
X198458027Y-195807614D01*
X198458027Y-195807614D02*
X198529456Y-195950471D01*
X198529456Y-195950471D02*
X198529456Y-196307614D01*
X198529456Y-196307614D02*
X198458027Y-196450471D01*
X198458027Y-196450471D02*
X198386599Y-196521900D01*
X198386599Y-196521900D02*
X198243741Y-196593328D01*
X198243741Y-196593328D02*
X197815170Y-196593328D01*
X197815170Y-196593328D02*
X197672313Y-196521900D01*
X197672313Y-196521900D02*
X197600884Y-196450471D01*
D10*
D11*
X177002200Y-191507200D02*
X285002200Y-191507200D01*
D10*
D12*
X264413853Y-193785528D02*
X263913853Y-193071242D01*
X263556710Y-193785528D02*
X263556710Y-192285528D01*
X263556710Y-192285528D02*
X264128139Y-192285528D01*
X264128139Y-192285528D02*
X264270996Y-192356957D01*
X264270996Y-192356957D02*
X264342425Y-192428385D01*
X264342425Y-192428385D02*
X264413853Y-192571242D01*
X264413853Y-192571242D02*
X264413853Y-192785528D01*
X264413853Y-192785528D02*
X264342425Y-192928385D01*
X264342425Y-192928385D02*
X264270996Y-192999814D01*
X264270996Y-192999814D02*
X264128139Y-193071242D01*
X264128139Y-193071242D02*
X263556710Y-193071242D01*
X265628139Y-193714100D02*
X265485282Y-193785528D01*
X265485282Y-193785528D02*
X265199568Y-193785528D01*
X265199568Y-193785528D02*
X265056710Y-193714100D01*
X265056710Y-193714100D02*
X264985282Y-193571242D01*
X264985282Y-193571242D02*
X264985282Y-192999814D01*
X264985282Y-192999814D02*
X265056710Y-192856957D01*
X265056710Y-192856957D02*
X265199568Y-192785528D01*
X265199568Y-192785528D02*
X265485282Y-192785528D01*
X265485282Y-192785528D02*
X265628139Y-192856957D01*
X265628139Y-192856957D02*
X265699568Y-192999814D01*
X265699568Y-192999814D02*
X265699568Y-193142671D01*
X265699568Y-193142671D02*
X264985282Y-193285528D01*
X266199567Y-192785528D02*
X266556710Y-193785528D01*
X266556710Y-193785528D02*
X266913853Y-192785528D01*
X267485281Y-193642671D02*
X267556710Y-193714100D01*
X267556710Y-193714100D02*
X267485281Y-193785528D01*
X267485281Y-193785528D02*
X267413853Y-193714100D01*
X267413853Y-193714100D02*
X267485281Y-193642671D01*
X267485281Y-193642671D02*
X267485281Y-193785528D01*
X267485281Y-192856957D02*
X267556710Y-192928385D01*
X267556710Y-192928385D02*
X267485281Y-192999814D01*
X267485281Y-192999814D02*
X267413853Y-192928385D01*
X267413853Y-192928385D02*
X267485281Y-192856957D01*
X267485281Y-192856957D02*
X267485281Y-192999814D01*
D10*
D11*
X178386598Y-193721900D02*
X178600884Y-193793328D01*
X178600884Y-193793328D02*
X178958026Y-193793328D01*
X178958026Y-193793328D02*
X179100884Y-193721900D01*
X179100884Y-193721900D02*
X179172312Y-193650471D01*
X179172312Y-193650471D02*
X179243741Y-193507614D01*
X179243741Y-193507614D02*
X179243741Y-193364757D01*
X179243741Y-193364757D02*
X179172312Y-193221900D01*
X179172312Y-193221900D02*
X179100884Y-193150471D01*
X179100884Y-193150471D02*
X178958026Y-193079042D01*
X178958026Y-193079042D02*
X178672312Y-193007614D01*
X178672312Y-193007614D02*
X178529455Y-192936185D01*
X178529455Y-192936185D02*
X178458026Y-192864757D01*
X178458026Y-192864757D02*
X178386598Y-192721900D01*
X178386598Y-192721900D02*
X178386598Y-192579042D01*
X178386598Y-192579042D02*
X178458026Y-192436185D01*
X178458026Y-192436185D02*
X178529455Y-192364757D01*
X178529455Y-192364757D02*
X178672312Y-192293328D01*
X178672312Y-192293328D02*
X179029455Y-192293328D01*
X179029455Y-192293328D02*
X179243741Y-192364757D01*
X179886597Y-193793328D02*
X179886597Y-192793328D01*
X179886597Y-192293328D02*
X179815169Y-192364757D01*
X179815169Y-192364757D02*
X179886597Y-192436185D01*
X179886597Y-192436185D02*
X179958026Y-192364757D01*
X179958026Y-192364757D02*
X179886597Y-192293328D01*
X179886597Y-192293328D02*
X179886597Y-192436185D01*
X180458026Y-192793328D02*
X181243741Y-192793328D01*
X181243741Y-192793328D02*
X180458026Y-193793328D01*
X180458026Y-193793328D02*
X181243741Y-193793328D01*
X182386598Y-193721900D02*
X182243741Y-193793328D01*
X182243741Y-193793328D02*
X181958027Y-193793328D01*
X181958027Y-193793328D02*
X181815169Y-193721900D01*
X181815169Y-193721900D02*
X181743741Y-193579042D01*
X181743741Y-193579042D02*
X181743741Y-193007614D01*
X181743741Y-193007614D02*
X181815169Y-192864757D01*
X181815169Y-192864757D02*
X181958027Y-192793328D01*
X181958027Y-192793328D02*
X182243741Y-192793328D01*
X182243741Y-192793328D02*
X182386598Y-192864757D01*
X182386598Y-192864757D02*
X182458027Y-193007614D01*
X182458027Y-193007614D02*
X182458027Y-193150471D01*
X182458027Y-193150471D02*
X181743741Y-193293328D01*
X183100883Y-193650471D02*
X183172312Y-193721900D01*
X183172312Y-193721900D02*
X183100883Y-193793328D01*
X183100883Y-193793328D02*
X183029455Y-193721900D01*
X183029455Y-193721900D02*
X183100883Y-193650471D01*
X183100883Y-193650471D02*
X183100883Y-193793328D01*
X183100883Y-192864757D02*
X183172312Y-192936185D01*
X183172312Y-192936185D02*
X183100883Y-193007614D01*
X183100883Y-193007614D02*
X183029455Y-192936185D01*
X183029455Y-192936185D02*
X183100883Y-192864757D01*
X183100883Y-192864757D02*
X183100883Y-193007614D01*
X184886598Y-193364757D02*
X185600884Y-193364757D01*
X184743741Y-193793328D02*
X185243741Y-192293328D01*
X185243741Y-192293328D02*
X185743741Y-193793328D01*
X186886598Y-192793328D02*
X186886598Y-193793328D01*
X186529455Y-192221900D02*
X186172312Y-193293328D01*
X186172312Y-193293328D02*
X187100883Y-193293328D01*
D10*
D11*
X263458026Y-196593328D02*
X263458026Y-195093328D01*
X264815170Y-196593328D02*
X264815170Y-195093328D01*
X264815170Y-196521900D02*
X264672312Y-196593328D01*
X264672312Y-196593328D02*
X264386598Y-196593328D01*
X264386598Y-196593328D02*
X264243741Y-196521900D01*
X264243741Y-196521900D02*
X264172312Y-196450471D01*
X264172312Y-196450471D02*
X264100884Y-196307614D01*
X264100884Y-196307614D02*
X264100884Y-195879042D01*
X264100884Y-195879042D02*
X264172312Y-195736185D01*
X264172312Y-195736185D02*
X264243741Y-195664757D01*
X264243741Y-195664757D02*
X264386598Y-195593328D01*
X264386598Y-195593328D02*
X264672312Y-195593328D01*
X264672312Y-195593328D02*
X264815170Y-195664757D01*
X265529455Y-196450471D02*
X265600884Y-196521900D01*
X265600884Y-196521900D02*
X265529455Y-196593328D01*
X265529455Y-196593328D02*
X265458027Y-196521900D01*
X265458027Y-196521900D02*
X265529455Y-196450471D01*
X265529455Y-196450471D02*
X265529455Y-196593328D01*
X265529455Y-195664757D02*
X265600884Y-195736185D01*
X265600884Y-195736185D02*
X265529455Y-195807614D01*
X265529455Y-195807614D02*
X265458027Y-195736185D01*
X265458027Y-195736185D02*
X265529455Y-195664757D01*
X265529455Y-195664757D02*
X265529455Y-195807614D01*
X268029456Y-195093328D02*
X267743741Y-195093328D01*
X267743741Y-195093328D02*
X267600884Y-195164757D01*
X267600884Y-195164757D02*
X267529456Y-195236185D01*
X267529456Y-195236185D02*
X267386598Y-195450471D01*
X267386598Y-195450471D02*
X267315170Y-195736185D01*
X267315170Y-195736185D02*
X267315170Y-196307614D01*
X267315170Y-196307614D02*
X267386598Y-196450471D01*
X267386598Y-196450471D02*
X267458027Y-196521900D01*
X267458027Y-196521900D02*
X267600884Y-196593328D01*
X267600884Y-196593328D02*
X267886598Y-196593328D01*
X267886598Y-196593328D02*
X268029456Y-196521900D01*
X268029456Y-196521900D02*
X268100884Y-196450471D01*
X268100884Y-196450471D02*
X268172313Y-196307614D01*
X268172313Y-196307614D02*
X268172313Y-195950471D01*
X268172313Y-195950471D02*
X268100884Y-195807614D01*
X268100884Y-195807614D02*
X268029456Y-195736185D01*
X268029456Y-195736185D02*
X267886598Y-195664757D01*
X267886598Y-195664757D02*
X267600884Y-195664757D01*
X267600884Y-195664757D02*
X267458027Y-195736185D01*
X267458027Y-195736185D02*
X267386598Y-195807614D01*
X267386598Y-195807614D02*
X267315170Y-195950471D01*
X269886598Y-195021900D02*
X268600884Y-196950471D01*
X270458027Y-196593328D02*
X270743741Y-196593328D01*
X270743741Y-196593328D02*
X270886598Y-196521900D01*
X270886598Y-196521900D02*
X270958027Y-196450471D01*
X270958027Y-196450471D02*
X271100884Y-196236185D01*
X271100884Y-196236185D02*
X271172313Y-195950471D01*
X271172313Y-195950471D02*
X271172313Y-195379042D01*
X271172313Y-195379042D02*
X271100884Y-195236185D01*
X271100884Y-195236185D02*
X271029456Y-195164757D01*
X271029456Y-195164757D02*
X270886598Y-195093328D01*
X270886598Y-195093328D02*
X270600884Y-195093328D01*
X270600884Y-195093328D02*
X270458027Y-195164757D01*
X270458027Y-195164757D02*
X270386598Y-195236185D01*
X270386598Y-195236185D02*
X270315170Y-195379042D01*
X270315170Y-195379042D02*
X270315170Y-195736185D01*
X270315170Y-195736185D02*
X270386598Y-195879042D01*
X270386598Y-195879042D02*
X270458027Y-195950471D01*
X270458027Y-195950471D02*
X270600884Y-196021900D01*
X270600884Y-196021900D02*
X270886598Y-196021900D01*
X270886598Y-196021900D02*
X271029456Y-195950471D01*
X271029456Y-195950471D02*
X271100884Y-195879042D01*
X271100884Y-195879042D02*
X271172313Y-195736185D01*
D10*
D11*
X177002200Y-187507200D02*
X285002200Y-187507200D01*
D10*
D13*
X178693928Y-188211638D02*
X179836785Y-188211638D01*
X179015357Y-190211638D02*
X179265357Y-188211638D01*
X180253452Y-190211638D02*
X180420119Y-188878304D01*
X180503452Y-188211638D02*
X180396309Y-188306876D01*
X180396309Y-188306876D02*
X180479643Y-188402114D01*
X180479643Y-188402114D02*
X180586786Y-188306876D01*
X180586786Y-188306876D02*
X180503452Y-188211638D01*
X180503452Y-188211638D02*
X180479643Y-188402114D01*
X181086786Y-188878304D02*
X181848690Y-188878304D01*
X181455833Y-188211638D02*
X181241548Y-189925923D01*
X181241548Y-189925923D02*
X181312976Y-190116400D01*
X181312976Y-190116400D02*
X181491548Y-190211638D01*
X181491548Y-190211638D02*
X181682024Y-190211638D01*
X182634405Y-190211638D02*
X182455833Y-190116400D01*
X182455833Y-190116400D02*
X182384405Y-189925923D01*
X182384405Y-189925923D02*
X182598690Y-188211638D01*
X184170119Y-190116400D02*
X183967738Y-190211638D01*
X183967738Y-190211638D02*
X183586785Y-190211638D01*
X183586785Y-190211638D02*
X183408214Y-190116400D01*
X183408214Y-190116400D02*
X183336785Y-189925923D01*
X183336785Y-189925923D02*
X183432024Y-189164019D01*
X183432024Y-189164019D02*
X183551071Y-188973542D01*
X183551071Y-188973542D02*
X183753452Y-188878304D01*
X183753452Y-188878304D02*
X184134404Y-188878304D01*
X184134404Y-188878304D02*
X184312976Y-188973542D01*
X184312976Y-188973542D02*
X184384404Y-189164019D01*
X184384404Y-189164019D02*
X184360595Y-189354495D01*
X184360595Y-189354495D02*
X183384404Y-189544971D01*
X185134405Y-190021161D02*
X185217738Y-190116400D01*
X185217738Y-190116400D02*
X185110595Y-190211638D01*
X185110595Y-190211638D02*
X185027262Y-190116400D01*
X185027262Y-190116400D02*
X185134405Y-190021161D01*
X185134405Y-190021161D02*
X185110595Y-190211638D01*
X185265357Y-188973542D02*
X185348690Y-189068780D01*
X185348690Y-189068780D02*
X185241548Y-189164019D01*
X185241548Y-189164019D02*
X185158214Y-189068780D01*
X185158214Y-189068780D02*
X185265357Y-188973542D01*
X185265357Y-188973542D02*
X185241548Y-189164019D01*
D10*
D11*
X178958026Y-185607614D02*
X178458026Y-185607614D01*
X178458026Y-186393328D02*
X178458026Y-184893328D01*
X178458026Y-184893328D02*
X179172312Y-184893328D01*
X179743740Y-186393328D02*
X179743740Y-185393328D01*
X179743740Y-184893328D02*
X179672312Y-184964757D01*
X179672312Y-184964757D02*
X179743740Y-185036185D01*
X179743740Y-185036185D02*
X179815169Y-184964757D01*
X179815169Y-184964757D02*
X179743740Y-184893328D01*
X179743740Y-184893328D02*
X179743740Y-185036185D01*
X180672312Y-186393328D02*
X180529455Y-186321900D01*
X180529455Y-186321900D02*
X180458026Y-186179042D01*
X180458026Y-186179042D02*
X180458026Y-184893328D01*
X181815169Y-186321900D02*
X181672312Y-186393328D01*
X181672312Y-186393328D02*
X181386598Y-186393328D01*
X181386598Y-186393328D02*
X181243740Y-186321900D01*
X181243740Y-186321900D02*
X181172312Y-186179042D01*
X181172312Y-186179042D02*
X181172312Y-185607614D01*
X181172312Y-185607614D02*
X181243740Y-185464757D01*
X181243740Y-185464757D02*
X181386598Y-185393328D01*
X181386598Y-185393328D02*
X181672312Y-185393328D01*
X181672312Y-185393328D02*
X181815169Y-185464757D01*
X181815169Y-185464757D02*
X181886598Y-185607614D01*
X181886598Y-185607614D02*
X181886598Y-185750471D01*
X181886598Y-185750471D02*
X181172312Y-185893328D01*
X182529454Y-186250471D02*
X182600883Y-186321900D01*
X182600883Y-186321900D02*
X182529454Y-186393328D01*
X182529454Y-186393328D02*
X182458026Y-186321900D01*
X182458026Y-186321900D02*
X182529454Y-186250471D01*
X182529454Y-186250471D02*
X182529454Y-186393328D01*
X182529454Y-185464757D02*
X182600883Y-185536185D01*
X182600883Y-185536185D02*
X182529454Y-185607614D01*
X182529454Y-185607614D02*
X182458026Y-185536185D01*
X182458026Y-185536185D02*
X182529454Y-185464757D01*
X182529454Y-185464757D02*
X182529454Y-185607614D01*
X184172312Y-185393328D02*
X184743740Y-185393328D01*
X184386597Y-186393328D02*
X184386597Y-185107614D01*
X184386597Y-185107614D02*
X184458026Y-184964757D01*
X184458026Y-184964757D02*
X184600883Y-184893328D01*
X184600883Y-184893328D02*
X184743740Y-184893328D01*
X185886598Y-186321900D02*
X185743740Y-186393328D01*
X185743740Y-186393328D02*
X185458026Y-186393328D01*
X185458026Y-186393328D02*
X185315169Y-186321900D01*
X185315169Y-186321900D02*
X185243740Y-186250471D01*
X185243740Y-186250471D02*
X185172312Y-186107614D01*
X185172312Y-186107614D02*
X185172312Y-185679042D01*
X185172312Y-185679042D02*
X185243740Y-185536185D01*
X185243740Y-185536185D02*
X185315169Y-185464757D01*
X185315169Y-185464757D02*
X185458026Y-185393328D01*
X185458026Y-185393328D02*
X185743740Y-185393328D01*
X185743740Y-185393328D02*
X185886598Y-185464757D01*
X186172312Y-186536185D02*
X187315169Y-186536185D01*
X187672311Y-185393328D02*
X187672311Y-186393328D01*
X187672311Y-185536185D02*
X187743740Y-185464757D01*
X187743740Y-185464757D02*
X187886597Y-185393328D01*
X187886597Y-185393328D02*
X188100883Y-185393328D01*
X188100883Y-185393328D02*
X188243740Y-185464757D01*
X188243740Y-185464757D02*
X188315169Y-185607614D01*
X188315169Y-185607614D02*
X188315169Y-186393328D01*
X189029454Y-186393328D02*
X189029454Y-185393328D01*
X189029454Y-184893328D02*
X188958026Y-184964757D01*
X188958026Y-184964757D02*
X189029454Y-185036185D01*
X189029454Y-185036185D02*
X189100883Y-184964757D01*
X189100883Y-184964757D02*
X189029454Y-184893328D01*
X189029454Y-184893328D02*
X189029454Y-185036185D01*
X190386598Y-186321900D02*
X190243740Y-186393328D01*
X190243740Y-186393328D02*
X189958026Y-186393328D01*
X189958026Y-186393328D02*
X189815169Y-186321900D01*
X189815169Y-186321900D02*
X189743740Y-186250471D01*
X189743740Y-186250471D02*
X189672312Y-186107614D01*
X189672312Y-186107614D02*
X189672312Y-185679042D01*
X189672312Y-185679042D02*
X189743740Y-185536185D01*
X189743740Y-185536185D02*
X189815169Y-185464757D01*
X189815169Y-185464757D02*
X189958026Y-185393328D01*
X189958026Y-185393328D02*
X190243740Y-185393328D01*
X190243740Y-185393328D02*
X190386598Y-185464757D01*
X191029454Y-186393328D02*
X191029454Y-184893328D01*
X191172312Y-185821900D02*
X191600883Y-186393328D01*
X191600883Y-185393328D02*
X191029454Y-185964757D01*
X192815169Y-186321900D02*
X192672312Y-186393328D01*
X192672312Y-186393328D02*
X192386598Y-186393328D01*
X192386598Y-186393328D02*
X192243740Y-186321900D01*
X192243740Y-186321900D02*
X192172312Y-186179042D01*
X192172312Y-186179042D02*
X192172312Y-185607614D01*
X192172312Y-185607614D02*
X192243740Y-185464757D01*
X192243740Y-185464757D02*
X192386598Y-185393328D01*
X192386598Y-185393328D02*
X192672312Y-185393328D01*
X192672312Y-185393328D02*
X192815169Y-185464757D01*
X192815169Y-185464757D02*
X192886598Y-185607614D01*
X192886598Y-185607614D02*
X192886598Y-185750471D01*
X192886598Y-185750471D02*
X192172312Y-185893328D01*
X193743740Y-186393328D02*
X193600883Y-186321900D01*
X193600883Y-186321900D02*
X193529454Y-186179042D01*
X193529454Y-186179042D02*
X193529454Y-184893328D01*
X193958026Y-186536185D02*
X195100883Y-186536185D01*
X195315168Y-185393328D02*
X195672311Y-186393328D01*
X195672311Y-186393328D02*
X196029454Y-185393328D01*
X197386597Y-186393328D02*
X196529454Y-186393328D01*
X196958025Y-186393328D02*
X196958025Y-184893328D01*
X196958025Y-184893328D02*
X196815168Y-185107614D01*
X196815168Y-185107614D02*
X196672311Y-185250471D01*
X196672311Y-185250471D02*
X196529454Y-185321900D01*
X198029453Y-186250471D02*
X198100882Y-186321900D01*
X198100882Y-186321900D02*
X198029453Y-186393328D01*
X198029453Y-186393328D02*
X197958025Y-186321900D01*
X197958025Y-186321900D02*
X198029453Y-186250471D01*
X198029453Y-186250471D02*
X198029453Y-186393328D01*
X199029454Y-184893328D02*
X199172311Y-184893328D01*
X199172311Y-184893328D02*
X199315168Y-184964757D01*
X199315168Y-184964757D02*
X199386597Y-185036185D01*
X199386597Y-185036185D02*
X199458025Y-185179042D01*
X199458025Y-185179042D02*
X199529454Y-185464757D01*
X199529454Y-185464757D02*
X199529454Y-185821900D01*
X199529454Y-185821900D02*
X199458025Y-186107614D01*
X199458025Y-186107614D02*
X199386597Y-186250471D01*
X199386597Y-186250471D02*
X199315168Y-186321900D01*
X199315168Y-186321900D02*
X199172311Y-186393328D01*
X199172311Y-186393328D02*
X199029454Y-186393328D01*
X199029454Y-186393328D02*
X198886597Y-186321900D01*
X198886597Y-186321900D02*
X198815168Y-186250471D01*
X198815168Y-186250471D02*
X198743739Y-186107614D01*
X198743739Y-186107614D02*
X198672311Y-185821900D01*
X198672311Y-185821900D02*
X198672311Y-185464757D01*
X198672311Y-185464757D02*
X198743739Y-185179042D01*
X198743739Y-185179042D02*
X198815168Y-185036185D01*
X198815168Y-185036185D02*
X198886597Y-184964757D01*
X198886597Y-184964757D02*
X199029454Y-184893328D01*
X200172310Y-186250471D02*
X200243739Y-186321900D01*
X200243739Y-186321900D02*
X200172310Y-186393328D01*
X200172310Y-186393328D02*
X200100882Y-186321900D01*
X200100882Y-186321900D02*
X200172310Y-186250471D01*
X200172310Y-186250471D02*
X200172310Y-186393328D01*
X200886596Y-186393328D02*
X200886596Y-184893328D01*
X201029454Y-185821900D02*
X201458025Y-186393328D01*
X201458025Y-185393328D02*
X200886596Y-185964757D01*
X202100882Y-186393328D02*
X202100882Y-185393328D01*
X202100882Y-184893328D02*
X202029454Y-184964757D01*
X202029454Y-184964757D02*
X202100882Y-185036185D01*
X202100882Y-185036185D02*
X202172311Y-184964757D01*
X202172311Y-184964757D02*
X202100882Y-184893328D01*
X202100882Y-184893328D02*
X202100882Y-185036185D01*
X203458026Y-186321900D02*
X203315168Y-186393328D01*
X203315168Y-186393328D02*
X203029454Y-186393328D01*
X203029454Y-186393328D02*
X202886597Y-186321900D01*
X202886597Y-186321900D02*
X202815168Y-186250471D01*
X202815168Y-186250471D02*
X202743740Y-186107614D01*
X202743740Y-186107614D02*
X202743740Y-185679042D01*
X202743740Y-185679042D02*
X202815168Y-185536185D01*
X202815168Y-185536185D02*
X202886597Y-185464757D01*
X202886597Y-185464757D02*
X203029454Y-185393328D01*
X203029454Y-185393328D02*
X203315168Y-185393328D01*
X203315168Y-185393328D02*
X203458026Y-185464757D01*
X204743740Y-186393328D02*
X204743740Y-185607614D01*
X204743740Y-185607614D02*
X204672311Y-185464757D01*
X204672311Y-185464757D02*
X204529454Y-185393328D01*
X204529454Y-185393328D02*
X204243740Y-185393328D01*
X204243740Y-185393328D02*
X204100882Y-185464757D01*
X204743740Y-186321900D02*
X204600882Y-186393328D01*
X204600882Y-186393328D02*
X204243740Y-186393328D01*
X204243740Y-186393328D02*
X204100882Y-186321900D01*
X204100882Y-186321900D02*
X204029454Y-186179042D01*
X204029454Y-186179042D02*
X204029454Y-186036185D01*
X204029454Y-186036185D02*
X204100882Y-185893328D01*
X204100882Y-185893328D02*
X204243740Y-185821900D01*
X204243740Y-185821900D02*
X204600882Y-185821900D01*
X204600882Y-185821900D02*
X204743740Y-185750471D01*
X206100883Y-186393328D02*
X206100883Y-184893328D01*
X206100883Y-186321900D02*
X205958025Y-186393328D01*
X205958025Y-186393328D02*
X205672311Y-186393328D01*
X205672311Y-186393328D02*
X205529454Y-186321900D01*
X205529454Y-186321900D02*
X205458025Y-186250471D01*
X205458025Y-186250471D02*
X205386597Y-186107614D01*
X205386597Y-186107614D02*
X205386597Y-185679042D01*
X205386597Y-185679042D02*
X205458025Y-185536185D01*
X205458025Y-185536185D02*
X205529454Y-185464757D01*
X205529454Y-185464757D02*
X205672311Y-185393328D01*
X205672311Y-185393328D02*
X205958025Y-185393328D01*
X205958025Y-185393328D02*
X206100883Y-185464757D01*
X206458026Y-186536185D02*
X207600883Y-186536185D01*
X207958025Y-185393328D02*
X207958025Y-186893328D01*
X207958025Y-185464757D02*
X208100883Y-185393328D01*
X208100883Y-185393328D02*
X208386597Y-185393328D01*
X208386597Y-185393328D02*
X208529454Y-185464757D01*
X208529454Y-185464757D02*
X208600883Y-185536185D01*
X208600883Y-185536185D02*
X208672311Y-185679042D01*
X208672311Y-185679042D02*
X208672311Y-186107614D01*
X208672311Y-186107614D02*
X208600883Y-186250471D01*
X208600883Y-186250471D02*
X208529454Y-186321900D01*
X208529454Y-186321900D02*
X208386597Y-186393328D01*
X208386597Y-186393328D02*
X208100883Y-186393328D01*
X208100883Y-186393328D02*
X207958025Y-186321900D01*
X209958026Y-186321900D02*
X209815168Y-186393328D01*
X209815168Y-186393328D02*
X209529454Y-186393328D01*
X209529454Y-186393328D02*
X209386597Y-186321900D01*
X209386597Y-186321900D02*
X209315168Y-186250471D01*
X209315168Y-186250471D02*
X209243740Y-186107614D01*
X209243740Y-186107614D02*
X209243740Y-185679042D01*
X209243740Y-185679042D02*
X209315168Y-185536185D01*
X209315168Y-185536185D02*
X209386597Y-185464757D01*
X209386597Y-185464757D02*
X209529454Y-185393328D01*
X209529454Y-185393328D02*
X209815168Y-185393328D01*
X209815168Y-185393328D02*
X209958026Y-185464757D01*
X210600882Y-186393328D02*
X210600882Y-184893328D01*
X210600882Y-185464757D02*
X210743740Y-185393328D01*
X210743740Y-185393328D02*
X211029454Y-185393328D01*
X211029454Y-185393328D02*
X211172311Y-185464757D01*
X211172311Y-185464757D02*
X211243740Y-185536185D01*
X211243740Y-185536185D02*
X211315168Y-185679042D01*
X211315168Y-185679042D02*
X211315168Y-186107614D01*
X211315168Y-186107614D02*
X211243740Y-186250471D01*
X211243740Y-186250471D02*
X211172311Y-186321900D01*
X211172311Y-186321900D02*
X211029454Y-186393328D01*
X211029454Y-186393328D02*
X210743740Y-186393328D01*
X210743740Y-186393328D02*
X210600882Y-186321900D01*
D10*
D11*
X177002200Y-181507200D02*
X285002200Y-181507200D01*
D10*
D11*
X178386598Y-183621900D02*
X178600884Y-183693328D01*
X178600884Y-183693328D02*
X178958026Y-183693328D01*
X178958026Y-183693328D02*
X179100884Y-183621900D01*
X179100884Y-183621900D02*
X179172312Y-183550471D01*
X179172312Y-183550471D02*
X179243741Y-183407614D01*
X179243741Y-183407614D02*
X179243741Y-183264757D01*
X179243741Y-183264757D02*
X179172312Y-183121900D01*
X179172312Y-183121900D02*
X179100884Y-183050471D01*
X179100884Y-183050471D02*
X178958026Y-182979042D01*
X178958026Y-182979042D02*
X178672312Y-182907614D01*
X178672312Y-182907614D02*
X178529455Y-182836185D01*
X178529455Y-182836185D02*
X178458026Y-182764757D01*
X178458026Y-182764757D02*
X178386598Y-182621900D01*
X178386598Y-182621900D02*
X178386598Y-182479042D01*
X178386598Y-182479042D02*
X178458026Y-182336185D01*
X178458026Y-182336185D02*
X178529455Y-182264757D01*
X178529455Y-182264757D02*
X178672312Y-182193328D01*
X178672312Y-182193328D02*
X179029455Y-182193328D01*
X179029455Y-182193328D02*
X179243741Y-182264757D01*
X179886597Y-183693328D02*
X179886597Y-182193328D01*
X180529455Y-183693328D02*
X180529455Y-182907614D01*
X180529455Y-182907614D02*
X180458026Y-182764757D01*
X180458026Y-182764757D02*
X180315169Y-182693328D01*
X180315169Y-182693328D02*
X180100883Y-182693328D01*
X180100883Y-182693328D02*
X179958026Y-182764757D01*
X179958026Y-182764757D02*
X179886597Y-182836185D01*
X181815169Y-183621900D02*
X181672312Y-183693328D01*
X181672312Y-183693328D02*
X181386598Y-183693328D01*
X181386598Y-183693328D02*
X181243740Y-183621900D01*
X181243740Y-183621900D02*
X181172312Y-183479042D01*
X181172312Y-183479042D02*
X181172312Y-182907614D01*
X181172312Y-182907614D02*
X181243740Y-182764757D01*
X181243740Y-182764757D02*
X181386598Y-182693328D01*
X181386598Y-182693328D02*
X181672312Y-182693328D01*
X181672312Y-182693328D02*
X181815169Y-182764757D01*
X181815169Y-182764757D02*
X181886598Y-182907614D01*
X181886598Y-182907614D02*
X181886598Y-183050471D01*
X181886598Y-183050471D02*
X181172312Y-183193328D01*
X183100883Y-183621900D02*
X182958026Y-183693328D01*
X182958026Y-183693328D02*
X182672312Y-183693328D01*
X182672312Y-183693328D02*
X182529454Y-183621900D01*
X182529454Y-183621900D02*
X182458026Y-183479042D01*
X182458026Y-183479042D02*
X182458026Y-182907614D01*
X182458026Y-182907614D02*
X182529454Y-182764757D01*
X182529454Y-182764757D02*
X182672312Y-182693328D01*
X182672312Y-182693328D02*
X182958026Y-182693328D01*
X182958026Y-182693328D02*
X183100883Y-182764757D01*
X183100883Y-182764757D02*
X183172312Y-182907614D01*
X183172312Y-182907614D02*
X183172312Y-183050471D01*
X183172312Y-183050471D02*
X182458026Y-183193328D01*
X183600883Y-182693328D02*
X184172311Y-182693328D01*
X183815168Y-182193328D02*
X183815168Y-183479042D01*
X183815168Y-183479042D02*
X183886597Y-183621900D01*
X183886597Y-183621900D02*
X184029454Y-183693328D01*
X184029454Y-183693328D02*
X184172311Y-183693328D01*
X184672311Y-183550471D02*
X184743740Y-183621900D01*
X184743740Y-183621900D02*
X184672311Y-183693328D01*
X184672311Y-183693328D02*
X184600883Y-183621900D01*
X184600883Y-183621900D02*
X184672311Y-183550471D01*
X184672311Y-183550471D02*
X184672311Y-183693328D01*
X184672311Y-182764757D02*
X184743740Y-182836185D01*
X184743740Y-182836185D02*
X184672311Y-182907614D01*
X184672311Y-182907614D02*
X184600883Y-182836185D01*
X184600883Y-182836185D02*
X184672311Y-182764757D01*
X184672311Y-182764757D02*
X184672311Y-182907614D01*
D10*
D11*
X197002200Y-191507200D02*
X197002200Y-194507200D01*
D10*
D11*
X261002200Y-191507200D02*
X261002200Y-198007200D01*
D14*
X161745237Y-93491476D02*
X161745237Y-93991476D01*
X161745237Y-93515285D02*
X161697618Y-93491476D01*
X161697618Y-93491476D02*
X161602380Y-93491476D01*
X161602380Y-93491476D02*
X161554761Y-93515285D01*
X161554761Y-93515285D02*
X161530951Y-93539095D01*
X161530951Y-93539095D02*
X161507142Y-93586714D01*
X161507142Y-93586714D02*
X161507142Y-93729571D01*
X161507142Y-93729571D02*
X161530951Y-93777190D01*
X161530951Y-93777190D02*
X161554761Y-93801000D01*
X161554761Y-93801000D02*
X161602380Y-93824809D01*
X161602380Y-93824809D02*
X161697618Y-93824809D01*
X161697618Y-93824809D02*
X161745237Y-93801000D01*
X161340475Y-93324809D02*
X161030951Y-93324809D01*
X161030951Y-93324809D02*
X161197618Y-93515285D01*
X161197618Y-93515285D02*
X161126189Y-93515285D01*
X161126189Y-93515285D02*
X161078570Y-93539095D01*
X161078570Y-93539095D02*
X161054761Y-93562904D01*
X161054761Y-93562904D02*
X161030951Y-93610523D01*
X161030951Y-93610523D02*
X161030951Y-93729571D01*
X161030951Y-93729571D02*
X161054761Y-93777190D01*
X161054761Y-93777190D02*
X161078570Y-93801000D01*
X161078570Y-93801000D02*
X161126189Y-93824809D01*
X161126189Y-93824809D02*
X161269046Y-93824809D01*
X161269046Y-93824809D02*
X161316665Y-93801000D01*
X161316665Y-93801000D02*
X161340475Y-93777190D01*
X162078571Y-85891476D02*
X162078571Y-86391476D01*
X162078571Y-85915285D02*
X162030952Y-85891476D01*
X162030952Y-85891476D02*
X161935714Y-85891476D01*
X161935714Y-85891476D02*
X161888095Y-85915285D01*
X161888095Y-85915285D02*
X161864285Y-85939095D01*
X161864285Y-85939095D02*
X161840476Y-85986714D01*
X161840476Y-85986714D02*
X161840476Y-86129571D01*
X161840476Y-86129571D02*
X161864285Y-86177190D01*
X161864285Y-86177190D02*
X161888095Y-86201000D01*
X161888095Y-86201000D02*
X161935714Y-86224809D01*
X161935714Y-86224809D02*
X162030952Y-86224809D01*
X162030952Y-86224809D02*
X162078571Y-86201000D01*
X161554761Y-86224809D02*
X161602380Y-86201000D01*
X161602380Y-86201000D02*
X161626190Y-86153380D01*
X161626190Y-86153380D02*
X161626190Y-85724809D01*
X161173809Y-86201000D02*
X161221428Y-86224809D01*
X161221428Y-86224809D02*
X161316666Y-86224809D01*
X161316666Y-86224809D02*
X161364285Y-86201000D01*
X161364285Y-86201000D02*
X161388094Y-86153380D01*
X161388094Y-86153380D02*
X161388094Y-85962904D01*
X161388094Y-85962904D02*
X161364285Y-85915285D01*
X161364285Y-85915285D02*
X161316666Y-85891476D01*
X161316666Y-85891476D02*
X161221428Y-85891476D01*
X161221428Y-85891476D02*
X161173809Y-85915285D01*
X161173809Y-85915285D02*
X161149999Y-85962904D01*
X161149999Y-85962904D02*
X161149999Y-86010523D01*
X161149999Y-86010523D02*
X161388094Y-86058142D01*
X160721428Y-86224809D02*
X160721428Y-85724809D01*
X160721428Y-86201000D02*
X160769047Y-86224809D01*
X160769047Y-86224809D02*
X160864285Y-86224809D01*
X160864285Y-86224809D02*
X160911904Y-86201000D01*
X160911904Y-86201000D02*
X160935714Y-86177190D01*
X160935714Y-86177190D02*
X160959523Y-86129571D01*
X160959523Y-86129571D02*
X160959523Y-85986714D01*
X160959523Y-85986714D02*
X160935714Y-85939095D01*
X160935714Y-85939095D02*
X160911904Y-85915285D01*
X160911904Y-85915285D02*
X160864285Y-85891476D01*
X160864285Y-85891476D02*
X160769047Y-85891476D01*
X160769047Y-85891476D02*
X160721428Y-85915285D01*
X206557141Y-85281952D02*
X206319046Y-85281952D01*
X206604760Y-85424809D02*
X206438094Y-84924809D01*
X206438094Y-84924809D02*
X206271427Y-85424809D01*
X205842856Y-85424809D02*
X206128570Y-85424809D01*
X205985713Y-85424809D02*
X205985713Y-84924809D01*
X205985713Y-84924809D02*
X206033332Y-84996238D01*
X206033332Y-84996238D02*
X206080951Y-85043857D01*
X206080951Y-85043857D02*
X206128570Y-85067666D01*
X206580952Y-107924809D02*
X206580952Y-108329571D01*
X206580952Y-108329571D02*
X206557142Y-108377190D01*
X206557142Y-108377190D02*
X206533333Y-108401000D01*
X206533333Y-108401000D02*
X206485714Y-108424809D01*
X206485714Y-108424809D02*
X206390476Y-108424809D01*
X206390476Y-108424809D02*
X206342857Y-108401000D01*
X206342857Y-108401000D02*
X206319047Y-108377190D01*
X206319047Y-108377190D02*
X206295238Y-108329571D01*
X206295238Y-108329571D02*
X206295238Y-107924809D01*
X206104761Y-107924809D02*
X205795237Y-107924809D01*
X205795237Y-107924809D02*
X205961904Y-108115285D01*
X205961904Y-108115285D02*
X205890475Y-108115285D01*
X205890475Y-108115285D02*
X205842856Y-108139095D01*
X205842856Y-108139095D02*
X205819047Y-108162904D01*
X205819047Y-108162904D02*
X205795237Y-108210523D01*
X205795237Y-108210523D02*
X205795237Y-108329571D01*
X205795237Y-108329571D02*
X205819047Y-108377190D01*
X205819047Y-108377190D02*
X205842856Y-108401000D01*
X205842856Y-108401000D02*
X205890475Y-108424809D01*
X205890475Y-108424809D02*
X206033332Y-108424809D01*
X206033332Y-108424809D02*
X206080951Y-108401000D01*
X206080951Y-108401000D02*
X206104761Y-108377190D01*
D11*
X179571428Y-74654819D02*
X180142856Y-74654819D01*
X179857142Y-74654819D02*
X179857142Y-73654819D01*
X179857142Y-73654819D02*
X179952380Y-73797676D01*
X179952380Y-73797676D02*
X180047618Y-73892914D01*
X180047618Y-73892914D02*
X180142856Y-73940533D01*
X179190475Y-73750057D02*
X179142856Y-73702438D01*
X179142856Y-73702438D02*
X179047618Y-73654819D01*
X179047618Y-73654819D02*
X178809523Y-73654819D01*
X178809523Y-73654819D02*
X178714285Y-73702438D01*
X178714285Y-73702438D02*
X178666666Y-73750057D01*
X178666666Y-73750057D02*
X178619047Y-73845295D01*
X178619047Y-73845295D02*
X178619047Y-73940533D01*
X178619047Y-73940533D02*
X178666666Y-74083390D01*
X178666666Y-74083390D02*
X179238094Y-74654819D01*
X179238094Y-74654819D02*
X178619047Y-74654819D01*
X178285713Y-73988152D02*
X178047618Y-74654819D01*
X178047618Y-74654819D02*
X177809523Y-73988152D01*
D14*
X206759523Y-94998514D02*
X206711904Y-95022323D01*
X206711904Y-95022323D02*
X206616666Y-95022323D01*
X206616666Y-95022323D02*
X206569047Y-94998514D01*
X206569047Y-94998514D02*
X206545238Y-94950894D01*
X206545238Y-94950894D02*
X206545238Y-94927085D01*
X206545238Y-94927085D02*
X206569047Y-94879466D01*
X206569047Y-94879466D02*
X206616666Y-94855656D01*
X206616666Y-94855656D02*
X206688095Y-94855656D01*
X206688095Y-94855656D02*
X206735714Y-94831847D01*
X206735714Y-94831847D02*
X206759523Y-94784228D01*
X206759523Y-94784228D02*
X206759523Y-94760418D01*
X206759523Y-94760418D02*
X206735714Y-94712799D01*
X206735714Y-94712799D02*
X206688095Y-94688990D01*
X206688095Y-94688990D02*
X206616666Y-94688990D01*
X206616666Y-94688990D02*
X206569047Y-94712799D01*
X206116666Y-95022323D02*
X206116666Y-94522323D01*
X206116666Y-94998514D02*
X206164285Y-95022323D01*
X206164285Y-95022323D02*
X206259523Y-95022323D01*
X206259523Y-95022323D02*
X206307142Y-94998514D01*
X206307142Y-94998514D02*
X206330952Y-94974704D01*
X206330952Y-94974704D02*
X206354761Y-94927085D01*
X206354761Y-94927085D02*
X206354761Y-94784228D01*
X206354761Y-94784228D02*
X206330952Y-94736609D01*
X206330952Y-94736609D02*
X206307142Y-94712799D01*
X206307142Y-94712799D02*
X206259523Y-94688990D01*
X206259523Y-94688990D02*
X206164285Y-94688990D01*
X206164285Y-94688990D02*
X206116666Y-94712799D01*
X205664285Y-95022323D02*
X205664285Y-94760418D01*
X205664285Y-94760418D02*
X205688095Y-94712799D01*
X205688095Y-94712799D02*
X205735714Y-94688990D01*
X205735714Y-94688990D02*
X205830952Y-94688990D01*
X205830952Y-94688990D02*
X205878571Y-94712799D01*
X205664285Y-94998514D02*
X205711904Y-95022323D01*
X205711904Y-95022323D02*
X205830952Y-95022323D01*
X205830952Y-95022323D02*
X205878571Y-94998514D01*
X205878571Y-94998514D02*
X205902380Y-94950894D01*
X205902380Y-94950894D02*
X205902380Y-94903275D01*
X205902380Y-94903275D02*
X205878571Y-94855656D01*
X205878571Y-94855656D02*
X205830952Y-94831847D01*
X205830952Y-94831847D02*
X205711904Y-94831847D01*
X205711904Y-94831847D02*
X205664285Y-94808037D01*
X206057142Y-95827295D02*
X206342856Y-95827295D01*
X206199999Y-95827295D02*
X206199999Y-95327295D01*
X206199999Y-95327295D02*
X206247618Y-95398724D01*
X206247618Y-95398724D02*
X206295237Y-95446343D01*
X206295237Y-95446343D02*
X206342856Y-95470152D01*
X161745237Y-101091476D02*
X161745237Y-101591476D01*
X161745237Y-101115285D02*
X161697618Y-101091476D01*
X161697618Y-101091476D02*
X161602380Y-101091476D01*
X161602380Y-101091476D02*
X161554761Y-101115285D01*
X161554761Y-101115285D02*
X161530951Y-101139095D01*
X161530951Y-101139095D02*
X161507142Y-101186714D01*
X161507142Y-101186714D02*
X161507142Y-101329571D01*
X161507142Y-101329571D02*
X161530951Y-101377190D01*
X161530951Y-101377190D02*
X161554761Y-101401000D01*
X161554761Y-101401000D02*
X161602380Y-101424809D01*
X161602380Y-101424809D02*
X161697618Y-101424809D01*
X161697618Y-101424809D02*
X161745237Y-101401000D01*
X161078570Y-100924809D02*
X161173808Y-100924809D01*
X161173808Y-100924809D02*
X161221427Y-100948619D01*
X161221427Y-100948619D02*
X161245237Y-100972428D01*
X161245237Y-100972428D02*
X161292856Y-101043857D01*
X161292856Y-101043857D02*
X161316665Y-101139095D01*
X161316665Y-101139095D02*
X161316665Y-101329571D01*
X161316665Y-101329571D02*
X161292856Y-101377190D01*
X161292856Y-101377190D02*
X161269046Y-101401000D01*
X161269046Y-101401000D02*
X161221427Y-101424809D01*
X161221427Y-101424809D02*
X161126189Y-101424809D01*
X161126189Y-101424809D02*
X161078570Y-101401000D01*
X161078570Y-101401000D02*
X161054761Y-101377190D01*
X161054761Y-101377190D02*
X161030951Y-101329571D01*
X161030951Y-101329571D02*
X161030951Y-101210523D01*
X161030951Y-101210523D02*
X161054761Y-101162904D01*
X161054761Y-101162904D02*
X161078570Y-101139095D01*
X161078570Y-101139095D02*
X161126189Y-101115285D01*
X161126189Y-101115285D02*
X161221427Y-101115285D01*
X161221427Y-101115285D02*
X161269046Y-101139095D01*
X161269046Y-101139095D02*
X161292856Y-101162904D01*
X161292856Y-101162904D02*
X161316665Y-101210523D01*
X206759523Y-97598514D02*
X206711904Y-97622323D01*
X206711904Y-97622323D02*
X206616666Y-97622323D01*
X206616666Y-97622323D02*
X206569047Y-97598514D01*
X206569047Y-97598514D02*
X206545238Y-97550894D01*
X206545238Y-97550894D02*
X206545238Y-97527085D01*
X206545238Y-97527085D02*
X206569047Y-97479466D01*
X206569047Y-97479466D02*
X206616666Y-97455656D01*
X206616666Y-97455656D02*
X206688095Y-97455656D01*
X206688095Y-97455656D02*
X206735714Y-97431847D01*
X206735714Y-97431847D02*
X206759523Y-97384228D01*
X206759523Y-97384228D02*
X206759523Y-97360418D01*
X206759523Y-97360418D02*
X206735714Y-97312799D01*
X206735714Y-97312799D02*
X206688095Y-97288990D01*
X206688095Y-97288990D02*
X206616666Y-97288990D01*
X206616666Y-97288990D02*
X206569047Y-97312799D01*
X206116666Y-97622323D02*
X206116666Y-97122323D01*
X206116666Y-97598514D02*
X206164285Y-97622323D01*
X206164285Y-97622323D02*
X206259523Y-97622323D01*
X206259523Y-97622323D02*
X206307142Y-97598514D01*
X206307142Y-97598514D02*
X206330952Y-97574704D01*
X206330952Y-97574704D02*
X206354761Y-97527085D01*
X206354761Y-97527085D02*
X206354761Y-97384228D01*
X206354761Y-97384228D02*
X206330952Y-97336609D01*
X206330952Y-97336609D02*
X206307142Y-97312799D01*
X206307142Y-97312799D02*
X206259523Y-97288990D01*
X206259523Y-97288990D02*
X206164285Y-97288990D01*
X206164285Y-97288990D02*
X206116666Y-97312799D01*
X205664285Y-97622323D02*
X205664285Y-97360418D01*
X205664285Y-97360418D02*
X205688095Y-97312799D01*
X205688095Y-97312799D02*
X205735714Y-97288990D01*
X205735714Y-97288990D02*
X205830952Y-97288990D01*
X205830952Y-97288990D02*
X205878571Y-97312799D01*
X205664285Y-97598514D02*
X205711904Y-97622323D01*
X205711904Y-97622323D02*
X205830952Y-97622323D01*
X205830952Y-97622323D02*
X205878571Y-97598514D01*
X205878571Y-97598514D02*
X205902380Y-97550894D01*
X205902380Y-97550894D02*
X205902380Y-97503275D01*
X205902380Y-97503275D02*
X205878571Y-97455656D01*
X205878571Y-97455656D02*
X205830952Y-97431847D01*
X205830952Y-97431847D02*
X205711904Y-97431847D01*
X205711904Y-97431847D02*
X205664285Y-97408037D01*
X206342856Y-97974914D02*
X206319047Y-97951105D01*
X206319047Y-97951105D02*
X206271428Y-97927295D01*
X206271428Y-97927295D02*
X206152380Y-97927295D01*
X206152380Y-97927295D02*
X206104761Y-97951105D01*
X206104761Y-97951105D02*
X206080952Y-97974914D01*
X206080952Y-97974914D02*
X206057142Y-98022533D01*
X206057142Y-98022533D02*
X206057142Y-98070152D01*
X206057142Y-98070152D02*
X206080952Y-98141581D01*
X206080952Y-98141581D02*
X206366666Y-98427295D01*
X206366666Y-98427295D02*
X206057142Y-98427295D01*
X161745237Y-113891476D02*
X161745237Y-114391476D01*
X161745237Y-113915285D02*
X161697618Y-113891476D01*
X161697618Y-113891476D02*
X161602380Y-113891476D01*
X161602380Y-113891476D02*
X161554761Y-113915285D01*
X161554761Y-113915285D02*
X161530951Y-113939095D01*
X161530951Y-113939095D02*
X161507142Y-113986714D01*
X161507142Y-113986714D02*
X161507142Y-114129571D01*
X161507142Y-114129571D02*
X161530951Y-114177190D01*
X161530951Y-114177190D02*
X161554761Y-114201000D01*
X161554761Y-114201000D02*
X161602380Y-114224809D01*
X161602380Y-114224809D02*
X161697618Y-114224809D01*
X161697618Y-114224809D02*
X161745237Y-114201000D01*
X161221427Y-113939095D02*
X161269046Y-113915285D01*
X161269046Y-113915285D02*
X161292856Y-113891476D01*
X161292856Y-113891476D02*
X161316665Y-113843857D01*
X161316665Y-113843857D02*
X161316665Y-113820047D01*
X161316665Y-113820047D02*
X161292856Y-113772428D01*
X161292856Y-113772428D02*
X161269046Y-113748619D01*
X161269046Y-113748619D02*
X161221427Y-113724809D01*
X161221427Y-113724809D02*
X161126189Y-113724809D01*
X161126189Y-113724809D02*
X161078570Y-113748619D01*
X161078570Y-113748619D02*
X161054761Y-113772428D01*
X161054761Y-113772428D02*
X161030951Y-113820047D01*
X161030951Y-113820047D02*
X161030951Y-113843857D01*
X161030951Y-113843857D02*
X161054761Y-113891476D01*
X161054761Y-113891476D02*
X161078570Y-113915285D01*
X161078570Y-113915285D02*
X161126189Y-113939095D01*
X161126189Y-113939095D02*
X161221427Y-113939095D01*
X161221427Y-113939095D02*
X161269046Y-113962904D01*
X161269046Y-113962904D02*
X161292856Y-113986714D01*
X161292856Y-113986714D02*
X161316665Y-114034333D01*
X161316665Y-114034333D02*
X161316665Y-114129571D01*
X161316665Y-114129571D02*
X161292856Y-114177190D01*
X161292856Y-114177190D02*
X161269046Y-114201000D01*
X161269046Y-114201000D02*
X161221427Y-114224809D01*
X161221427Y-114224809D02*
X161126189Y-114224809D01*
X161126189Y-114224809D02*
X161078570Y-114201000D01*
X161078570Y-114201000D02*
X161054761Y-114177190D01*
X161054761Y-114177190D02*
X161030951Y-114129571D01*
X161030951Y-114129571D02*
X161030951Y-114034333D01*
X161030951Y-114034333D02*
X161054761Y-113986714D01*
X161054761Y-113986714D02*
X161078570Y-113962904D01*
X161078570Y-113962904D02*
X161126189Y-113939095D01*
X161745237Y-88491476D02*
X161745237Y-88991476D01*
X161745237Y-88515285D02*
X161697618Y-88491476D01*
X161697618Y-88491476D02*
X161602380Y-88491476D01*
X161602380Y-88491476D02*
X161554761Y-88515285D01*
X161554761Y-88515285D02*
X161530951Y-88539095D01*
X161530951Y-88539095D02*
X161507142Y-88586714D01*
X161507142Y-88586714D02*
X161507142Y-88729571D01*
X161507142Y-88729571D02*
X161530951Y-88777190D01*
X161530951Y-88777190D02*
X161554761Y-88801000D01*
X161554761Y-88801000D02*
X161602380Y-88824809D01*
X161602380Y-88824809D02*
X161697618Y-88824809D01*
X161697618Y-88824809D02*
X161745237Y-88801000D01*
X161030951Y-88824809D02*
X161316665Y-88824809D01*
X161173808Y-88824809D02*
X161173808Y-88324809D01*
X161173808Y-88324809D02*
X161221427Y-88396238D01*
X161221427Y-88396238D02*
X161269046Y-88443857D01*
X161269046Y-88443857D02*
X161316665Y-88467666D01*
X161745237Y-90891476D02*
X161745237Y-91391476D01*
X161745237Y-90915285D02*
X161697618Y-90891476D01*
X161697618Y-90891476D02*
X161602380Y-90891476D01*
X161602380Y-90891476D02*
X161554761Y-90915285D01*
X161554761Y-90915285D02*
X161530951Y-90939095D01*
X161530951Y-90939095D02*
X161507142Y-90986714D01*
X161507142Y-90986714D02*
X161507142Y-91129571D01*
X161507142Y-91129571D02*
X161530951Y-91177190D01*
X161530951Y-91177190D02*
X161554761Y-91201000D01*
X161554761Y-91201000D02*
X161602380Y-91224809D01*
X161602380Y-91224809D02*
X161697618Y-91224809D01*
X161697618Y-91224809D02*
X161745237Y-91201000D01*
X161316665Y-90772428D02*
X161292856Y-90748619D01*
X161292856Y-90748619D02*
X161245237Y-90724809D01*
X161245237Y-90724809D02*
X161126189Y-90724809D01*
X161126189Y-90724809D02*
X161078570Y-90748619D01*
X161078570Y-90748619D02*
X161054761Y-90772428D01*
X161054761Y-90772428D02*
X161030951Y-90820047D01*
X161030951Y-90820047D02*
X161030951Y-90867666D01*
X161030951Y-90867666D02*
X161054761Y-90939095D01*
X161054761Y-90939095D02*
X161340475Y-91224809D01*
X161340475Y-91224809D02*
X161030951Y-91224809D01*
X200652380Y-94998514D02*
X200604761Y-95022323D01*
X200604761Y-95022323D02*
X200509523Y-95022323D01*
X200509523Y-95022323D02*
X200461904Y-94998514D01*
X200461904Y-94998514D02*
X200438095Y-94950894D01*
X200438095Y-94950894D02*
X200438095Y-94927085D01*
X200438095Y-94927085D02*
X200461904Y-94879466D01*
X200461904Y-94879466D02*
X200509523Y-94855656D01*
X200509523Y-94855656D02*
X200580952Y-94855656D01*
X200580952Y-94855656D02*
X200628571Y-94831847D01*
X200628571Y-94831847D02*
X200652380Y-94784228D01*
X200652380Y-94784228D02*
X200652380Y-94760418D01*
X200652380Y-94760418D02*
X200628571Y-94712799D01*
X200628571Y-94712799D02*
X200580952Y-94688990D01*
X200580952Y-94688990D02*
X200509523Y-94688990D01*
X200509523Y-94688990D02*
X200461904Y-94712799D01*
X200009523Y-94998514D02*
X200057142Y-95022323D01*
X200057142Y-95022323D02*
X200152380Y-95022323D01*
X200152380Y-95022323D02*
X200199999Y-94998514D01*
X200199999Y-94998514D02*
X200223809Y-94974704D01*
X200223809Y-94974704D02*
X200247618Y-94927085D01*
X200247618Y-94927085D02*
X200247618Y-94784228D01*
X200247618Y-94784228D02*
X200223809Y-94736609D01*
X200223809Y-94736609D02*
X200199999Y-94712799D01*
X200199999Y-94712799D02*
X200152380Y-94688990D01*
X200152380Y-94688990D02*
X200057142Y-94688990D01*
X200057142Y-94688990D02*
X200009523Y-94712799D01*
X199723809Y-95022323D02*
X199771428Y-94998514D01*
X199771428Y-94998514D02*
X199795238Y-94950894D01*
X199795238Y-94950894D02*
X199795238Y-94522323D01*
X200057142Y-95827295D02*
X200342856Y-95827295D01*
X200199999Y-95827295D02*
X200199999Y-95327295D01*
X200199999Y-95327295D02*
X200247618Y-95398724D01*
X200247618Y-95398724D02*
X200295237Y-95446343D01*
X200295237Y-95446343D02*
X200342856Y-95470152D01*
X206580952Y-117924809D02*
X206580952Y-118329571D01*
X206580952Y-118329571D02*
X206557142Y-118377190D01*
X206557142Y-118377190D02*
X206533333Y-118401000D01*
X206533333Y-118401000D02*
X206485714Y-118424809D01*
X206485714Y-118424809D02*
X206390476Y-118424809D01*
X206390476Y-118424809D02*
X206342857Y-118401000D01*
X206342857Y-118401000D02*
X206319047Y-118377190D01*
X206319047Y-118377190D02*
X206295238Y-118329571D01*
X206295238Y-118329571D02*
X206295238Y-117924809D01*
X205985713Y-118139095D02*
X206033332Y-118115285D01*
X206033332Y-118115285D02*
X206057142Y-118091476D01*
X206057142Y-118091476D02*
X206080951Y-118043857D01*
X206080951Y-118043857D02*
X206080951Y-118020047D01*
X206080951Y-118020047D02*
X206057142Y-117972428D01*
X206057142Y-117972428D02*
X206033332Y-117948619D01*
X206033332Y-117948619D02*
X205985713Y-117924809D01*
X205985713Y-117924809D02*
X205890475Y-117924809D01*
X205890475Y-117924809D02*
X205842856Y-117948619D01*
X205842856Y-117948619D02*
X205819047Y-117972428D01*
X205819047Y-117972428D02*
X205795237Y-118020047D01*
X205795237Y-118020047D02*
X205795237Y-118043857D01*
X205795237Y-118043857D02*
X205819047Y-118091476D01*
X205819047Y-118091476D02*
X205842856Y-118115285D01*
X205842856Y-118115285D02*
X205890475Y-118139095D01*
X205890475Y-118139095D02*
X205985713Y-118139095D01*
X205985713Y-118139095D02*
X206033332Y-118162904D01*
X206033332Y-118162904D02*
X206057142Y-118186714D01*
X206057142Y-118186714D02*
X206080951Y-118234333D01*
X206080951Y-118234333D02*
X206080951Y-118329571D01*
X206080951Y-118329571D02*
X206057142Y-118377190D01*
X206057142Y-118377190D02*
X206033332Y-118401000D01*
X206033332Y-118401000D02*
X205985713Y-118424809D01*
X205985713Y-118424809D02*
X205890475Y-118424809D01*
X205890475Y-118424809D02*
X205842856Y-118401000D01*
X205842856Y-118401000D02*
X205819047Y-118377190D01*
X205819047Y-118377190D02*
X205795237Y-118329571D01*
X205795237Y-118329571D02*
X205795237Y-118234333D01*
X205795237Y-118234333D02*
X205819047Y-118186714D01*
X205819047Y-118186714D02*
X205842856Y-118162904D01*
X205842856Y-118162904D02*
X205890475Y-118139095D01*
X206045238Y-92374704D02*
X206069047Y-92398514D01*
X206069047Y-92398514D02*
X206140476Y-92422323D01*
X206140476Y-92422323D02*
X206188095Y-92422323D01*
X206188095Y-92422323D02*
X206259523Y-92398514D01*
X206259523Y-92398514D02*
X206307142Y-92350894D01*
X206307142Y-92350894D02*
X206330952Y-92303275D01*
X206330952Y-92303275D02*
X206354761Y-92208037D01*
X206354761Y-92208037D02*
X206354761Y-92136609D01*
X206354761Y-92136609D02*
X206330952Y-92041371D01*
X206330952Y-92041371D02*
X206307142Y-91993752D01*
X206307142Y-91993752D02*
X206259523Y-91946133D01*
X206259523Y-91946133D02*
X206188095Y-91922323D01*
X206188095Y-91922323D02*
X206140476Y-91922323D01*
X206140476Y-91922323D02*
X206069047Y-91946133D01*
X206069047Y-91946133D02*
X206045238Y-91969942D01*
X206580951Y-92727295D02*
X206295237Y-92727295D01*
X206438094Y-93227295D02*
X206438094Y-92727295D01*
X206176190Y-92727295D02*
X205842857Y-93227295D01*
X205842857Y-92727295D02*
X206176190Y-93227295D01*
X161745237Y-96091476D02*
X161745237Y-96591476D01*
X161745237Y-96115285D02*
X161697618Y-96091476D01*
X161697618Y-96091476D02*
X161602380Y-96091476D01*
X161602380Y-96091476D02*
X161554761Y-96115285D01*
X161554761Y-96115285D02*
X161530951Y-96139095D01*
X161530951Y-96139095D02*
X161507142Y-96186714D01*
X161507142Y-96186714D02*
X161507142Y-96329571D01*
X161507142Y-96329571D02*
X161530951Y-96377190D01*
X161530951Y-96377190D02*
X161554761Y-96401000D01*
X161554761Y-96401000D02*
X161602380Y-96424809D01*
X161602380Y-96424809D02*
X161697618Y-96424809D01*
X161697618Y-96424809D02*
X161745237Y-96401000D01*
X161078570Y-96091476D02*
X161078570Y-96424809D01*
X161197618Y-95901000D02*
X161316665Y-96258142D01*
X161316665Y-96258142D02*
X161007142Y-96258142D01*
D11*
X184361904Y-76473866D02*
X183600000Y-76473866D01*
X181599999Y-76473866D02*
X180838095Y-76473866D01*
X181219047Y-76854819D02*
X181219047Y-76092914D01*
D14*
X161745237Y-116491476D02*
X161745237Y-116991476D01*
X161745237Y-116515285D02*
X161697618Y-116491476D01*
X161697618Y-116491476D02*
X161602380Y-116491476D01*
X161602380Y-116491476D02*
X161554761Y-116515285D01*
X161554761Y-116515285D02*
X161530951Y-116539095D01*
X161530951Y-116539095D02*
X161507142Y-116586714D01*
X161507142Y-116586714D02*
X161507142Y-116729571D01*
X161507142Y-116729571D02*
X161530951Y-116777190D01*
X161530951Y-116777190D02*
X161554761Y-116801000D01*
X161554761Y-116801000D02*
X161602380Y-116824809D01*
X161602380Y-116824809D02*
X161697618Y-116824809D01*
X161697618Y-116824809D02*
X161745237Y-116801000D01*
X161340475Y-116324809D02*
X161007142Y-116324809D01*
X161007142Y-116324809D02*
X161221427Y-116824809D01*
X206580952Y-115324809D02*
X206580952Y-115729571D01*
X206580952Y-115729571D02*
X206557142Y-115777190D01*
X206557142Y-115777190D02*
X206533333Y-115801000D01*
X206533333Y-115801000D02*
X206485714Y-115824809D01*
X206485714Y-115824809D02*
X206390476Y-115824809D01*
X206390476Y-115824809D02*
X206342857Y-115801000D01*
X206342857Y-115801000D02*
X206319047Y-115777190D01*
X206319047Y-115777190D02*
X206295238Y-115729571D01*
X206295238Y-115729571D02*
X206295238Y-115324809D01*
X206104761Y-115324809D02*
X205771428Y-115324809D01*
X205771428Y-115324809D02*
X205985713Y-115824809D01*
X206604760Y-87324809D02*
X206438094Y-87824809D01*
X206438094Y-87824809D02*
X206271427Y-87324809D01*
X206152380Y-87324809D02*
X205842856Y-87324809D01*
X205842856Y-87324809D02*
X206009523Y-87515285D01*
X206009523Y-87515285D02*
X205938094Y-87515285D01*
X205938094Y-87515285D02*
X205890475Y-87539095D01*
X205890475Y-87539095D02*
X205866666Y-87562904D01*
X205866666Y-87562904D02*
X205842856Y-87610523D01*
X205842856Y-87610523D02*
X205842856Y-87729571D01*
X205842856Y-87729571D02*
X205866666Y-87777190D01*
X205866666Y-87777190D02*
X205890475Y-87801000D01*
X205890475Y-87801000D02*
X205938094Y-87824809D01*
X205938094Y-87824809D02*
X206080951Y-87824809D01*
X206080951Y-87824809D02*
X206128570Y-87801000D01*
X206128570Y-87801000D02*
X206152380Y-87777190D01*
D11*
X190071428Y-72854819D02*
X190071428Y-71854819D01*
X190071428Y-72235771D02*
X189976190Y-72188152D01*
X189976190Y-72188152D02*
X189785714Y-72188152D01*
X189785714Y-72188152D02*
X189690476Y-72235771D01*
X189690476Y-72235771D02*
X189642857Y-72283390D01*
X189642857Y-72283390D02*
X189595238Y-72378628D01*
X189595238Y-72378628D02*
X189595238Y-72664342D01*
X189595238Y-72664342D02*
X189642857Y-72759580D01*
X189642857Y-72759580D02*
X189690476Y-72807200D01*
X189690476Y-72807200D02*
X189785714Y-72854819D01*
X189785714Y-72854819D02*
X189976190Y-72854819D01*
X189976190Y-72854819D02*
X190071428Y-72807200D01*
X188738095Y-72188152D02*
X188738095Y-72854819D01*
X189166666Y-72188152D02*
X189166666Y-72711961D01*
X189166666Y-72711961D02*
X189119047Y-72807200D01*
X189119047Y-72807200D02*
X189023809Y-72854819D01*
X189023809Y-72854819D02*
X188880952Y-72854819D01*
X188880952Y-72854819D02*
X188785714Y-72807200D01*
X188785714Y-72807200D02*
X188738095Y-72759580D01*
X188357142Y-72188152D02*
X187833333Y-72188152D01*
X187833333Y-72188152D02*
X188357142Y-72854819D01*
X188357142Y-72854819D02*
X187833333Y-72854819D01*
D14*
X161983332Y-103691476D02*
X161983332Y-104191476D01*
X161983332Y-103715285D02*
X161935713Y-103691476D01*
X161935713Y-103691476D02*
X161840475Y-103691476D01*
X161840475Y-103691476D02*
X161792856Y-103715285D01*
X161792856Y-103715285D02*
X161769046Y-103739095D01*
X161769046Y-103739095D02*
X161745237Y-103786714D01*
X161745237Y-103786714D02*
X161745237Y-103929571D01*
X161745237Y-103929571D02*
X161769046Y-103977190D01*
X161769046Y-103977190D02*
X161792856Y-104001000D01*
X161792856Y-104001000D02*
X161840475Y-104024809D01*
X161840475Y-104024809D02*
X161935713Y-104024809D01*
X161935713Y-104024809D02*
X161983332Y-104001000D01*
X161269046Y-104024809D02*
X161554760Y-104024809D01*
X161411903Y-104024809D02*
X161411903Y-103524809D01*
X161411903Y-103524809D02*
X161459522Y-103596238D01*
X161459522Y-103596238D02*
X161507141Y-103643857D01*
X161507141Y-103643857D02*
X161554760Y-103667666D01*
X160792856Y-104024809D02*
X161078570Y-104024809D01*
X160935713Y-104024809D02*
X160935713Y-103524809D01*
X160935713Y-103524809D02*
X160983332Y-103596238D01*
X160983332Y-103596238D02*
X161030951Y-103643857D01*
X161030951Y-103643857D02*
X161078570Y-103667666D01*
X206580952Y-112924809D02*
X206580952Y-113329571D01*
X206580952Y-113329571D02*
X206557142Y-113377190D01*
X206557142Y-113377190D02*
X206533333Y-113401000D01*
X206533333Y-113401000D02*
X206485714Y-113424809D01*
X206485714Y-113424809D02*
X206390476Y-113424809D01*
X206390476Y-113424809D02*
X206342857Y-113401000D01*
X206342857Y-113401000D02*
X206319047Y-113377190D01*
X206319047Y-113377190D02*
X206295238Y-113329571D01*
X206295238Y-113329571D02*
X206295238Y-112924809D01*
X205842856Y-112924809D02*
X205938094Y-112924809D01*
X205938094Y-112924809D02*
X205985713Y-112948619D01*
X205985713Y-112948619D02*
X206009523Y-112972428D01*
X206009523Y-112972428D02*
X206057142Y-113043857D01*
X206057142Y-113043857D02*
X206080951Y-113139095D01*
X206080951Y-113139095D02*
X206080951Y-113329571D01*
X206080951Y-113329571D02*
X206057142Y-113377190D01*
X206057142Y-113377190D02*
X206033332Y-113401000D01*
X206033332Y-113401000D02*
X205985713Y-113424809D01*
X205985713Y-113424809D02*
X205890475Y-113424809D01*
X205890475Y-113424809D02*
X205842856Y-113401000D01*
X205842856Y-113401000D02*
X205819047Y-113377190D01*
X205819047Y-113377190D02*
X205795237Y-113329571D01*
X205795237Y-113329571D02*
X205795237Y-113210523D01*
X205795237Y-113210523D02*
X205819047Y-113162904D01*
X205819047Y-113162904D02*
X205842856Y-113139095D01*
X205842856Y-113139095D02*
X205890475Y-113115285D01*
X205890475Y-113115285D02*
X205985713Y-113115285D01*
X205985713Y-113115285D02*
X206033332Y-113139095D01*
X206033332Y-113139095D02*
X206057142Y-113162904D01*
X206057142Y-113162904D02*
X206080951Y-113210523D01*
D11*
X187123809Y-87083390D02*
X187219047Y-87035771D01*
X187219047Y-87035771D02*
X187266666Y-86988152D01*
X187266666Y-86988152D02*
X187314285Y-86892914D01*
X187314285Y-86892914D02*
X187314285Y-86845295D01*
X187314285Y-86845295D02*
X187266666Y-86750057D01*
X187266666Y-86750057D02*
X187219047Y-86702438D01*
X187219047Y-86702438D02*
X187123809Y-86654819D01*
X187123809Y-86654819D02*
X186933333Y-86654819D01*
X186933333Y-86654819D02*
X186838095Y-86702438D01*
X186838095Y-86702438D02*
X186790476Y-86750057D01*
X186790476Y-86750057D02*
X186742857Y-86845295D01*
X186742857Y-86845295D02*
X186742857Y-86892914D01*
X186742857Y-86892914D02*
X186790476Y-86988152D01*
X186790476Y-86988152D02*
X186838095Y-87035771D01*
X186838095Y-87035771D02*
X186933333Y-87083390D01*
X186933333Y-87083390D02*
X187123809Y-87083390D01*
X187123809Y-87083390D02*
X187219047Y-87131009D01*
X187219047Y-87131009D02*
X187266666Y-87178628D01*
X187266666Y-87178628D02*
X187314285Y-87273866D01*
X187314285Y-87273866D02*
X187314285Y-87464342D01*
X187314285Y-87464342D02*
X187266666Y-87559580D01*
X187266666Y-87559580D02*
X187219047Y-87607200D01*
X187219047Y-87607200D02*
X187123809Y-87654819D01*
X187123809Y-87654819D02*
X186933333Y-87654819D01*
X186933333Y-87654819D02*
X186838095Y-87607200D01*
X186838095Y-87607200D02*
X186790476Y-87559580D01*
X186790476Y-87559580D02*
X186742857Y-87464342D01*
X186742857Y-87464342D02*
X186742857Y-87273866D01*
X186742857Y-87273866D02*
X186790476Y-87178628D01*
X186790476Y-87178628D02*
X186838095Y-87131009D01*
X186838095Y-87131009D02*
X186933333Y-87083390D01*
X185600000Y-86607200D02*
X186457142Y-87892914D01*
X185314285Y-86750057D02*
X185266666Y-86702438D01*
X185266666Y-86702438D02*
X185171428Y-86654819D01*
X185171428Y-86654819D02*
X184933333Y-86654819D01*
X184933333Y-86654819D02*
X184838095Y-86702438D01*
X184838095Y-86702438D02*
X184790476Y-86750057D01*
X184790476Y-86750057D02*
X184742857Y-86845295D01*
X184742857Y-86845295D02*
X184742857Y-86940533D01*
X184742857Y-86940533D02*
X184790476Y-87083390D01*
X184790476Y-87083390D02*
X185361904Y-87654819D01*
X185361904Y-87654819D02*
X184742857Y-87654819D01*
X183885714Y-86988152D02*
X183885714Y-87654819D01*
X184123809Y-86607200D02*
X184361904Y-87321485D01*
X184361904Y-87321485D02*
X183742857Y-87321485D01*
X182599999Y-87654819D02*
X182599999Y-86654819D01*
X182599999Y-86654819D02*
X182266666Y-87369104D01*
X182266666Y-87369104D02*
X181933333Y-86654819D01*
X181933333Y-86654819D02*
X181933333Y-87654819D01*
X181457142Y-87654819D02*
X181457142Y-86654819D01*
X181457142Y-87131009D02*
X180885714Y-87131009D01*
X180885714Y-87654819D02*
X180885714Y-86654819D01*
X180504761Y-86654819D02*
X179838095Y-86654819D01*
X179838095Y-86654819D02*
X180504761Y-87654819D01*
X180504761Y-87654819D02*
X179838095Y-87654819D01*
D14*
X206580952Y-110524809D02*
X206580952Y-110929571D01*
X206580952Y-110929571D02*
X206557142Y-110977190D01*
X206557142Y-110977190D02*
X206533333Y-111001000D01*
X206533333Y-111001000D02*
X206485714Y-111024809D01*
X206485714Y-111024809D02*
X206390476Y-111024809D01*
X206390476Y-111024809D02*
X206342857Y-111001000D01*
X206342857Y-111001000D02*
X206319047Y-110977190D01*
X206319047Y-110977190D02*
X206295238Y-110929571D01*
X206295238Y-110929571D02*
X206295238Y-110524809D01*
X205842856Y-110691476D02*
X205842856Y-111024809D01*
X205961904Y-110501000D02*
X206080951Y-110858142D01*
X206080951Y-110858142D02*
X205771428Y-110858142D01*
X161983332Y-108691476D02*
X161983332Y-109191476D01*
X161983332Y-108715285D02*
X161935713Y-108691476D01*
X161935713Y-108691476D02*
X161840475Y-108691476D01*
X161840475Y-108691476D02*
X161792856Y-108715285D01*
X161792856Y-108715285D02*
X161769046Y-108739095D01*
X161769046Y-108739095D02*
X161745237Y-108786714D01*
X161745237Y-108786714D02*
X161745237Y-108929571D01*
X161745237Y-108929571D02*
X161769046Y-108977190D01*
X161769046Y-108977190D02*
X161792856Y-109001000D01*
X161792856Y-109001000D02*
X161840475Y-109024809D01*
X161840475Y-109024809D02*
X161935713Y-109024809D01*
X161935713Y-109024809D02*
X161983332Y-109001000D01*
X161269046Y-109024809D02*
X161554760Y-109024809D01*
X161411903Y-109024809D02*
X161411903Y-108524809D01*
X161411903Y-108524809D02*
X161459522Y-108596238D01*
X161459522Y-108596238D02*
X161507141Y-108643857D01*
X161507141Y-108643857D02*
X161554760Y-108667666D01*
X160959523Y-108524809D02*
X160911904Y-108524809D01*
X160911904Y-108524809D02*
X160864285Y-108548619D01*
X160864285Y-108548619D02*
X160840475Y-108572428D01*
X160840475Y-108572428D02*
X160816666Y-108620047D01*
X160816666Y-108620047D02*
X160792856Y-108715285D01*
X160792856Y-108715285D02*
X160792856Y-108834333D01*
X160792856Y-108834333D02*
X160816666Y-108929571D01*
X160816666Y-108929571D02*
X160840475Y-108977190D01*
X160840475Y-108977190D02*
X160864285Y-109001000D01*
X160864285Y-109001000D02*
X160911904Y-109024809D01*
X160911904Y-109024809D02*
X160959523Y-109024809D01*
X160959523Y-109024809D02*
X161007142Y-109001000D01*
X161007142Y-109001000D02*
X161030951Y-108977190D01*
X161030951Y-108977190D02*
X161054761Y-108929571D01*
X161054761Y-108929571D02*
X161078570Y-108834333D01*
X161078570Y-108834333D02*
X161078570Y-108715285D01*
X161078570Y-108715285D02*
X161054761Y-108620047D01*
X161054761Y-108620047D02*
X161030951Y-108572428D01*
X161030951Y-108572428D02*
X161007142Y-108548619D01*
X161007142Y-108548619D02*
X160959523Y-108524809D01*
X206580952Y-102924809D02*
X206580952Y-103329571D01*
X206580952Y-103329571D02*
X206557142Y-103377190D01*
X206557142Y-103377190D02*
X206533333Y-103401000D01*
X206533333Y-103401000D02*
X206485714Y-103424809D01*
X206485714Y-103424809D02*
X206390476Y-103424809D01*
X206390476Y-103424809D02*
X206342857Y-103401000D01*
X206342857Y-103401000D02*
X206319047Y-103377190D01*
X206319047Y-103377190D02*
X206295238Y-103329571D01*
X206295238Y-103329571D02*
X206295238Y-102924809D01*
X205795237Y-103424809D02*
X206080951Y-103424809D01*
X205938094Y-103424809D02*
X205938094Y-102924809D01*
X205938094Y-102924809D02*
X205985713Y-102996238D01*
X205985713Y-102996238D02*
X206033332Y-103043857D01*
X206033332Y-103043857D02*
X206080951Y-103067666D01*
X206307142Y-89948619D02*
X206354761Y-89924809D01*
X206354761Y-89924809D02*
X206426190Y-89924809D01*
X206426190Y-89924809D02*
X206497618Y-89948619D01*
X206497618Y-89948619D02*
X206545237Y-89996238D01*
X206545237Y-89996238D02*
X206569047Y-90043857D01*
X206569047Y-90043857D02*
X206592856Y-90139095D01*
X206592856Y-90139095D02*
X206592856Y-90210523D01*
X206592856Y-90210523D02*
X206569047Y-90305761D01*
X206569047Y-90305761D02*
X206545237Y-90353380D01*
X206545237Y-90353380D02*
X206497618Y-90401000D01*
X206497618Y-90401000D02*
X206426190Y-90424809D01*
X206426190Y-90424809D02*
X206378571Y-90424809D01*
X206378571Y-90424809D02*
X206307142Y-90401000D01*
X206307142Y-90401000D02*
X206283333Y-90377190D01*
X206283333Y-90377190D02*
X206283333Y-90210523D01*
X206283333Y-90210523D02*
X206378571Y-90210523D01*
X206092856Y-89972428D02*
X206069047Y-89948619D01*
X206069047Y-89948619D02*
X206021428Y-89924809D01*
X206021428Y-89924809D02*
X205902380Y-89924809D01*
X205902380Y-89924809D02*
X205854761Y-89948619D01*
X205854761Y-89948619D02*
X205830952Y-89972428D01*
X205830952Y-89972428D02*
X205807142Y-90020047D01*
X205807142Y-90020047D02*
X205807142Y-90067666D01*
X205807142Y-90067666D02*
X205830952Y-90139095D01*
X205830952Y-90139095D02*
X206116666Y-90424809D01*
X206116666Y-90424809D02*
X205807142Y-90424809D01*
X200307142Y-89948619D02*
X200354761Y-89924809D01*
X200354761Y-89924809D02*
X200426190Y-89924809D01*
X200426190Y-89924809D02*
X200497618Y-89948619D01*
X200497618Y-89948619D02*
X200545237Y-89996238D01*
X200545237Y-89996238D02*
X200569047Y-90043857D01*
X200569047Y-90043857D02*
X200592856Y-90139095D01*
X200592856Y-90139095D02*
X200592856Y-90210523D01*
X200592856Y-90210523D02*
X200569047Y-90305761D01*
X200569047Y-90305761D02*
X200545237Y-90353380D01*
X200545237Y-90353380D02*
X200497618Y-90401000D01*
X200497618Y-90401000D02*
X200426190Y-90424809D01*
X200426190Y-90424809D02*
X200378571Y-90424809D01*
X200378571Y-90424809D02*
X200307142Y-90401000D01*
X200307142Y-90401000D02*
X200283333Y-90377190D01*
X200283333Y-90377190D02*
X200283333Y-90210523D01*
X200283333Y-90210523D02*
X200378571Y-90210523D01*
X199807142Y-90424809D02*
X200092856Y-90424809D01*
X199949999Y-90424809D02*
X199949999Y-89924809D01*
X199949999Y-89924809D02*
X199997618Y-89996238D01*
X199997618Y-89996238D02*
X200045237Y-90043857D01*
X200045237Y-90043857D02*
X200092856Y-90067666D01*
X200045238Y-92374704D02*
X200069047Y-92398514D01*
X200069047Y-92398514D02*
X200140476Y-92422323D01*
X200140476Y-92422323D02*
X200188095Y-92422323D01*
X200188095Y-92422323D02*
X200259523Y-92398514D01*
X200259523Y-92398514D02*
X200307142Y-92350894D01*
X200307142Y-92350894D02*
X200330952Y-92303275D01*
X200330952Y-92303275D02*
X200354761Y-92208037D01*
X200354761Y-92208037D02*
X200354761Y-92136609D01*
X200354761Y-92136609D02*
X200330952Y-92041371D01*
X200330952Y-92041371D02*
X200307142Y-91993752D01*
X200307142Y-91993752D02*
X200259523Y-91946133D01*
X200259523Y-91946133D02*
X200188095Y-91922323D01*
X200188095Y-91922323D02*
X200140476Y-91922323D01*
X200140476Y-91922323D02*
X200069047Y-91946133D01*
X200069047Y-91946133D02*
X200045238Y-91969942D01*
X200283333Y-93227295D02*
X200449999Y-92989200D01*
X200569047Y-93227295D02*
X200569047Y-92727295D01*
X200569047Y-92727295D02*
X200378571Y-92727295D01*
X200378571Y-92727295D02*
X200330952Y-92751105D01*
X200330952Y-92751105D02*
X200307142Y-92774914D01*
X200307142Y-92774914D02*
X200283333Y-92822533D01*
X200283333Y-92822533D02*
X200283333Y-92893962D01*
X200283333Y-92893962D02*
X200307142Y-92941581D01*
X200307142Y-92941581D02*
X200330952Y-92965390D01*
X200330952Y-92965390D02*
X200378571Y-92989200D01*
X200378571Y-92989200D02*
X200569047Y-92989200D01*
X200116666Y-92727295D02*
X199783333Y-93227295D01*
X199783333Y-92727295D02*
X200116666Y-93227295D01*
X204980951Y-101124809D02*
X204695237Y-101124809D01*
X204838094Y-101624809D02*
X204838094Y-101124809D01*
X204576190Y-101124809D02*
X204242857Y-101624809D01*
X204242857Y-101124809D02*
X204576190Y-101624809D01*
X206069047Y-82348619D02*
X206116666Y-82324809D01*
X206116666Y-82324809D02*
X206188095Y-82324809D01*
X206188095Y-82324809D02*
X206259523Y-82348619D01*
X206259523Y-82348619D02*
X206307142Y-82396238D01*
X206307142Y-82396238D02*
X206330952Y-82443857D01*
X206330952Y-82443857D02*
X206354761Y-82539095D01*
X206354761Y-82539095D02*
X206354761Y-82610523D01*
X206354761Y-82610523D02*
X206330952Y-82705761D01*
X206330952Y-82705761D02*
X206307142Y-82753380D01*
X206307142Y-82753380D02*
X206259523Y-82801000D01*
X206259523Y-82801000D02*
X206188095Y-82824809D01*
X206188095Y-82824809D02*
X206140476Y-82824809D01*
X206140476Y-82824809D02*
X206069047Y-82801000D01*
X206069047Y-82801000D02*
X206045238Y-82777190D01*
X206045238Y-82777190D02*
X206045238Y-82610523D01*
X206045238Y-82610523D02*
X206140476Y-82610523D01*
X200652380Y-97598514D02*
X200604761Y-97622323D01*
X200604761Y-97622323D02*
X200509523Y-97622323D01*
X200509523Y-97622323D02*
X200461904Y-97598514D01*
X200461904Y-97598514D02*
X200438095Y-97550894D01*
X200438095Y-97550894D02*
X200438095Y-97527085D01*
X200438095Y-97527085D02*
X200461904Y-97479466D01*
X200461904Y-97479466D02*
X200509523Y-97455656D01*
X200509523Y-97455656D02*
X200580952Y-97455656D01*
X200580952Y-97455656D02*
X200628571Y-97431847D01*
X200628571Y-97431847D02*
X200652380Y-97384228D01*
X200652380Y-97384228D02*
X200652380Y-97360418D01*
X200652380Y-97360418D02*
X200628571Y-97312799D01*
X200628571Y-97312799D02*
X200580952Y-97288990D01*
X200580952Y-97288990D02*
X200509523Y-97288990D01*
X200509523Y-97288990D02*
X200461904Y-97312799D01*
X200009523Y-97598514D02*
X200057142Y-97622323D01*
X200057142Y-97622323D02*
X200152380Y-97622323D01*
X200152380Y-97622323D02*
X200199999Y-97598514D01*
X200199999Y-97598514D02*
X200223809Y-97574704D01*
X200223809Y-97574704D02*
X200247618Y-97527085D01*
X200247618Y-97527085D02*
X200247618Y-97384228D01*
X200247618Y-97384228D02*
X200223809Y-97336609D01*
X200223809Y-97336609D02*
X200199999Y-97312799D01*
X200199999Y-97312799D02*
X200152380Y-97288990D01*
X200152380Y-97288990D02*
X200057142Y-97288990D01*
X200057142Y-97288990D02*
X200009523Y-97312799D01*
X199723809Y-97622323D02*
X199771428Y-97598514D01*
X199771428Y-97598514D02*
X199795238Y-97550894D01*
X199795238Y-97550894D02*
X199795238Y-97122323D01*
X200342856Y-97974914D02*
X200319047Y-97951105D01*
X200319047Y-97951105D02*
X200271428Y-97927295D01*
X200271428Y-97927295D02*
X200152380Y-97927295D01*
X200152380Y-97927295D02*
X200104761Y-97951105D01*
X200104761Y-97951105D02*
X200080952Y-97974914D01*
X200080952Y-97974914D02*
X200057142Y-98022533D01*
X200057142Y-98022533D02*
X200057142Y-98070152D01*
X200057142Y-98070152D02*
X200080952Y-98141581D01*
X200080952Y-98141581D02*
X200366666Y-98427295D01*
X200366666Y-98427295D02*
X200057142Y-98427295D01*
X200404760Y-87324809D02*
X200238094Y-87824809D01*
X200238094Y-87824809D02*
X200071427Y-87324809D01*
X199928570Y-87372428D02*
X199904761Y-87348619D01*
X199904761Y-87348619D02*
X199857142Y-87324809D01*
X199857142Y-87324809D02*
X199738094Y-87324809D01*
X199738094Y-87324809D02*
X199690475Y-87348619D01*
X199690475Y-87348619D02*
X199666666Y-87372428D01*
X199666666Y-87372428D02*
X199642856Y-87420047D01*
X199642856Y-87420047D02*
X199642856Y-87467666D01*
X199642856Y-87467666D02*
X199666666Y-87539095D01*
X199666666Y-87539095D02*
X199952380Y-87824809D01*
X199952380Y-87824809D02*
X199642856Y-87824809D01*
X161269047Y-83148619D02*
X161316666Y-83124809D01*
X161316666Y-83124809D02*
X161388095Y-83124809D01*
X161388095Y-83124809D02*
X161459523Y-83148619D01*
X161459523Y-83148619D02*
X161507142Y-83196238D01*
X161507142Y-83196238D02*
X161530952Y-83243857D01*
X161530952Y-83243857D02*
X161554761Y-83339095D01*
X161554761Y-83339095D02*
X161554761Y-83410523D01*
X161554761Y-83410523D02*
X161530952Y-83505761D01*
X161530952Y-83505761D02*
X161507142Y-83553380D01*
X161507142Y-83553380D02*
X161459523Y-83601000D01*
X161459523Y-83601000D02*
X161388095Y-83624809D01*
X161388095Y-83624809D02*
X161340476Y-83624809D01*
X161340476Y-83624809D02*
X161269047Y-83601000D01*
X161269047Y-83601000D02*
X161245238Y-83577190D01*
X161245238Y-83577190D02*
X161245238Y-83410523D01*
X161245238Y-83410523D02*
X161340476Y-83410523D01*
X161745237Y-98491476D02*
X161745237Y-98991476D01*
X161745237Y-98515285D02*
X161697618Y-98491476D01*
X161697618Y-98491476D02*
X161602380Y-98491476D01*
X161602380Y-98491476D02*
X161554761Y-98515285D01*
X161554761Y-98515285D02*
X161530951Y-98539095D01*
X161530951Y-98539095D02*
X161507142Y-98586714D01*
X161507142Y-98586714D02*
X161507142Y-98729571D01*
X161507142Y-98729571D02*
X161530951Y-98777190D01*
X161530951Y-98777190D02*
X161554761Y-98801000D01*
X161554761Y-98801000D02*
X161602380Y-98824809D01*
X161602380Y-98824809D02*
X161697618Y-98824809D01*
X161697618Y-98824809D02*
X161745237Y-98801000D01*
X161054761Y-98324809D02*
X161292856Y-98324809D01*
X161292856Y-98324809D02*
X161316665Y-98562904D01*
X161316665Y-98562904D02*
X161292856Y-98539095D01*
X161292856Y-98539095D02*
X161245237Y-98515285D01*
X161245237Y-98515285D02*
X161126189Y-98515285D01*
X161126189Y-98515285D02*
X161078570Y-98539095D01*
X161078570Y-98539095D02*
X161054761Y-98562904D01*
X161054761Y-98562904D02*
X161030951Y-98610523D01*
X161030951Y-98610523D02*
X161030951Y-98729571D01*
X161030951Y-98729571D02*
X161054761Y-98777190D01*
X161054761Y-98777190D02*
X161078570Y-98801000D01*
X161078570Y-98801000D02*
X161126189Y-98824809D01*
X161126189Y-98824809D02*
X161245237Y-98824809D01*
X161245237Y-98824809D02*
X161292856Y-98801000D01*
X161292856Y-98801000D02*
X161316665Y-98777190D01*
X200404760Y-84724809D02*
X200238094Y-85224809D01*
X200238094Y-85224809D02*
X200071427Y-84724809D01*
X199642856Y-85224809D02*
X199928570Y-85224809D01*
X199785713Y-85224809D02*
X199785713Y-84724809D01*
X199785713Y-84724809D02*
X199833332Y-84796238D01*
X199833332Y-84796238D02*
X199880951Y-84843857D01*
X199880951Y-84843857D02*
X199928570Y-84867666D01*
D11*
X173561904Y-75654819D02*
X172895238Y-75654819D01*
X172895238Y-75654819D02*
X173323809Y-76654819D01*
X172371428Y-76083390D02*
X172466666Y-76035771D01*
X172466666Y-76035771D02*
X172514285Y-75988152D01*
X172514285Y-75988152D02*
X172561904Y-75892914D01*
X172561904Y-75892914D02*
X172561904Y-75845295D01*
X172561904Y-75845295D02*
X172514285Y-75750057D01*
X172514285Y-75750057D02*
X172466666Y-75702438D01*
X172466666Y-75702438D02*
X172371428Y-75654819D01*
X172371428Y-75654819D02*
X172180952Y-75654819D01*
X172180952Y-75654819D02*
X172085714Y-75702438D01*
X172085714Y-75702438D02*
X172038095Y-75750057D01*
X172038095Y-75750057D02*
X171990476Y-75845295D01*
X171990476Y-75845295D02*
X171990476Y-75892914D01*
X171990476Y-75892914D02*
X172038095Y-75988152D01*
X172038095Y-75988152D02*
X172085714Y-76035771D01*
X172085714Y-76035771D02*
X172180952Y-76083390D01*
X172180952Y-76083390D02*
X172371428Y-76083390D01*
X172371428Y-76083390D02*
X172466666Y-76131009D01*
X172466666Y-76131009D02*
X172514285Y-76178628D01*
X172514285Y-76178628D02*
X172561904Y-76273866D01*
X172561904Y-76273866D02*
X172561904Y-76464342D01*
X172561904Y-76464342D02*
X172514285Y-76559580D01*
X172514285Y-76559580D02*
X172466666Y-76607200D01*
X172466666Y-76607200D02*
X172371428Y-76654819D01*
X172371428Y-76654819D02*
X172180952Y-76654819D01*
X172180952Y-76654819D02*
X172085714Y-76607200D01*
X172085714Y-76607200D02*
X172038095Y-76559580D01*
X172038095Y-76559580D02*
X171990476Y-76464342D01*
X171990476Y-76464342D02*
X171990476Y-76273866D01*
X171990476Y-76273866D02*
X172038095Y-76178628D01*
X172038095Y-76178628D02*
X172085714Y-76131009D01*
X172085714Y-76131009D02*
X172180952Y-76083390D01*
X171371428Y-75654819D02*
X171276190Y-75654819D01*
X171276190Y-75654819D02*
X171180952Y-75702438D01*
X171180952Y-75702438D02*
X171133333Y-75750057D01*
X171133333Y-75750057D02*
X171085714Y-75845295D01*
X171085714Y-75845295D02*
X171038095Y-76035771D01*
X171038095Y-76035771D02*
X171038095Y-76273866D01*
X171038095Y-76273866D02*
X171085714Y-76464342D01*
X171085714Y-76464342D02*
X171133333Y-76559580D01*
X171133333Y-76559580D02*
X171180952Y-76607200D01*
X171180952Y-76607200D02*
X171276190Y-76654819D01*
X171276190Y-76654819D02*
X171371428Y-76654819D01*
X171371428Y-76654819D02*
X171466666Y-76607200D01*
X171466666Y-76607200D02*
X171514285Y-76559580D01*
X171514285Y-76559580D02*
X171561904Y-76464342D01*
X171561904Y-76464342D02*
X171609523Y-76273866D01*
X171609523Y-76273866D02*
X171609523Y-76035771D01*
X171609523Y-76035771D02*
X171561904Y-75845295D01*
X171561904Y-75845295D02*
X171514285Y-75750057D01*
X171514285Y-75750057D02*
X171466666Y-75702438D01*
X171466666Y-75702438D02*
X171371428Y-75654819D01*
X170133333Y-75654819D02*
X170609523Y-75654819D01*
X170609523Y-75654819D02*
X170657142Y-76131009D01*
X170657142Y-76131009D02*
X170609523Y-76083390D01*
X170609523Y-76083390D02*
X170514285Y-76035771D01*
X170514285Y-76035771D02*
X170276190Y-76035771D01*
X170276190Y-76035771D02*
X170180952Y-76083390D01*
X170180952Y-76083390D02*
X170133333Y-76131009D01*
X170133333Y-76131009D02*
X170085714Y-76226247D01*
X170085714Y-76226247D02*
X170085714Y-76464342D01*
X170085714Y-76464342D02*
X170133333Y-76559580D01*
X170133333Y-76559580D02*
X170180952Y-76607200D01*
X170180952Y-76607200D02*
X170276190Y-76654819D01*
X170276190Y-76654819D02*
X170514285Y-76654819D01*
X170514285Y-76654819D02*
X170609523Y-76607200D01*
X170609523Y-76607200D02*
X170657142Y-76559580D01*
D14*
X202083333Y-101624809D02*
X202249999Y-101386714D01*
X202369047Y-101624809D02*
X202369047Y-101124809D01*
X202369047Y-101124809D02*
X202178571Y-101124809D01*
X202178571Y-101124809D02*
X202130952Y-101148619D01*
X202130952Y-101148619D02*
X202107142Y-101172428D01*
X202107142Y-101172428D02*
X202083333Y-101220047D01*
X202083333Y-101220047D02*
X202083333Y-101291476D01*
X202083333Y-101291476D02*
X202107142Y-101339095D01*
X202107142Y-101339095D02*
X202130952Y-101362904D01*
X202130952Y-101362904D02*
X202178571Y-101386714D01*
X202178571Y-101386714D02*
X202369047Y-101386714D01*
X201916666Y-101124809D02*
X201583333Y-101624809D01*
X201583333Y-101124809D02*
X201916666Y-101624809D01*
X161745237Y-111291476D02*
X161745237Y-111791476D01*
X161745237Y-111315285D02*
X161697618Y-111291476D01*
X161697618Y-111291476D02*
X161602380Y-111291476D01*
X161602380Y-111291476D02*
X161554761Y-111315285D01*
X161554761Y-111315285D02*
X161530951Y-111339095D01*
X161530951Y-111339095D02*
X161507142Y-111386714D01*
X161507142Y-111386714D02*
X161507142Y-111529571D01*
X161507142Y-111529571D02*
X161530951Y-111577190D01*
X161530951Y-111577190D02*
X161554761Y-111601000D01*
X161554761Y-111601000D02*
X161602380Y-111624809D01*
X161602380Y-111624809D02*
X161697618Y-111624809D01*
X161697618Y-111624809D02*
X161745237Y-111601000D01*
X161269046Y-111624809D02*
X161173808Y-111624809D01*
X161173808Y-111624809D02*
X161126189Y-111601000D01*
X161126189Y-111601000D02*
X161102380Y-111577190D01*
X161102380Y-111577190D02*
X161054761Y-111505761D01*
X161054761Y-111505761D02*
X161030951Y-111410523D01*
X161030951Y-111410523D02*
X161030951Y-111220047D01*
X161030951Y-111220047D02*
X161054761Y-111172428D01*
X161054761Y-111172428D02*
X161078570Y-111148619D01*
X161078570Y-111148619D02*
X161126189Y-111124809D01*
X161126189Y-111124809D02*
X161221427Y-111124809D01*
X161221427Y-111124809D02*
X161269046Y-111148619D01*
X161269046Y-111148619D02*
X161292856Y-111172428D01*
X161292856Y-111172428D02*
X161316665Y-111220047D01*
X161316665Y-111220047D02*
X161316665Y-111339095D01*
X161316665Y-111339095D02*
X161292856Y-111386714D01*
X161292856Y-111386714D02*
X161269046Y-111410523D01*
X161269046Y-111410523D02*
X161221427Y-111434333D01*
X161221427Y-111434333D02*
X161126189Y-111434333D01*
X161126189Y-111434333D02*
X161078570Y-111410523D01*
X161078570Y-111410523D02*
X161054761Y-111386714D01*
X161054761Y-111386714D02*
X161030951Y-111339095D01*
X206580952Y-105324809D02*
X206580952Y-105729571D01*
X206580952Y-105729571D02*
X206557142Y-105777190D01*
X206557142Y-105777190D02*
X206533333Y-105801000D01*
X206533333Y-105801000D02*
X206485714Y-105824809D01*
X206485714Y-105824809D02*
X206390476Y-105824809D01*
X206390476Y-105824809D02*
X206342857Y-105801000D01*
X206342857Y-105801000D02*
X206319047Y-105777190D01*
X206319047Y-105777190D02*
X206295238Y-105729571D01*
X206295238Y-105729571D02*
X206295238Y-105324809D01*
X206080951Y-105372428D02*
X206057142Y-105348619D01*
X206057142Y-105348619D02*
X206009523Y-105324809D01*
X206009523Y-105324809D02*
X205890475Y-105324809D01*
X205890475Y-105324809D02*
X205842856Y-105348619D01*
X205842856Y-105348619D02*
X205819047Y-105372428D01*
X205819047Y-105372428D02*
X205795237Y-105420047D01*
X205795237Y-105420047D02*
X205795237Y-105467666D01*
X205795237Y-105467666D02*
X205819047Y-105539095D01*
X205819047Y-105539095D02*
X206104761Y-105824809D01*
X206104761Y-105824809D02*
X205795237Y-105824809D01*
X161983332Y-106291476D02*
X161983332Y-106791476D01*
X161983332Y-106315285D02*
X161935713Y-106291476D01*
X161935713Y-106291476D02*
X161840475Y-106291476D01*
X161840475Y-106291476D02*
X161792856Y-106315285D01*
X161792856Y-106315285D02*
X161769046Y-106339095D01*
X161769046Y-106339095D02*
X161745237Y-106386714D01*
X161745237Y-106386714D02*
X161745237Y-106529571D01*
X161745237Y-106529571D02*
X161769046Y-106577190D01*
X161769046Y-106577190D02*
X161792856Y-106601000D01*
X161792856Y-106601000D02*
X161840475Y-106624809D01*
X161840475Y-106624809D02*
X161935713Y-106624809D01*
X161935713Y-106624809D02*
X161983332Y-106601000D01*
X161269046Y-106624809D02*
X161554760Y-106624809D01*
X161411903Y-106624809D02*
X161411903Y-106124809D01*
X161411903Y-106124809D02*
X161459522Y-106196238D01*
X161459522Y-106196238D02*
X161507141Y-106243857D01*
X161507141Y-106243857D02*
X161554760Y-106267666D01*
X161078570Y-106172428D02*
X161054761Y-106148619D01*
X161054761Y-106148619D02*
X161007142Y-106124809D01*
X161007142Y-106124809D02*
X160888094Y-106124809D01*
X160888094Y-106124809D02*
X160840475Y-106148619D01*
X160840475Y-106148619D02*
X160816666Y-106172428D01*
X160816666Y-106172428D02*
X160792856Y-106220047D01*
X160792856Y-106220047D02*
X160792856Y-106267666D01*
X160792856Y-106267666D02*
X160816666Y-106339095D01*
X160816666Y-106339095D02*
X161102380Y-106624809D01*
X161102380Y-106624809D02*
X160792856Y-106624809D01*
D11*
X201280952Y-70954819D02*
X201280952Y-69954819D01*
X201280952Y-70335771D02*
X201185714Y-70288152D01*
X201185714Y-70288152D02*
X200995238Y-70288152D01*
X200995238Y-70288152D02*
X200900000Y-70335771D01*
X200900000Y-70335771D02*
X200852381Y-70383390D01*
X200852381Y-70383390D02*
X200804762Y-70478628D01*
X200804762Y-70478628D02*
X200804762Y-70764342D01*
X200804762Y-70764342D02*
X200852381Y-70859580D01*
X200852381Y-70859580D02*
X200900000Y-70907200D01*
X200900000Y-70907200D02*
X200995238Y-70954819D01*
X200995238Y-70954819D02*
X201185714Y-70954819D01*
X201185714Y-70954819D02*
X201280952Y-70907200D01*
X200233333Y-70954819D02*
X200328571Y-70907200D01*
X200328571Y-70907200D02*
X200376190Y-70859580D01*
X200376190Y-70859580D02*
X200423809Y-70764342D01*
X200423809Y-70764342D02*
X200423809Y-70478628D01*
X200423809Y-70478628D02*
X200376190Y-70383390D01*
X200376190Y-70383390D02*
X200328571Y-70335771D01*
X200328571Y-70335771D02*
X200233333Y-70288152D01*
X200233333Y-70288152D02*
X200090476Y-70288152D01*
X200090476Y-70288152D02*
X199995238Y-70335771D01*
X199995238Y-70335771D02*
X199947619Y-70383390D01*
X199947619Y-70383390D02*
X199900000Y-70478628D01*
X199900000Y-70478628D02*
X199900000Y-70764342D01*
X199900000Y-70764342D02*
X199947619Y-70859580D01*
X199947619Y-70859580D02*
X199995238Y-70907200D01*
X199995238Y-70907200D02*
X200090476Y-70954819D01*
X200090476Y-70954819D02*
X200233333Y-70954819D01*
X199328571Y-70954819D02*
X199423809Y-70907200D01*
X199423809Y-70907200D02*
X199471428Y-70859580D01*
X199471428Y-70859580D02*
X199519047Y-70764342D01*
X199519047Y-70764342D02*
X199519047Y-70478628D01*
X199519047Y-70478628D02*
X199471428Y-70383390D01*
X199471428Y-70383390D02*
X199423809Y-70335771D01*
X199423809Y-70335771D02*
X199328571Y-70288152D01*
X199328571Y-70288152D02*
X199185714Y-70288152D01*
X199185714Y-70288152D02*
X199090476Y-70335771D01*
X199090476Y-70335771D02*
X199042857Y-70383390D01*
X199042857Y-70383390D02*
X198995238Y-70478628D01*
X198995238Y-70478628D02*
X198995238Y-70764342D01*
X198995238Y-70764342D02*
X199042857Y-70859580D01*
X199042857Y-70859580D02*
X199090476Y-70907200D01*
X199090476Y-70907200D02*
X199185714Y-70954819D01*
X199185714Y-70954819D02*
X199328571Y-70954819D01*
X198709523Y-70288152D02*
X198328571Y-70288152D01*
X198566666Y-69954819D02*
X198566666Y-70811961D01*
X198566666Y-70811961D02*
X198519047Y-70907200D01*
X198519047Y-70907200D02*
X198423809Y-70954819D01*
X198423809Y-70954819D02*
X198328571Y-70954819D01*
X197804761Y-69954819D02*
X197709523Y-69954819D01*
X197709523Y-69954819D02*
X197614285Y-70002438D01*
X197614285Y-70002438D02*
X197566666Y-70050057D01*
X197566666Y-70050057D02*
X197519047Y-70145295D01*
X197519047Y-70145295D02*
X197471428Y-70335771D01*
X197471428Y-70335771D02*
X197471428Y-70573866D01*
X197471428Y-70573866D02*
X197519047Y-70764342D01*
X197519047Y-70764342D02*
X197566666Y-70859580D01*
X197566666Y-70859580D02*
X197614285Y-70907200D01*
X197614285Y-70907200D02*
X197709523Y-70954819D01*
X197709523Y-70954819D02*
X197804761Y-70954819D01*
X197804761Y-70954819D02*
X197899999Y-70907200D01*
X197899999Y-70907200D02*
X197947618Y-70859580D01*
X197947618Y-70859580D02*
X197995237Y-70764342D01*
X197995237Y-70764342D02*
X198042856Y-70573866D01*
X198042856Y-70573866D02*
X198042856Y-70335771D01*
X198042856Y-70335771D02*
X197995237Y-70145295D01*
X197995237Y-70145295D02*
X197947618Y-70050057D01*
X197947618Y-70050057D02*
X197899999Y-70002438D01*
X197899999Y-70002438D02*
X197804761Y-69954819D01*
X172561904Y-77454819D02*
X172561904Y-78264342D01*
X172561904Y-78264342D02*
X172514285Y-78359580D01*
X172514285Y-78359580D02*
X172466666Y-78407200D01*
X172466666Y-78407200D02*
X172371428Y-78454819D01*
X172371428Y-78454819D02*
X172180952Y-78454819D01*
X172180952Y-78454819D02*
X172085714Y-78407200D01*
X172085714Y-78407200D02*
X172038095Y-78359580D01*
X172038095Y-78359580D02*
X171990476Y-78264342D01*
X171990476Y-78264342D02*
X171990476Y-77454819D01*
X171561904Y-77550057D02*
X171514285Y-77502438D01*
X171514285Y-77502438D02*
X171419047Y-77454819D01*
X171419047Y-77454819D02*
X171180952Y-77454819D01*
X171180952Y-77454819D02*
X171085714Y-77502438D01*
X171085714Y-77502438D02*
X171038095Y-77550057D01*
X171038095Y-77550057D02*
X170990476Y-77645295D01*
X170990476Y-77645295D02*
X170990476Y-77740533D01*
X170990476Y-77740533D02*
X171038095Y-77883390D01*
X171038095Y-77883390D02*
X171609523Y-78454819D01*
X171609523Y-78454819D02*
X170990476Y-78454819D01*
D15*
%TO.C,D4*%
X176692164Y-71840000D02*
X176907836Y-71840000D01*
X176692164Y-72560000D02*
X176907836Y-72560000D01*
%TO.C,R9*%
X182153641Y-118420000D02*
X181846359Y-118420000D01*
X182153641Y-119180000D02*
X181846359Y-119180000D01*
%TO.C,D3*%
X178692164Y-71840000D02*
X178907836Y-71840000D01*
X178692164Y-72560000D02*
X178907836Y-72560000D01*
%TO.C,R10*%
X184953641Y-119420000D02*
X184646359Y-119420000D01*
X184953641Y-120180000D02*
X184646359Y-120180000D01*
%TO.C,R8*%
X194945000Y-72913641D02*
X194945000Y-72606359D01*
X195705000Y-72913641D02*
X195705000Y-72606359D01*
%TO.C,boot0*%
X197190000Y-73060000D02*
X197190000Y-73140000D01*
X198290000Y-71540000D02*
X197190000Y-71540000D01*
X201610000Y-71540000D02*
X200510000Y-71540000D01*
X201610000Y-73060000D02*
X201610000Y-73140000D01*
%TO.C,U3*%
X165430000Y-68940000D02*
X165430000Y-73560000D01*
X165430000Y-73560000D02*
X175650000Y-73560000D01*
X168690000Y-68940000D02*
X168690000Y-70320000D01*
X172390000Y-68940000D02*
X172390000Y-70320000D01*
X175650000Y-68940000D02*
X165430000Y-68940000D01*
X175650000Y-70320000D02*
X165430000Y-70320000D01*
X175650000Y-73560000D02*
X175650000Y-68940000D01*
%TO.C,R7*%
X193681359Y-71970000D02*
X193988641Y-71970000D01*
X193681359Y-72730000D02*
X193988641Y-72730000D01*
%TO.C,U2*%
X163137500Y-74440000D02*
X162337500Y-74440000D01*
X163137500Y-74440000D02*
X163937500Y-74440000D01*
X163137500Y-77560000D02*
X162337500Y-77560000D01*
X163137500Y-77560000D02*
X163937500Y-77560000D01*
X162077500Y-77840000D02*
X161597500Y-77840000D01*
X161837500Y-77510000D01*
X162077500Y-77840000D01*
G36*
X162077500Y-77840000D02*
G01*
X161597500Y-77840000D01*
X161837500Y-77510000D01*
X162077500Y-77840000D01*
G37*
%TD*%
M02*
