%TF.GenerationSoftware,KiCad,Pcbnew,9.0.3*%
%TF.CreationDate,2025-08-31T17:25:54+05:30*%
%TF.ProjectId,fc_nickel_v1.0,66635f6e-6963-46b6-956c-5f76312e302e,rev?*%
%TF.SameCoordinates,Original*%
%TF.FileFunction,Legend,Top*%
%TF.FilePolarity,Positive*%
%FSLAX46Y46*%
G04 Gerber Fmt 4.6, Leading zero omitted, Abs format (unit mm)*
G04 Created by KiCad (PCBNEW 9.0.3) date 2025-08-31 17:25:54*
%MOMM*%
%LPD*%
G01*
G04 APERTURE LIST*
%ADD10C,0.100000*%
%ADD11C,0.150000*%
%ADD12C,0.300000*%
%ADD13C,0.400000*%
%ADD14C,0.152400*%
%ADD15C,0.200000*%
%ADD16C,0.120000*%
%ADD17C,0.127000*%
%ADD18C,0.020000*%
G04 APERTURE END LIST*
D10*
D11*
X177002200Y-166007200D02*
X285002200Y-166007200D01*
X285002200Y-198007200D01*
X177002200Y-198007200D01*
X177002200Y-166007200D01*
D10*
D11*
X10000000Y-10000000D02*
X287002200Y-10000000D01*
X287002200Y-200007200D01*
X10000000Y-200007200D01*
X10000000Y-10000000D01*
D10*
D11*
X12000000Y-12000000D02*
X285002200Y-12000000D01*
X285002200Y-198007200D01*
X12000000Y-198007200D01*
X12000000Y-12000000D01*
D10*
D11*
X60000000Y-12000000D02*
X60000000Y-10000000D01*
D10*
D11*
X110000000Y-12000000D02*
X110000000Y-10000000D01*
D10*
D11*
X160000000Y-12000000D02*
X160000000Y-10000000D01*
D10*
D11*
X210000000Y-12000000D02*
X210000000Y-10000000D01*
D10*
D11*
X260000000Y-12000000D02*
X260000000Y-10000000D01*
D10*
D11*
X36089160Y-11593604D02*
X35346303Y-11593604D01*
X35717731Y-11593604D02*
X35717731Y-10293604D01*
X35717731Y-10293604D02*
X35593922Y-10479319D01*
X35593922Y-10479319D02*
X35470112Y-10603128D01*
X35470112Y-10603128D02*
X35346303Y-10665033D01*
D10*
D11*
X85346303Y-10417414D02*
X85408207Y-10355509D01*
X85408207Y-10355509D02*
X85532017Y-10293604D01*
X85532017Y-10293604D02*
X85841541Y-10293604D01*
X85841541Y-10293604D02*
X85965350Y-10355509D01*
X85965350Y-10355509D02*
X86027255Y-10417414D01*
X86027255Y-10417414D02*
X86089160Y-10541223D01*
X86089160Y-10541223D02*
X86089160Y-10665033D01*
X86089160Y-10665033D02*
X86027255Y-10850747D01*
X86027255Y-10850747D02*
X85284398Y-11593604D01*
X85284398Y-11593604D02*
X86089160Y-11593604D01*
D10*
D11*
X135284398Y-10293604D02*
X136089160Y-10293604D01*
X136089160Y-10293604D02*
X135655826Y-10788842D01*
X135655826Y-10788842D02*
X135841541Y-10788842D01*
X135841541Y-10788842D02*
X135965350Y-10850747D01*
X135965350Y-10850747D02*
X136027255Y-10912652D01*
X136027255Y-10912652D02*
X136089160Y-11036461D01*
X136089160Y-11036461D02*
X136089160Y-11345985D01*
X136089160Y-11345985D02*
X136027255Y-11469795D01*
X136027255Y-11469795D02*
X135965350Y-11531700D01*
X135965350Y-11531700D02*
X135841541Y-11593604D01*
X135841541Y-11593604D02*
X135470112Y-11593604D01*
X135470112Y-11593604D02*
X135346303Y-11531700D01*
X135346303Y-11531700D02*
X135284398Y-11469795D01*
D10*
D11*
X185965350Y-10726938D02*
X185965350Y-11593604D01*
X185655826Y-10231700D02*
X185346303Y-11160271D01*
X185346303Y-11160271D02*
X186151064Y-11160271D01*
D10*
D11*
X236027255Y-10293604D02*
X235408207Y-10293604D01*
X235408207Y-10293604D02*
X235346303Y-10912652D01*
X235346303Y-10912652D02*
X235408207Y-10850747D01*
X235408207Y-10850747D02*
X235532017Y-10788842D01*
X235532017Y-10788842D02*
X235841541Y-10788842D01*
X235841541Y-10788842D02*
X235965350Y-10850747D01*
X235965350Y-10850747D02*
X236027255Y-10912652D01*
X236027255Y-10912652D02*
X236089160Y-11036461D01*
X236089160Y-11036461D02*
X236089160Y-11345985D01*
X236089160Y-11345985D02*
X236027255Y-11469795D01*
X236027255Y-11469795D02*
X235965350Y-11531700D01*
X235965350Y-11531700D02*
X235841541Y-11593604D01*
X235841541Y-11593604D02*
X235532017Y-11593604D01*
X235532017Y-11593604D02*
X235408207Y-11531700D01*
X235408207Y-11531700D02*
X235346303Y-11469795D01*
D10*
D11*
X285965350Y-10293604D02*
X285717731Y-10293604D01*
X285717731Y-10293604D02*
X285593922Y-10355509D01*
X285593922Y-10355509D02*
X285532017Y-10417414D01*
X285532017Y-10417414D02*
X285408207Y-10603128D01*
X285408207Y-10603128D02*
X285346303Y-10850747D01*
X285346303Y-10850747D02*
X285346303Y-11345985D01*
X285346303Y-11345985D02*
X285408207Y-11469795D01*
X285408207Y-11469795D02*
X285470112Y-11531700D01*
X285470112Y-11531700D02*
X285593922Y-11593604D01*
X285593922Y-11593604D02*
X285841541Y-11593604D01*
X285841541Y-11593604D02*
X285965350Y-11531700D01*
X285965350Y-11531700D02*
X286027255Y-11469795D01*
X286027255Y-11469795D02*
X286089160Y-11345985D01*
X286089160Y-11345985D02*
X286089160Y-11036461D01*
X286089160Y-11036461D02*
X286027255Y-10912652D01*
X286027255Y-10912652D02*
X285965350Y-10850747D01*
X285965350Y-10850747D02*
X285841541Y-10788842D01*
X285841541Y-10788842D02*
X285593922Y-10788842D01*
X285593922Y-10788842D02*
X285470112Y-10850747D01*
X285470112Y-10850747D02*
X285408207Y-10912652D01*
X285408207Y-10912652D02*
X285346303Y-11036461D01*
D10*
D11*
X60000000Y-198007200D02*
X60000000Y-200007200D01*
D10*
D11*
X110000000Y-198007200D02*
X110000000Y-200007200D01*
D10*
D11*
X160000000Y-198007200D02*
X160000000Y-200007200D01*
D10*
D11*
X210000000Y-198007200D02*
X210000000Y-200007200D01*
D10*
D11*
X260000000Y-198007200D02*
X260000000Y-200007200D01*
D10*
D11*
X36089160Y-199600804D02*
X35346303Y-199600804D01*
X35717731Y-199600804D02*
X35717731Y-198300804D01*
X35717731Y-198300804D02*
X35593922Y-198486519D01*
X35593922Y-198486519D02*
X35470112Y-198610328D01*
X35470112Y-198610328D02*
X35346303Y-198672233D01*
D10*
D11*
X85346303Y-198424614D02*
X85408207Y-198362709D01*
X85408207Y-198362709D02*
X85532017Y-198300804D01*
X85532017Y-198300804D02*
X85841541Y-198300804D01*
X85841541Y-198300804D02*
X85965350Y-198362709D01*
X85965350Y-198362709D02*
X86027255Y-198424614D01*
X86027255Y-198424614D02*
X86089160Y-198548423D01*
X86089160Y-198548423D02*
X86089160Y-198672233D01*
X86089160Y-198672233D02*
X86027255Y-198857947D01*
X86027255Y-198857947D02*
X85284398Y-199600804D01*
X85284398Y-199600804D02*
X86089160Y-199600804D01*
D10*
D11*
X135284398Y-198300804D02*
X136089160Y-198300804D01*
X136089160Y-198300804D02*
X135655826Y-198796042D01*
X135655826Y-198796042D02*
X135841541Y-198796042D01*
X135841541Y-198796042D02*
X135965350Y-198857947D01*
X135965350Y-198857947D02*
X136027255Y-198919852D01*
X136027255Y-198919852D02*
X136089160Y-199043661D01*
X136089160Y-199043661D02*
X136089160Y-199353185D01*
X136089160Y-199353185D02*
X136027255Y-199476995D01*
X136027255Y-199476995D02*
X135965350Y-199538900D01*
X135965350Y-199538900D02*
X135841541Y-199600804D01*
X135841541Y-199600804D02*
X135470112Y-199600804D01*
X135470112Y-199600804D02*
X135346303Y-199538900D01*
X135346303Y-199538900D02*
X135284398Y-199476995D01*
D10*
D11*
X185965350Y-198734138D02*
X185965350Y-199600804D01*
X185655826Y-198238900D02*
X185346303Y-199167471D01*
X185346303Y-199167471D02*
X186151064Y-199167471D01*
D10*
D11*
X236027255Y-198300804D02*
X235408207Y-198300804D01*
X235408207Y-198300804D02*
X235346303Y-198919852D01*
X235346303Y-198919852D02*
X235408207Y-198857947D01*
X235408207Y-198857947D02*
X235532017Y-198796042D01*
X235532017Y-198796042D02*
X235841541Y-198796042D01*
X235841541Y-198796042D02*
X235965350Y-198857947D01*
X235965350Y-198857947D02*
X236027255Y-198919852D01*
X236027255Y-198919852D02*
X236089160Y-199043661D01*
X236089160Y-199043661D02*
X236089160Y-199353185D01*
X236089160Y-199353185D02*
X236027255Y-199476995D01*
X236027255Y-199476995D02*
X235965350Y-199538900D01*
X235965350Y-199538900D02*
X235841541Y-199600804D01*
X235841541Y-199600804D02*
X235532017Y-199600804D01*
X235532017Y-199600804D02*
X235408207Y-199538900D01*
X235408207Y-199538900D02*
X235346303Y-199476995D01*
D10*
D11*
X285965350Y-198300804D02*
X285717731Y-198300804D01*
X285717731Y-198300804D02*
X285593922Y-198362709D01*
X285593922Y-198362709D02*
X285532017Y-198424614D01*
X285532017Y-198424614D02*
X285408207Y-198610328D01*
X285408207Y-198610328D02*
X285346303Y-198857947D01*
X285346303Y-198857947D02*
X285346303Y-199353185D01*
X285346303Y-199353185D02*
X285408207Y-199476995D01*
X285408207Y-199476995D02*
X285470112Y-199538900D01*
X285470112Y-199538900D02*
X285593922Y-199600804D01*
X285593922Y-199600804D02*
X285841541Y-199600804D01*
X285841541Y-199600804D02*
X285965350Y-199538900D01*
X285965350Y-199538900D02*
X286027255Y-199476995D01*
X286027255Y-199476995D02*
X286089160Y-199353185D01*
X286089160Y-199353185D02*
X286089160Y-199043661D01*
X286089160Y-199043661D02*
X286027255Y-198919852D01*
X286027255Y-198919852D02*
X285965350Y-198857947D01*
X285965350Y-198857947D02*
X285841541Y-198796042D01*
X285841541Y-198796042D02*
X285593922Y-198796042D01*
X285593922Y-198796042D02*
X285470112Y-198857947D01*
X285470112Y-198857947D02*
X285408207Y-198919852D01*
X285408207Y-198919852D02*
X285346303Y-199043661D01*
D10*
D11*
X10000000Y-60000000D02*
X12000000Y-60000000D01*
D10*
D11*
X10000000Y-110000000D02*
X12000000Y-110000000D01*
D10*
D11*
X10000000Y-160000000D02*
X12000000Y-160000000D01*
D10*
D11*
X10690476Y-35222176D02*
X11309523Y-35222176D01*
X10566666Y-35593604D02*
X10999999Y-34293604D01*
X10999999Y-34293604D02*
X11433333Y-35593604D01*
D10*
D11*
X11092857Y-84912652D02*
X11278571Y-84974557D01*
X11278571Y-84974557D02*
X11340476Y-85036461D01*
X11340476Y-85036461D02*
X11402380Y-85160271D01*
X11402380Y-85160271D02*
X11402380Y-85345985D01*
X11402380Y-85345985D02*
X11340476Y-85469795D01*
X11340476Y-85469795D02*
X11278571Y-85531700D01*
X11278571Y-85531700D02*
X11154761Y-85593604D01*
X11154761Y-85593604D02*
X10659523Y-85593604D01*
X10659523Y-85593604D02*
X10659523Y-84293604D01*
X10659523Y-84293604D02*
X11092857Y-84293604D01*
X11092857Y-84293604D02*
X11216666Y-84355509D01*
X11216666Y-84355509D02*
X11278571Y-84417414D01*
X11278571Y-84417414D02*
X11340476Y-84541223D01*
X11340476Y-84541223D02*
X11340476Y-84665033D01*
X11340476Y-84665033D02*
X11278571Y-84788842D01*
X11278571Y-84788842D02*
X11216666Y-84850747D01*
X11216666Y-84850747D02*
X11092857Y-84912652D01*
X11092857Y-84912652D02*
X10659523Y-84912652D01*
D10*
D11*
X11402380Y-135469795D02*
X11340476Y-135531700D01*
X11340476Y-135531700D02*
X11154761Y-135593604D01*
X11154761Y-135593604D02*
X11030952Y-135593604D01*
X11030952Y-135593604D02*
X10845238Y-135531700D01*
X10845238Y-135531700D02*
X10721428Y-135407890D01*
X10721428Y-135407890D02*
X10659523Y-135284080D01*
X10659523Y-135284080D02*
X10597619Y-135036461D01*
X10597619Y-135036461D02*
X10597619Y-134850747D01*
X10597619Y-134850747D02*
X10659523Y-134603128D01*
X10659523Y-134603128D02*
X10721428Y-134479319D01*
X10721428Y-134479319D02*
X10845238Y-134355509D01*
X10845238Y-134355509D02*
X11030952Y-134293604D01*
X11030952Y-134293604D02*
X11154761Y-134293604D01*
X11154761Y-134293604D02*
X11340476Y-134355509D01*
X11340476Y-134355509D02*
X11402380Y-134417414D01*
D10*
D11*
X10659523Y-185593604D02*
X10659523Y-184293604D01*
X10659523Y-184293604D02*
X10969047Y-184293604D01*
X10969047Y-184293604D02*
X11154761Y-184355509D01*
X11154761Y-184355509D02*
X11278571Y-184479319D01*
X11278571Y-184479319D02*
X11340476Y-184603128D01*
X11340476Y-184603128D02*
X11402380Y-184850747D01*
X11402380Y-184850747D02*
X11402380Y-185036461D01*
X11402380Y-185036461D02*
X11340476Y-185284080D01*
X11340476Y-185284080D02*
X11278571Y-185407890D01*
X11278571Y-185407890D02*
X11154761Y-185531700D01*
X11154761Y-185531700D02*
X10969047Y-185593604D01*
X10969047Y-185593604D02*
X10659523Y-185593604D01*
D10*
D11*
X287002200Y-60000000D02*
X285002200Y-60000000D01*
D10*
D11*
X287002200Y-110000000D02*
X285002200Y-110000000D01*
D10*
D11*
X287002200Y-160000000D02*
X285002200Y-160000000D01*
D10*
D11*
X285692676Y-35222176D02*
X286311723Y-35222176D01*
X285568866Y-35593604D02*
X286002199Y-34293604D01*
X286002199Y-34293604D02*
X286435533Y-35593604D01*
D10*
D11*
X286095057Y-84912652D02*
X286280771Y-84974557D01*
X286280771Y-84974557D02*
X286342676Y-85036461D01*
X286342676Y-85036461D02*
X286404580Y-85160271D01*
X286404580Y-85160271D02*
X286404580Y-85345985D01*
X286404580Y-85345985D02*
X286342676Y-85469795D01*
X286342676Y-85469795D02*
X286280771Y-85531700D01*
X286280771Y-85531700D02*
X286156961Y-85593604D01*
X286156961Y-85593604D02*
X285661723Y-85593604D01*
X285661723Y-85593604D02*
X285661723Y-84293604D01*
X285661723Y-84293604D02*
X286095057Y-84293604D01*
X286095057Y-84293604D02*
X286218866Y-84355509D01*
X286218866Y-84355509D02*
X286280771Y-84417414D01*
X286280771Y-84417414D02*
X286342676Y-84541223D01*
X286342676Y-84541223D02*
X286342676Y-84665033D01*
X286342676Y-84665033D02*
X286280771Y-84788842D01*
X286280771Y-84788842D02*
X286218866Y-84850747D01*
X286218866Y-84850747D02*
X286095057Y-84912652D01*
X286095057Y-84912652D02*
X285661723Y-84912652D01*
D10*
D11*
X286404580Y-135469795D02*
X286342676Y-135531700D01*
X286342676Y-135531700D02*
X286156961Y-135593604D01*
X286156961Y-135593604D02*
X286033152Y-135593604D01*
X286033152Y-135593604D02*
X285847438Y-135531700D01*
X285847438Y-135531700D02*
X285723628Y-135407890D01*
X285723628Y-135407890D02*
X285661723Y-135284080D01*
X285661723Y-135284080D02*
X285599819Y-135036461D01*
X285599819Y-135036461D02*
X285599819Y-134850747D01*
X285599819Y-134850747D02*
X285661723Y-134603128D01*
X285661723Y-134603128D02*
X285723628Y-134479319D01*
X285723628Y-134479319D02*
X285847438Y-134355509D01*
X285847438Y-134355509D02*
X286033152Y-134293604D01*
X286033152Y-134293604D02*
X286156961Y-134293604D01*
X286156961Y-134293604D02*
X286342676Y-134355509D01*
X286342676Y-134355509D02*
X286404580Y-134417414D01*
D10*
D11*
X285661723Y-185593604D02*
X285661723Y-184293604D01*
X285661723Y-184293604D02*
X285971247Y-184293604D01*
X285971247Y-184293604D02*
X286156961Y-184355509D01*
X286156961Y-184355509D02*
X286280771Y-184479319D01*
X286280771Y-184479319D02*
X286342676Y-184603128D01*
X286342676Y-184603128D02*
X286404580Y-184850747D01*
X286404580Y-184850747D02*
X286404580Y-185036461D01*
X286404580Y-185036461D02*
X286342676Y-185284080D01*
X286342676Y-185284080D02*
X286280771Y-185407890D01*
X286280771Y-185407890D02*
X286156961Y-185531700D01*
X286156961Y-185531700D02*
X285971247Y-185593604D01*
X285971247Y-185593604D02*
X285661723Y-185593604D01*
D10*
D11*
X200458026Y-193793328D02*
X200458026Y-192293328D01*
X200458026Y-192293328D02*
X200815169Y-192293328D01*
X200815169Y-192293328D02*
X201029455Y-192364757D01*
X201029455Y-192364757D02*
X201172312Y-192507614D01*
X201172312Y-192507614D02*
X201243741Y-192650471D01*
X201243741Y-192650471D02*
X201315169Y-192936185D01*
X201315169Y-192936185D02*
X201315169Y-193150471D01*
X201315169Y-193150471D02*
X201243741Y-193436185D01*
X201243741Y-193436185D02*
X201172312Y-193579042D01*
X201172312Y-193579042D02*
X201029455Y-193721900D01*
X201029455Y-193721900D02*
X200815169Y-193793328D01*
X200815169Y-193793328D02*
X200458026Y-193793328D01*
X202600884Y-193793328D02*
X202600884Y-193007614D01*
X202600884Y-193007614D02*
X202529455Y-192864757D01*
X202529455Y-192864757D02*
X202386598Y-192793328D01*
X202386598Y-192793328D02*
X202100884Y-192793328D01*
X202100884Y-192793328D02*
X201958026Y-192864757D01*
X202600884Y-193721900D02*
X202458026Y-193793328D01*
X202458026Y-193793328D02*
X202100884Y-193793328D01*
X202100884Y-193793328D02*
X201958026Y-193721900D01*
X201958026Y-193721900D02*
X201886598Y-193579042D01*
X201886598Y-193579042D02*
X201886598Y-193436185D01*
X201886598Y-193436185D02*
X201958026Y-193293328D01*
X201958026Y-193293328D02*
X202100884Y-193221900D01*
X202100884Y-193221900D02*
X202458026Y-193221900D01*
X202458026Y-193221900D02*
X202600884Y-193150471D01*
X203100884Y-192793328D02*
X203672312Y-192793328D01*
X203315169Y-192293328D02*
X203315169Y-193579042D01*
X203315169Y-193579042D02*
X203386598Y-193721900D01*
X203386598Y-193721900D02*
X203529455Y-193793328D01*
X203529455Y-193793328D02*
X203672312Y-193793328D01*
X204743741Y-193721900D02*
X204600884Y-193793328D01*
X204600884Y-193793328D02*
X204315170Y-193793328D01*
X204315170Y-193793328D02*
X204172312Y-193721900D01*
X204172312Y-193721900D02*
X204100884Y-193579042D01*
X204100884Y-193579042D02*
X204100884Y-193007614D01*
X204100884Y-193007614D02*
X204172312Y-192864757D01*
X204172312Y-192864757D02*
X204315170Y-192793328D01*
X204315170Y-192793328D02*
X204600884Y-192793328D01*
X204600884Y-192793328D02*
X204743741Y-192864757D01*
X204743741Y-192864757D02*
X204815170Y-193007614D01*
X204815170Y-193007614D02*
X204815170Y-193150471D01*
X204815170Y-193150471D02*
X204100884Y-193293328D01*
X205458026Y-193650471D02*
X205529455Y-193721900D01*
X205529455Y-193721900D02*
X205458026Y-193793328D01*
X205458026Y-193793328D02*
X205386598Y-193721900D01*
X205386598Y-193721900D02*
X205458026Y-193650471D01*
X205458026Y-193650471D02*
X205458026Y-193793328D01*
X205458026Y-192864757D02*
X205529455Y-192936185D01*
X205529455Y-192936185D02*
X205458026Y-193007614D01*
X205458026Y-193007614D02*
X205386598Y-192936185D01*
X205386598Y-192936185D02*
X205458026Y-192864757D01*
X205458026Y-192864757D02*
X205458026Y-193007614D01*
D10*
D11*
X177002200Y-194507200D02*
X285002200Y-194507200D01*
D10*
D11*
X178458026Y-196593328D02*
X178458026Y-195093328D01*
X179315169Y-196593328D02*
X178672312Y-195736185D01*
X179315169Y-195093328D02*
X178458026Y-195950471D01*
X179958026Y-196593328D02*
X179958026Y-195593328D01*
X179958026Y-195093328D02*
X179886598Y-195164757D01*
X179886598Y-195164757D02*
X179958026Y-195236185D01*
X179958026Y-195236185D02*
X180029455Y-195164757D01*
X180029455Y-195164757D02*
X179958026Y-195093328D01*
X179958026Y-195093328D02*
X179958026Y-195236185D01*
X181529455Y-196450471D02*
X181458027Y-196521900D01*
X181458027Y-196521900D02*
X181243741Y-196593328D01*
X181243741Y-196593328D02*
X181100884Y-196593328D01*
X181100884Y-196593328D02*
X180886598Y-196521900D01*
X180886598Y-196521900D02*
X180743741Y-196379042D01*
X180743741Y-196379042D02*
X180672312Y-196236185D01*
X180672312Y-196236185D02*
X180600884Y-195950471D01*
X180600884Y-195950471D02*
X180600884Y-195736185D01*
X180600884Y-195736185D02*
X180672312Y-195450471D01*
X180672312Y-195450471D02*
X180743741Y-195307614D01*
X180743741Y-195307614D02*
X180886598Y-195164757D01*
X180886598Y-195164757D02*
X181100884Y-195093328D01*
X181100884Y-195093328D02*
X181243741Y-195093328D01*
X181243741Y-195093328D02*
X181458027Y-195164757D01*
X181458027Y-195164757D02*
X181529455Y-195236185D01*
X182815170Y-196593328D02*
X182815170Y-195807614D01*
X182815170Y-195807614D02*
X182743741Y-195664757D01*
X182743741Y-195664757D02*
X182600884Y-195593328D01*
X182600884Y-195593328D02*
X182315170Y-195593328D01*
X182315170Y-195593328D02*
X182172312Y-195664757D01*
X182815170Y-196521900D02*
X182672312Y-196593328D01*
X182672312Y-196593328D02*
X182315170Y-196593328D01*
X182315170Y-196593328D02*
X182172312Y-196521900D01*
X182172312Y-196521900D02*
X182100884Y-196379042D01*
X182100884Y-196379042D02*
X182100884Y-196236185D01*
X182100884Y-196236185D02*
X182172312Y-196093328D01*
X182172312Y-196093328D02*
X182315170Y-196021900D01*
X182315170Y-196021900D02*
X182672312Y-196021900D01*
X182672312Y-196021900D02*
X182815170Y-195950471D01*
X184172313Y-196593328D02*
X184172313Y-195093328D01*
X184172313Y-196521900D02*
X184029455Y-196593328D01*
X184029455Y-196593328D02*
X183743741Y-196593328D01*
X183743741Y-196593328D02*
X183600884Y-196521900D01*
X183600884Y-196521900D02*
X183529455Y-196450471D01*
X183529455Y-196450471D02*
X183458027Y-196307614D01*
X183458027Y-196307614D02*
X183458027Y-195879042D01*
X183458027Y-195879042D02*
X183529455Y-195736185D01*
X183529455Y-195736185D02*
X183600884Y-195664757D01*
X183600884Y-195664757D02*
X183743741Y-195593328D01*
X183743741Y-195593328D02*
X184029455Y-195593328D01*
X184029455Y-195593328D02*
X184172313Y-195664757D01*
X186029455Y-195807614D02*
X186529455Y-195807614D01*
X186743741Y-196593328D02*
X186029455Y-196593328D01*
X186029455Y-196593328D02*
X186029455Y-195093328D01*
X186029455Y-195093328D02*
X186743741Y-195093328D01*
X187386598Y-196450471D02*
X187458027Y-196521900D01*
X187458027Y-196521900D02*
X187386598Y-196593328D01*
X187386598Y-196593328D02*
X187315170Y-196521900D01*
X187315170Y-196521900D02*
X187386598Y-196450471D01*
X187386598Y-196450471D02*
X187386598Y-196593328D01*
X188100884Y-196593328D02*
X188100884Y-195093328D01*
X188100884Y-195093328D02*
X188458027Y-195093328D01*
X188458027Y-195093328D02*
X188672313Y-195164757D01*
X188672313Y-195164757D02*
X188815170Y-195307614D01*
X188815170Y-195307614D02*
X188886599Y-195450471D01*
X188886599Y-195450471D02*
X188958027Y-195736185D01*
X188958027Y-195736185D02*
X188958027Y-195950471D01*
X188958027Y-195950471D02*
X188886599Y-196236185D01*
X188886599Y-196236185D02*
X188815170Y-196379042D01*
X188815170Y-196379042D02*
X188672313Y-196521900D01*
X188672313Y-196521900D02*
X188458027Y-196593328D01*
X188458027Y-196593328D02*
X188100884Y-196593328D01*
X189600884Y-196450471D02*
X189672313Y-196521900D01*
X189672313Y-196521900D02*
X189600884Y-196593328D01*
X189600884Y-196593328D02*
X189529456Y-196521900D01*
X189529456Y-196521900D02*
X189600884Y-196450471D01*
X189600884Y-196450471D02*
X189600884Y-196593328D01*
X190243742Y-196164757D02*
X190958028Y-196164757D01*
X190100885Y-196593328D02*
X190600885Y-195093328D01*
X190600885Y-195093328D02*
X191100885Y-196593328D01*
X191600884Y-196450471D02*
X191672313Y-196521900D01*
X191672313Y-196521900D02*
X191600884Y-196593328D01*
X191600884Y-196593328D02*
X191529456Y-196521900D01*
X191529456Y-196521900D02*
X191600884Y-196450471D01*
X191600884Y-196450471D02*
X191600884Y-196593328D01*
X193529456Y-196593328D02*
X193815170Y-196593328D01*
X193815170Y-196593328D02*
X193958027Y-196521900D01*
X193958027Y-196521900D02*
X194029456Y-196450471D01*
X194029456Y-196450471D02*
X194172313Y-196236185D01*
X194172313Y-196236185D02*
X194243742Y-195950471D01*
X194243742Y-195950471D02*
X194243742Y-195379042D01*
X194243742Y-195379042D02*
X194172313Y-195236185D01*
X194172313Y-195236185D02*
X194100885Y-195164757D01*
X194100885Y-195164757D02*
X193958027Y-195093328D01*
X193958027Y-195093328D02*
X193672313Y-195093328D01*
X193672313Y-195093328D02*
X193529456Y-195164757D01*
X193529456Y-195164757D02*
X193458027Y-195236185D01*
X193458027Y-195236185D02*
X193386599Y-195379042D01*
X193386599Y-195379042D02*
X193386599Y-195736185D01*
X193386599Y-195736185D02*
X193458027Y-195879042D01*
X193458027Y-195879042D02*
X193529456Y-195950471D01*
X193529456Y-195950471D02*
X193672313Y-196021900D01*
X193672313Y-196021900D02*
X193958027Y-196021900D01*
X193958027Y-196021900D02*
X194100885Y-195950471D01*
X194100885Y-195950471D02*
X194172313Y-195879042D01*
X194172313Y-195879042D02*
X194243742Y-195736185D01*
X194886598Y-196450471D02*
X194958027Y-196521900D01*
X194958027Y-196521900D02*
X194886598Y-196593328D01*
X194886598Y-196593328D02*
X194815170Y-196521900D01*
X194815170Y-196521900D02*
X194886598Y-196450471D01*
X194886598Y-196450471D02*
X194886598Y-196593328D01*
X195886599Y-195093328D02*
X196029456Y-195093328D01*
X196029456Y-195093328D02*
X196172313Y-195164757D01*
X196172313Y-195164757D02*
X196243742Y-195236185D01*
X196243742Y-195236185D02*
X196315170Y-195379042D01*
X196315170Y-195379042D02*
X196386599Y-195664757D01*
X196386599Y-195664757D02*
X196386599Y-196021900D01*
X196386599Y-196021900D02*
X196315170Y-196307614D01*
X196315170Y-196307614D02*
X196243742Y-196450471D01*
X196243742Y-196450471D02*
X196172313Y-196521900D01*
X196172313Y-196521900D02*
X196029456Y-196593328D01*
X196029456Y-196593328D02*
X195886599Y-196593328D01*
X195886599Y-196593328D02*
X195743742Y-196521900D01*
X195743742Y-196521900D02*
X195672313Y-196450471D01*
X195672313Y-196450471D02*
X195600884Y-196307614D01*
X195600884Y-196307614D02*
X195529456Y-196021900D01*
X195529456Y-196021900D02*
X195529456Y-195664757D01*
X195529456Y-195664757D02*
X195600884Y-195379042D01*
X195600884Y-195379042D02*
X195672313Y-195236185D01*
X195672313Y-195236185D02*
X195743742Y-195164757D01*
X195743742Y-195164757D02*
X195886599Y-195093328D01*
X197029455Y-196450471D02*
X197100884Y-196521900D01*
X197100884Y-196521900D02*
X197029455Y-196593328D01*
X197029455Y-196593328D02*
X196958027Y-196521900D01*
X196958027Y-196521900D02*
X197029455Y-196450471D01*
X197029455Y-196450471D02*
X197029455Y-196593328D01*
X197600884Y-195093328D02*
X198529456Y-195093328D01*
X198529456Y-195093328D02*
X198029456Y-195664757D01*
X198029456Y-195664757D02*
X198243741Y-195664757D01*
X198243741Y-195664757D02*
X198386599Y-195736185D01*
X198386599Y-195736185D02*
X198458027Y-195807614D01*
X198458027Y-195807614D02*
X198529456Y-195950471D01*
X198529456Y-195950471D02*
X198529456Y-196307614D01*
X198529456Y-196307614D02*
X198458027Y-196450471D01*
X198458027Y-196450471D02*
X198386599Y-196521900D01*
X198386599Y-196521900D02*
X198243741Y-196593328D01*
X198243741Y-196593328D02*
X197815170Y-196593328D01*
X197815170Y-196593328D02*
X197672313Y-196521900D01*
X197672313Y-196521900D02*
X197600884Y-196450471D01*
D10*
D11*
X177002200Y-191507200D02*
X285002200Y-191507200D01*
D10*
D12*
X264413853Y-193785528D02*
X263913853Y-193071242D01*
X263556710Y-193785528D02*
X263556710Y-192285528D01*
X263556710Y-192285528D02*
X264128139Y-192285528D01*
X264128139Y-192285528D02*
X264270996Y-192356957D01*
X264270996Y-192356957D02*
X264342425Y-192428385D01*
X264342425Y-192428385D02*
X264413853Y-192571242D01*
X264413853Y-192571242D02*
X264413853Y-192785528D01*
X264413853Y-192785528D02*
X264342425Y-192928385D01*
X264342425Y-192928385D02*
X264270996Y-192999814D01*
X264270996Y-192999814D02*
X264128139Y-193071242D01*
X264128139Y-193071242D02*
X263556710Y-193071242D01*
X265628139Y-193714100D02*
X265485282Y-193785528D01*
X265485282Y-193785528D02*
X265199568Y-193785528D01*
X265199568Y-193785528D02*
X265056710Y-193714100D01*
X265056710Y-193714100D02*
X264985282Y-193571242D01*
X264985282Y-193571242D02*
X264985282Y-192999814D01*
X264985282Y-192999814D02*
X265056710Y-192856957D01*
X265056710Y-192856957D02*
X265199568Y-192785528D01*
X265199568Y-192785528D02*
X265485282Y-192785528D01*
X265485282Y-192785528D02*
X265628139Y-192856957D01*
X265628139Y-192856957D02*
X265699568Y-192999814D01*
X265699568Y-192999814D02*
X265699568Y-193142671D01*
X265699568Y-193142671D02*
X264985282Y-193285528D01*
X266199567Y-192785528D02*
X266556710Y-193785528D01*
X266556710Y-193785528D02*
X266913853Y-192785528D01*
X267485281Y-193642671D02*
X267556710Y-193714100D01*
X267556710Y-193714100D02*
X267485281Y-193785528D01*
X267485281Y-193785528D02*
X267413853Y-193714100D01*
X267413853Y-193714100D02*
X267485281Y-193642671D01*
X267485281Y-193642671D02*
X267485281Y-193785528D01*
X267485281Y-192856957D02*
X267556710Y-192928385D01*
X267556710Y-192928385D02*
X267485281Y-192999814D01*
X267485281Y-192999814D02*
X267413853Y-192928385D01*
X267413853Y-192928385D02*
X267485281Y-192856957D01*
X267485281Y-192856957D02*
X267485281Y-192999814D01*
D10*
D11*
X178386598Y-193721900D02*
X178600884Y-193793328D01*
X178600884Y-193793328D02*
X178958026Y-193793328D01*
X178958026Y-193793328D02*
X179100884Y-193721900D01*
X179100884Y-193721900D02*
X179172312Y-193650471D01*
X179172312Y-193650471D02*
X179243741Y-193507614D01*
X179243741Y-193507614D02*
X179243741Y-193364757D01*
X179243741Y-193364757D02*
X179172312Y-193221900D01*
X179172312Y-193221900D02*
X179100884Y-193150471D01*
X179100884Y-193150471D02*
X178958026Y-193079042D01*
X178958026Y-193079042D02*
X178672312Y-193007614D01*
X178672312Y-193007614D02*
X178529455Y-192936185D01*
X178529455Y-192936185D02*
X178458026Y-192864757D01*
X178458026Y-192864757D02*
X178386598Y-192721900D01*
X178386598Y-192721900D02*
X178386598Y-192579042D01*
X178386598Y-192579042D02*
X178458026Y-192436185D01*
X178458026Y-192436185D02*
X178529455Y-192364757D01*
X178529455Y-192364757D02*
X178672312Y-192293328D01*
X178672312Y-192293328D02*
X179029455Y-192293328D01*
X179029455Y-192293328D02*
X179243741Y-192364757D01*
X179886597Y-193793328D02*
X179886597Y-192793328D01*
X179886597Y-192293328D02*
X179815169Y-192364757D01*
X179815169Y-192364757D02*
X179886597Y-192436185D01*
X179886597Y-192436185D02*
X179958026Y-192364757D01*
X179958026Y-192364757D02*
X179886597Y-192293328D01*
X179886597Y-192293328D02*
X179886597Y-192436185D01*
X180458026Y-192793328D02*
X181243741Y-192793328D01*
X181243741Y-192793328D02*
X180458026Y-193793328D01*
X180458026Y-193793328D02*
X181243741Y-193793328D01*
X182386598Y-193721900D02*
X182243741Y-193793328D01*
X182243741Y-193793328D02*
X181958027Y-193793328D01*
X181958027Y-193793328D02*
X181815169Y-193721900D01*
X181815169Y-193721900D02*
X181743741Y-193579042D01*
X181743741Y-193579042D02*
X181743741Y-193007614D01*
X181743741Y-193007614D02*
X181815169Y-192864757D01*
X181815169Y-192864757D02*
X181958027Y-192793328D01*
X181958027Y-192793328D02*
X182243741Y-192793328D01*
X182243741Y-192793328D02*
X182386598Y-192864757D01*
X182386598Y-192864757D02*
X182458027Y-193007614D01*
X182458027Y-193007614D02*
X182458027Y-193150471D01*
X182458027Y-193150471D02*
X181743741Y-193293328D01*
X183100883Y-193650471D02*
X183172312Y-193721900D01*
X183172312Y-193721900D02*
X183100883Y-193793328D01*
X183100883Y-193793328D02*
X183029455Y-193721900D01*
X183029455Y-193721900D02*
X183100883Y-193650471D01*
X183100883Y-193650471D02*
X183100883Y-193793328D01*
X183100883Y-192864757D02*
X183172312Y-192936185D01*
X183172312Y-192936185D02*
X183100883Y-193007614D01*
X183100883Y-193007614D02*
X183029455Y-192936185D01*
X183029455Y-192936185D02*
X183100883Y-192864757D01*
X183100883Y-192864757D02*
X183100883Y-193007614D01*
X184886598Y-193364757D02*
X185600884Y-193364757D01*
X184743741Y-193793328D02*
X185243741Y-192293328D01*
X185243741Y-192293328D02*
X185743741Y-193793328D01*
X186886598Y-192793328D02*
X186886598Y-193793328D01*
X186529455Y-192221900D02*
X186172312Y-193293328D01*
X186172312Y-193293328D02*
X187100883Y-193293328D01*
D10*
D11*
X263458026Y-196593328D02*
X263458026Y-195093328D01*
X264815170Y-196593328D02*
X264815170Y-195093328D01*
X264815170Y-196521900D02*
X264672312Y-196593328D01*
X264672312Y-196593328D02*
X264386598Y-196593328D01*
X264386598Y-196593328D02*
X264243741Y-196521900D01*
X264243741Y-196521900D02*
X264172312Y-196450471D01*
X264172312Y-196450471D02*
X264100884Y-196307614D01*
X264100884Y-196307614D02*
X264100884Y-195879042D01*
X264100884Y-195879042D02*
X264172312Y-195736185D01*
X264172312Y-195736185D02*
X264243741Y-195664757D01*
X264243741Y-195664757D02*
X264386598Y-195593328D01*
X264386598Y-195593328D02*
X264672312Y-195593328D01*
X264672312Y-195593328D02*
X264815170Y-195664757D01*
X265529455Y-196450471D02*
X265600884Y-196521900D01*
X265600884Y-196521900D02*
X265529455Y-196593328D01*
X265529455Y-196593328D02*
X265458027Y-196521900D01*
X265458027Y-196521900D02*
X265529455Y-196450471D01*
X265529455Y-196450471D02*
X265529455Y-196593328D01*
X265529455Y-195664757D02*
X265600884Y-195736185D01*
X265600884Y-195736185D02*
X265529455Y-195807614D01*
X265529455Y-195807614D02*
X265458027Y-195736185D01*
X265458027Y-195736185D02*
X265529455Y-195664757D01*
X265529455Y-195664757D02*
X265529455Y-195807614D01*
X268100884Y-195093328D02*
X267386598Y-195093328D01*
X267386598Y-195093328D02*
X267315170Y-195807614D01*
X267315170Y-195807614D02*
X267386598Y-195736185D01*
X267386598Y-195736185D02*
X267529456Y-195664757D01*
X267529456Y-195664757D02*
X267886598Y-195664757D01*
X267886598Y-195664757D02*
X268029456Y-195736185D01*
X268029456Y-195736185D02*
X268100884Y-195807614D01*
X268100884Y-195807614D02*
X268172313Y-195950471D01*
X268172313Y-195950471D02*
X268172313Y-196307614D01*
X268172313Y-196307614D02*
X268100884Y-196450471D01*
X268100884Y-196450471D02*
X268029456Y-196521900D01*
X268029456Y-196521900D02*
X267886598Y-196593328D01*
X267886598Y-196593328D02*
X267529456Y-196593328D01*
X267529456Y-196593328D02*
X267386598Y-196521900D01*
X267386598Y-196521900D02*
X267315170Y-196450471D01*
X269886598Y-195021900D02*
X268600884Y-196950471D01*
X270458027Y-196593328D02*
X270743741Y-196593328D01*
X270743741Y-196593328D02*
X270886598Y-196521900D01*
X270886598Y-196521900D02*
X270958027Y-196450471D01*
X270958027Y-196450471D02*
X271100884Y-196236185D01*
X271100884Y-196236185D02*
X271172313Y-195950471D01*
X271172313Y-195950471D02*
X271172313Y-195379042D01*
X271172313Y-195379042D02*
X271100884Y-195236185D01*
X271100884Y-195236185D02*
X271029456Y-195164757D01*
X271029456Y-195164757D02*
X270886598Y-195093328D01*
X270886598Y-195093328D02*
X270600884Y-195093328D01*
X270600884Y-195093328D02*
X270458027Y-195164757D01*
X270458027Y-195164757D02*
X270386598Y-195236185D01*
X270386598Y-195236185D02*
X270315170Y-195379042D01*
X270315170Y-195379042D02*
X270315170Y-195736185D01*
X270315170Y-195736185D02*
X270386598Y-195879042D01*
X270386598Y-195879042D02*
X270458027Y-195950471D01*
X270458027Y-195950471D02*
X270600884Y-196021900D01*
X270600884Y-196021900D02*
X270886598Y-196021900D01*
X270886598Y-196021900D02*
X271029456Y-195950471D01*
X271029456Y-195950471D02*
X271100884Y-195879042D01*
X271100884Y-195879042D02*
X271172313Y-195736185D01*
D10*
D11*
X177002200Y-187507200D02*
X285002200Y-187507200D01*
D10*
D13*
X178693928Y-188211638D02*
X179836785Y-188211638D01*
X179015357Y-190211638D02*
X179265357Y-188211638D01*
X180253452Y-190211638D02*
X180420119Y-188878304D01*
X180503452Y-188211638D02*
X180396309Y-188306876D01*
X180396309Y-188306876D02*
X180479643Y-188402114D01*
X180479643Y-188402114D02*
X180586786Y-188306876D01*
X180586786Y-188306876D02*
X180503452Y-188211638D01*
X180503452Y-188211638D02*
X180479643Y-188402114D01*
X181086786Y-188878304D02*
X181848690Y-188878304D01*
X181455833Y-188211638D02*
X181241548Y-189925923D01*
X181241548Y-189925923D02*
X181312976Y-190116400D01*
X181312976Y-190116400D02*
X181491548Y-190211638D01*
X181491548Y-190211638D02*
X181682024Y-190211638D01*
X182634405Y-190211638D02*
X182455833Y-190116400D01*
X182455833Y-190116400D02*
X182384405Y-189925923D01*
X182384405Y-189925923D02*
X182598690Y-188211638D01*
X184170119Y-190116400D02*
X183967738Y-190211638D01*
X183967738Y-190211638D02*
X183586785Y-190211638D01*
X183586785Y-190211638D02*
X183408214Y-190116400D01*
X183408214Y-190116400D02*
X183336785Y-189925923D01*
X183336785Y-189925923D02*
X183432024Y-189164019D01*
X183432024Y-189164019D02*
X183551071Y-188973542D01*
X183551071Y-188973542D02*
X183753452Y-188878304D01*
X183753452Y-188878304D02*
X184134404Y-188878304D01*
X184134404Y-188878304D02*
X184312976Y-188973542D01*
X184312976Y-188973542D02*
X184384404Y-189164019D01*
X184384404Y-189164019D02*
X184360595Y-189354495D01*
X184360595Y-189354495D02*
X183384404Y-189544971D01*
X185134405Y-190021161D02*
X185217738Y-190116400D01*
X185217738Y-190116400D02*
X185110595Y-190211638D01*
X185110595Y-190211638D02*
X185027262Y-190116400D01*
X185027262Y-190116400D02*
X185134405Y-190021161D01*
X185134405Y-190021161D02*
X185110595Y-190211638D01*
X185265357Y-188973542D02*
X185348690Y-189068780D01*
X185348690Y-189068780D02*
X185241548Y-189164019D01*
X185241548Y-189164019D02*
X185158214Y-189068780D01*
X185158214Y-189068780D02*
X185265357Y-188973542D01*
X185265357Y-188973542D02*
X185241548Y-189164019D01*
D10*
D11*
X178958026Y-185607614D02*
X178458026Y-185607614D01*
X178458026Y-186393328D02*
X178458026Y-184893328D01*
X178458026Y-184893328D02*
X179172312Y-184893328D01*
X179743740Y-186393328D02*
X179743740Y-185393328D01*
X179743740Y-184893328D02*
X179672312Y-184964757D01*
X179672312Y-184964757D02*
X179743740Y-185036185D01*
X179743740Y-185036185D02*
X179815169Y-184964757D01*
X179815169Y-184964757D02*
X179743740Y-184893328D01*
X179743740Y-184893328D02*
X179743740Y-185036185D01*
X180672312Y-186393328D02*
X180529455Y-186321900D01*
X180529455Y-186321900D02*
X180458026Y-186179042D01*
X180458026Y-186179042D02*
X180458026Y-184893328D01*
X181815169Y-186321900D02*
X181672312Y-186393328D01*
X181672312Y-186393328D02*
X181386598Y-186393328D01*
X181386598Y-186393328D02*
X181243740Y-186321900D01*
X181243740Y-186321900D02*
X181172312Y-186179042D01*
X181172312Y-186179042D02*
X181172312Y-185607614D01*
X181172312Y-185607614D02*
X181243740Y-185464757D01*
X181243740Y-185464757D02*
X181386598Y-185393328D01*
X181386598Y-185393328D02*
X181672312Y-185393328D01*
X181672312Y-185393328D02*
X181815169Y-185464757D01*
X181815169Y-185464757D02*
X181886598Y-185607614D01*
X181886598Y-185607614D02*
X181886598Y-185750471D01*
X181886598Y-185750471D02*
X181172312Y-185893328D01*
X182529454Y-186250471D02*
X182600883Y-186321900D01*
X182600883Y-186321900D02*
X182529454Y-186393328D01*
X182529454Y-186393328D02*
X182458026Y-186321900D01*
X182458026Y-186321900D02*
X182529454Y-186250471D01*
X182529454Y-186250471D02*
X182529454Y-186393328D01*
X182529454Y-185464757D02*
X182600883Y-185536185D01*
X182600883Y-185536185D02*
X182529454Y-185607614D01*
X182529454Y-185607614D02*
X182458026Y-185536185D01*
X182458026Y-185536185D02*
X182529454Y-185464757D01*
X182529454Y-185464757D02*
X182529454Y-185607614D01*
X184172312Y-185393328D02*
X184743740Y-185393328D01*
X184386597Y-186393328D02*
X184386597Y-185107614D01*
X184386597Y-185107614D02*
X184458026Y-184964757D01*
X184458026Y-184964757D02*
X184600883Y-184893328D01*
X184600883Y-184893328D02*
X184743740Y-184893328D01*
X185886598Y-186321900D02*
X185743740Y-186393328D01*
X185743740Y-186393328D02*
X185458026Y-186393328D01*
X185458026Y-186393328D02*
X185315169Y-186321900D01*
X185315169Y-186321900D02*
X185243740Y-186250471D01*
X185243740Y-186250471D02*
X185172312Y-186107614D01*
X185172312Y-186107614D02*
X185172312Y-185679042D01*
X185172312Y-185679042D02*
X185243740Y-185536185D01*
X185243740Y-185536185D02*
X185315169Y-185464757D01*
X185315169Y-185464757D02*
X185458026Y-185393328D01*
X185458026Y-185393328D02*
X185743740Y-185393328D01*
X185743740Y-185393328D02*
X185886598Y-185464757D01*
X186172312Y-186536185D02*
X187315169Y-186536185D01*
X187672311Y-185393328D02*
X187672311Y-186393328D01*
X187672311Y-185536185D02*
X187743740Y-185464757D01*
X187743740Y-185464757D02*
X187886597Y-185393328D01*
X187886597Y-185393328D02*
X188100883Y-185393328D01*
X188100883Y-185393328D02*
X188243740Y-185464757D01*
X188243740Y-185464757D02*
X188315169Y-185607614D01*
X188315169Y-185607614D02*
X188315169Y-186393328D01*
X189029454Y-186393328D02*
X189029454Y-185393328D01*
X189029454Y-184893328D02*
X188958026Y-184964757D01*
X188958026Y-184964757D02*
X189029454Y-185036185D01*
X189029454Y-185036185D02*
X189100883Y-184964757D01*
X189100883Y-184964757D02*
X189029454Y-184893328D01*
X189029454Y-184893328D02*
X189029454Y-185036185D01*
X190386598Y-186321900D02*
X190243740Y-186393328D01*
X190243740Y-186393328D02*
X189958026Y-186393328D01*
X189958026Y-186393328D02*
X189815169Y-186321900D01*
X189815169Y-186321900D02*
X189743740Y-186250471D01*
X189743740Y-186250471D02*
X189672312Y-186107614D01*
X189672312Y-186107614D02*
X189672312Y-185679042D01*
X189672312Y-185679042D02*
X189743740Y-185536185D01*
X189743740Y-185536185D02*
X189815169Y-185464757D01*
X189815169Y-185464757D02*
X189958026Y-185393328D01*
X189958026Y-185393328D02*
X190243740Y-185393328D01*
X190243740Y-185393328D02*
X190386598Y-185464757D01*
X191029454Y-186393328D02*
X191029454Y-184893328D01*
X191172312Y-185821900D02*
X191600883Y-186393328D01*
X191600883Y-185393328D02*
X191029454Y-185964757D01*
X192815169Y-186321900D02*
X192672312Y-186393328D01*
X192672312Y-186393328D02*
X192386598Y-186393328D01*
X192386598Y-186393328D02*
X192243740Y-186321900D01*
X192243740Y-186321900D02*
X192172312Y-186179042D01*
X192172312Y-186179042D02*
X192172312Y-185607614D01*
X192172312Y-185607614D02*
X192243740Y-185464757D01*
X192243740Y-185464757D02*
X192386598Y-185393328D01*
X192386598Y-185393328D02*
X192672312Y-185393328D01*
X192672312Y-185393328D02*
X192815169Y-185464757D01*
X192815169Y-185464757D02*
X192886598Y-185607614D01*
X192886598Y-185607614D02*
X192886598Y-185750471D01*
X192886598Y-185750471D02*
X192172312Y-185893328D01*
X193743740Y-186393328D02*
X193600883Y-186321900D01*
X193600883Y-186321900D02*
X193529454Y-186179042D01*
X193529454Y-186179042D02*
X193529454Y-184893328D01*
X193958026Y-186536185D02*
X195100883Y-186536185D01*
X195315168Y-185393328D02*
X195672311Y-186393328D01*
X195672311Y-186393328D02*
X196029454Y-185393328D01*
X197386597Y-186393328D02*
X196529454Y-186393328D01*
X196958025Y-186393328D02*
X196958025Y-184893328D01*
X196958025Y-184893328D02*
X196815168Y-185107614D01*
X196815168Y-185107614D02*
X196672311Y-185250471D01*
X196672311Y-185250471D02*
X196529454Y-185321900D01*
X198029453Y-186250471D02*
X198100882Y-186321900D01*
X198100882Y-186321900D02*
X198029453Y-186393328D01*
X198029453Y-186393328D02*
X197958025Y-186321900D01*
X197958025Y-186321900D02*
X198029453Y-186250471D01*
X198029453Y-186250471D02*
X198029453Y-186393328D01*
X199029454Y-184893328D02*
X199172311Y-184893328D01*
X199172311Y-184893328D02*
X199315168Y-184964757D01*
X199315168Y-184964757D02*
X199386597Y-185036185D01*
X199386597Y-185036185D02*
X199458025Y-185179042D01*
X199458025Y-185179042D02*
X199529454Y-185464757D01*
X199529454Y-185464757D02*
X199529454Y-185821900D01*
X199529454Y-185821900D02*
X199458025Y-186107614D01*
X199458025Y-186107614D02*
X199386597Y-186250471D01*
X199386597Y-186250471D02*
X199315168Y-186321900D01*
X199315168Y-186321900D02*
X199172311Y-186393328D01*
X199172311Y-186393328D02*
X199029454Y-186393328D01*
X199029454Y-186393328D02*
X198886597Y-186321900D01*
X198886597Y-186321900D02*
X198815168Y-186250471D01*
X198815168Y-186250471D02*
X198743739Y-186107614D01*
X198743739Y-186107614D02*
X198672311Y-185821900D01*
X198672311Y-185821900D02*
X198672311Y-185464757D01*
X198672311Y-185464757D02*
X198743739Y-185179042D01*
X198743739Y-185179042D02*
X198815168Y-185036185D01*
X198815168Y-185036185D02*
X198886597Y-184964757D01*
X198886597Y-184964757D02*
X199029454Y-184893328D01*
X200172310Y-186250471D02*
X200243739Y-186321900D01*
X200243739Y-186321900D02*
X200172310Y-186393328D01*
X200172310Y-186393328D02*
X200100882Y-186321900D01*
X200100882Y-186321900D02*
X200172310Y-186250471D01*
X200172310Y-186250471D02*
X200172310Y-186393328D01*
X200886596Y-186393328D02*
X200886596Y-184893328D01*
X201029454Y-185821900D02*
X201458025Y-186393328D01*
X201458025Y-185393328D02*
X200886596Y-185964757D01*
X202100882Y-186393328D02*
X202100882Y-185393328D01*
X202100882Y-184893328D02*
X202029454Y-184964757D01*
X202029454Y-184964757D02*
X202100882Y-185036185D01*
X202100882Y-185036185D02*
X202172311Y-184964757D01*
X202172311Y-184964757D02*
X202100882Y-184893328D01*
X202100882Y-184893328D02*
X202100882Y-185036185D01*
X203458026Y-186321900D02*
X203315168Y-186393328D01*
X203315168Y-186393328D02*
X203029454Y-186393328D01*
X203029454Y-186393328D02*
X202886597Y-186321900D01*
X202886597Y-186321900D02*
X202815168Y-186250471D01*
X202815168Y-186250471D02*
X202743740Y-186107614D01*
X202743740Y-186107614D02*
X202743740Y-185679042D01*
X202743740Y-185679042D02*
X202815168Y-185536185D01*
X202815168Y-185536185D02*
X202886597Y-185464757D01*
X202886597Y-185464757D02*
X203029454Y-185393328D01*
X203029454Y-185393328D02*
X203315168Y-185393328D01*
X203315168Y-185393328D02*
X203458026Y-185464757D01*
X204743740Y-186393328D02*
X204743740Y-185607614D01*
X204743740Y-185607614D02*
X204672311Y-185464757D01*
X204672311Y-185464757D02*
X204529454Y-185393328D01*
X204529454Y-185393328D02*
X204243740Y-185393328D01*
X204243740Y-185393328D02*
X204100882Y-185464757D01*
X204743740Y-186321900D02*
X204600882Y-186393328D01*
X204600882Y-186393328D02*
X204243740Y-186393328D01*
X204243740Y-186393328D02*
X204100882Y-186321900D01*
X204100882Y-186321900D02*
X204029454Y-186179042D01*
X204029454Y-186179042D02*
X204029454Y-186036185D01*
X204029454Y-186036185D02*
X204100882Y-185893328D01*
X204100882Y-185893328D02*
X204243740Y-185821900D01*
X204243740Y-185821900D02*
X204600882Y-185821900D01*
X204600882Y-185821900D02*
X204743740Y-185750471D01*
X206100883Y-186393328D02*
X206100883Y-184893328D01*
X206100883Y-186321900D02*
X205958025Y-186393328D01*
X205958025Y-186393328D02*
X205672311Y-186393328D01*
X205672311Y-186393328D02*
X205529454Y-186321900D01*
X205529454Y-186321900D02*
X205458025Y-186250471D01*
X205458025Y-186250471D02*
X205386597Y-186107614D01*
X205386597Y-186107614D02*
X205386597Y-185679042D01*
X205386597Y-185679042D02*
X205458025Y-185536185D01*
X205458025Y-185536185D02*
X205529454Y-185464757D01*
X205529454Y-185464757D02*
X205672311Y-185393328D01*
X205672311Y-185393328D02*
X205958025Y-185393328D01*
X205958025Y-185393328D02*
X206100883Y-185464757D01*
X206458026Y-186536185D02*
X207600883Y-186536185D01*
X207958025Y-185393328D02*
X207958025Y-186893328D01*
X207958025Y-185464757D02*
X208100883Y-185393328D01*
X208100883Y-185393328D02*
X208386597Y-185393328D01*
X208386597Y-185393328D02*
X208529454Y-185464757D01*
X208529454Y-185464757D02*
X208600883Y-185536185D01*
X208600883Y-185536185D02*
X208672311Y-185679042D01*
X208672311Y-185679042D02*
X208672311Y-186107614D01*
X208672311Y-186107614D02*
X208600883Y-186250471D01*
X208600883Y-186250471D02*
X208529454Y-186321900D01*
X208529454Y-186321900D02*
X208386597Y-186393328D01*
X208386597Y-186393328D02*
X208100883Y-186393328D01*
X208100883Y-186393328D02*
X207958025Y-186321900D01*
X209958026Y-186321900D02*
X209815168Y-186393328D01*
X209815168Y-186393328D02*
X209529454Y-186393328D01*
X209529454Y-186393328D02*
X209386597Y-186321900D01*
X209386597Y-186321900D02*
X209315168Y-186250471D01*
X209315168Y-186250471D02*
X209243740Y-186107614D01*
X209243740Y-186107614D02*
X209243740Y-185679042D01*
X209243740Y-185679042D02*
X209315168Y-185536185D01*
X209315168Y-185536185D02*
X209386597Y-185464757D01*
X209386597Y-185464757D02*
X209529454Y-185393328D01*
X209529454Y-185393328D02*
X209815168Y-185393328D01*
X209815168Y-185393328D02*
X209958026Y-185464757D01*
X210600882Y-186393328D02*
X210600882Y-184893328D01*
X210600882Y-185464757D02*
X210743740Y-185393328D01*
X210743740Y-185393328D02*
X211029454Y-185393328D01*
X211029454Y-185393328D02*
X211172311Y-185464757D01*
X211172311Y-185464757D02*
X211243740Y-185536185D01*
X211243740Y-185536185D02*
X211315168Y-185679042D01*
X211315168Y-185679042D02*
X211315168Y-186107614D01*
X211315168Y-186107614D02*
X211243740Y-186250471D01*
X211243740Y-186250471D02*
X211172311Y-186321900D01*
X211172311Y-186321900D02*
X211029454Y-186393328D01*
X211029454Y-186393328D02*
X210743740Y-186393328D01*
X210743740Y-186393328D02*
X210600882Y-186321900D01*
D10*
D11*
X177002200Y-181507200D02*
X285002200Y-181507200D01*
D10*
D11*
X178386598Y-183621900D02*
X178600884Y-183693328D01*
X178600884Y-183693328D02*
X178958026Y-183693328D01*
X178958026Y-183693328D02*
X179100884Y-183621900D01*
X179100884Y-183621900D02*
X179172312Y-183550471D01*
X179172312Y-183550471D02*
X179243741Y-183407614D01*
X179243741Y-183407614D02*
X179243741Y-183264757D01*
X179243741Y-183264757D02*
X179172312Y-183121900D01*
X179172312Y-183121900D02*
X179100884Y-183050471D01*
X179100884Y-183050471D02*
X178958026Y-182979042D01*
X178958026Y-182979042D02*
X178672312Y-182907614D01*
X178672312Y-182907614D02*
X178529455Y-182836185D01*
X178529455Y-182836185D02*
X178458026Y-182764757D01*
X178458026Y-182764757D02*
X178386598Y-182621900D01*
X178386598Y-182621900D02*
X178386598Y-182479042D01*
X178386598Y-182479042D02*
X178458026Y-182336185D01*
X178458026Y-182336185D02*
X178529455Y-182264757D01*
X178529455Y-182264757D02*
X178672312Y-182193328D01*
X178672312Y-182193328D02*
X179029455Y-182193328D01*
X179029455Y-182193328D02*
X179243741Y-182264757D01*
X179886597Y-183693328D02*
X179886597Y-182193328D01*
X180529455Y-183693328D02*
X180529455Y-182907614D01*
X180529455Y-182907614D02*
X180458026Y-182764757D01*
X180458026Y-182764757D02*
X180315169Y-182693328D01*
X180315169Y-182693328D02*
X180100883Y-182693328D01*
X180100883Y-182693328D02*
X179958026Y-182764757D01*
X179958026Y-182764757D02*
X179886597Y-182836185D01*
X181815169Y-183621900D02*
X181672312Y-183693328D01*
X181672312Y-183693328D02*
X181386598Y-183693328D01*
X181386598Y-183693328D02*
X181243740Y-183621900D01*
X181243740Y-183621900D02*
X181172312Y-183479042D01*
X181172312Y-183479042D02*
X181172312Y-182907614D01*
X181172312Y-182907614D02*
X181243740Y-182764757D01*
X181243740Y-182764757D02*
X181386598Y-182693328D01*
X181386598Y-182693328D02*
X181672312Y-182693328D01*
X181672312Y-182693328D02*
X181815169Y-182764757D01*
X181815169Y-182764757D02*
X181886598Y-182907614D01*
X181886598Y-182907614D02*
X181886598Y-183050471D01*
X181886598Y-183050471D02*
X181172312Y-183193328D01*
X183100883Y-183621900D02*
X182958026Y-183693328D01*
X182958026Y-183693328D02*
X182672312Y-183693328D01*
X182672312Y-183693328D02*
X182529454Y-183621900D01*
X182529454Y-183621900D02*
X182458026Y-183479042D01*
X182458026Y-183479042D02*
X182458026Y-182907614D01*
X182458026Y-182907614D02*
X182529454Y-182764757D01*
X182529454Y-182764757D02*
X182672312Y-182693328D01*
X182672312Y-182693328D02*
X182958026Y-182693328D01*
X182958026Y-182693328D02*
X183100883Y-182764757D01*
X183100883Y-182764757D02*
X183172312Y-182907614D01*
X183172312Y-182907614D02*
X183172312Y-183050471D01*
X183172312Y-183050471D02*
X182458026Y-183193328D01*
X183600883Y-182693328D02*
X184172311Y-182693328D01*
X183815168Y-182193328D02*
X183815168Y-183479042D01*
X183815168Y-183479042D02*
X183886597Y-183621900D01*
X183886597Y-183621900D02*
X184029454Y-183693328D01*
X184029454Y-183693328D02*
X184172311Y-183693328D01*
X184672311Y-183550471D02*
X184743740Y-183621900D01*
X184743740Y-183621900D02*
X184672311Y-183693328D01*
X184672311Y-183693328D02*
X184600883Y-183621900D01*
X184600883Y-183621900D02*
X184672311Y-183550471D01*
X184672311Y-183550471D02*
X184672311Y-183693328D01*
X184672311Y-182764757D02*
X184743740Y-182836185D01*
X184743740Y-182836185D02*
X184672311Y-182907614D01*
X184672311Y-182907614D02*
X184600883Y-182836185D01*
X184600883Y-182836185D02*
X184672311Y-182764757D01*
X184672311Y-182764757D02*
X184672311Y-182907614D01*
D10*
D11*
X197002200Y-191507200D02*
X197002200Y-194507200D01*
D10*
D11*
X261002200Y-191507200D02*
X261002200Y-198007200D01*
D14*
X186950000Y-109500000D02*
X186700000Y-109750000D01*
X186450000Y-109500000D02*
X186950000Y-109500000D01*
X181750000Y-112500000D02*
X181250000Y-112500000D01*
X181250000Y-112500000D02*
X181500000Y-112250000D01*
X181750000Y-112500000D02*
X181500000Y-112250000D01*
X181500000Y-112500000D02*
X181500000Y-112400000D01*
X186700000Y-109500000D02*
X186700000Y-109600000D01*
X186450000Y-109500000D02*
X186700000Y-109750000D01*
D11*
X160761904Y-78002438D02*
X160666666Y-77954819D01*
X160666666Y-77954819D02*
X160523809Y-77954819D01*
X160523809Y-77954819D02*
X160380952Y-78002438D01*
X160380952Y-78002438D02*
X160285714Y-78097676D01*
X160285714Y-78097676D02*
X160238095Y-78192914D01*
X160238095Y-78192914D02*
X160190476Y-78383390D01*
X160190476Y-78383390D02*
X160190476Y-78526247D01*
X160190476Y-78526247D02*
X160238095Y-78716723D01*
X160238095Y-78716723D02*
X160285714Y-78811961D01*
X160285714Y-78811961D02*
X160380952Y-78907200D01*
X160380952Y-78907200D02*
X160523809Y-78954819D01*
X160523809Y-78954819D02*
X160619047Y-78954819D01*
X160619047Y-78954819D02*
X160761904Y-78907200D01*
X160761904Y-78907200D02*
X160809523Y-78859580D01*
X160809523Y-78859580D02*
X160809523Y-78526247D01*
X160809523Y-78526247D02*
X160619047Y-78526247D01*
X160571428Y-80931009D02*
X160714285Y-80978628D01*
X160714285Y-80978628D02*
X160761904Y-81026247D01*
X160761904Y-81026247D02*
X160809523Y-81121485D01*
X160809523Y-81121485D02*
X160809523Y-81264342D01*
X160809523Y-81264342D02*
X160761904Y-81359580D01*
X160761904Y-81359580D02*
X160714285Y-81407200D01*
X160714285Y-81407200D02*
X160619047Y-81454819D01*
X160619047Y-81454819D02*
X160238095Y-81454819D01*
X160238095Y-81454819D02*
X160238095Y-80454819D01*
X160238095Y-80454819D02*
X160571428Y-80454819D01*
X160571428Y-80454819D02*
X160666666Y-80502438D01*
X160666666Y-80502438D02*
X160714285Y-80550057D01*
X160714285Y-80550057D02*
X160761904Y-80645295D01*
X160761904Y-80645295D02*
X160761904Y-80740533D01*
X160761904Y-80740533D02*
X160714285Y-80835771D01*
X160714285Y-80835771D02*
X160666666Y-80883390D01*
X160666666Y-80883390D02*
X160571428Y-80931009D01*
X160571428Y-80931009D02*
X160238095Y-80931009D01*
D15*
X178333333Y-95404600D02*
X178476190Y-95452219D01*
X178476190Y-95452219D02*
X178714285Y-95452219D01*
X178714285Y-95452219D02*
X178809523Y-95404600D01*
X178809523Y-95404600D02*
X178857142Y-95356980D01*
X178857142Y-95356980D02*
X178904761Y-95261742D01*
X178904761Y-95261742D02*
X178904761Y-95166504D01*
X178904761Y-95166504D02*
X178857142Y-95071266D01*
X178857142Y-95071266D02*
X178809523Y-95023647D01*
X178809523Y-95023647D02*
X178714285Y-94976028D01*
X178714285Y-94976028D02*
X178523809Y-94928409D01*
X178523809Y-94928409D02*
X178428571Y-94880790D01*
X178428571Y-94880790D02*
X178380952Y-94833171D01*
X178380952Y-94833171D02*
X178333333Y-94737933D01*
X178333333Y-94737933D02*
X178333333Y-94642695D01*
X178333333Y-94642695D02*
X178380952Y-94547457D01*
X178380952Y-94547457D02*
X178428571Y-94499838D01*
X178428571Y-94499838D02*
X178523809Y-94452219D01*
X178523809Y-94452219D02*
X178761904Y-94452219D01*
X178761904Y-94452219D02*
X178904761Y-94499838D01*
X179190476Y-94452219D02*
X179761904Y-94452219D01*
X179476190Y-95452219D02*
X179476190Y-94452219D01*
X180095238Y-95452219D02*
X180095238Y-94452219D01*
X180095238Y-94452219D02*
X180428571Y-95166504D01*
X180428571Y-95166504D02*
X180761904Y-94452219D01*
X180761904Y-94452219D02*
X180761904Y-95452219D01*
X181142857Y-94452219D02*
X181761904Y-94452219D01*
X181761904Y-94452219D02*
X181428571Y-94833171D01*
X181428571Y-94833171D02*
X181571428Y-94833171D01*
X181571428Y-94833171D02*
X181666666Y-94880790D01*
X181666666Y-94880790D02*
X181714285Y-94928409D01*
X181714285Y-94928409D02*
X181761904Y-95023647D01*
X181761904Y-95023647D02*
X181761904Y-95261742D01*
X181761904Y-95261742D02*
X181714285Y-95356980D01*
X181714285Y-95356980D02*
X181666666Y-95404600D01*
X181666666Y-95404600D02*
X181571428Y-95452219D01*
X181571428Y-95452219D02*
X181285714Y-95452219D01*
X181285714Y-95452219D02*
X181190476Y-95404600D01*
X181190476Y-95404600D02*
X181142857Y-95356980D01*
X182142857Y-94547457D02*
X182190476Y-94499838D01*
X182190476Y-94499838D02*
X182285714Y-94452219D01*
X182285714Y-94452219D02*
X182523809Y-94452219D01*
X182523809Y-94452219D02*
X182619047Y-94499838D01*
X182619047Y-94499838D02*
X182666666Y-94547457D01*
X182666666Y-94547457D02*
X182714285Y-94642695D01*
X182714285Y-94642695D02*
X182714285Y-94737933D01*
X182714285Y-94737933D02*
X182666666Y-94880790D01*
X182666666Y-94880790D02*
X182095238Y-95452219D01*
X182095238Y-95452219D02*
X182714285Y-95452219D01*
X183142857Y-95452219D02*
X183142857Y-94452219D01*
X183142857Y-94928409D02*
X183714285Y-94928409D01*
X183714285Y-95452219D02*
X183714285Y-94452219D01*
X184095238Y-94452219D02*
X184761904Y-94452219D01*
X184761904Y-94452219D02*
X184333333Y-95452219D01*
X185571428Y-94785552D02*
X185571428Y-95452219D01*
X185333333Y-94404600D02*
X185095238Y-95118885D01*
X185095238Y-95118885D02*
X185714285Y-95118885D01*
X186000000Y-94452219D02*
X186619047Y-94452219D01*
X186619047Y-94452219D02*
X186285714Y-94833171D01*
X186285714Y-94833171D02*
X186428571Y-94833171D01*
X186428571Y-94833171D02*
X186523809Y-94880790D01*
X186523809Y-94880790D02*
X186571428Y-94928409D01*
X186571428Y-94928409D02*
X186619047Y-95023647D01*
X186619047Y-95023647D02*
X186619047Y-95261742D01*
X186619047Y-95261742D02*
X186571428Y-95356980D01*
X186571428Y-95356980D02*
X186523809Y-95404600D01*
X186523809Y-95404600D02*
X186428571Y-95452219D01*
X186428571Y-95452219D02*
X186142857Y-95452219D01*
X186142857Y-95452219D02*
X186047619Y-95404600D01*
X186047619Y-95404600D02*
X186000000Y-95356980D01*
X186904762Y-94452219D02*
X187238095Y-95452219D01*
X187238095Y-95452219D02*
X187571428Y-94452219D01*
X187904762Y-95452219D02*
X187904762Y-94452219D01*
X188238095Y-94452219D02*
X188809523Y-94452219D01*
X188523809Y-95452219D02*
X188523809Y-94452219D01*
X189571428Y-94452219D02*
X189380952Y-94452219D01*
X189380952Y-94452219D02*
X189285714Y-94499838D01*
X189285714Y-94499838D02*
X189238095Y-94547457D01*
X189238095Y-94547457D02*
X189142857Y-94690314D01*
X189142857Y-94690314D02*
X189095238Y-94880790D01*
X189095238Y-94880790D02*
X189095238Y-95261742D01*
X189095238Y-95261742D02*
X189142857Y-95356980D01*
X189142857Y-95356980D02*
X189190476Y-95404600D01*
X189190476Y-95404600D02*
X189285714Y-95452219D01*
X189285714Y-95452219D02*
X189476190Y-95452219D01*
X189476190Y-95452219D02*
X189571428Y-95404600D01*
X189571428Y-95404600D02*
X189619047Y-95356980D01*
X189619047Y-95356980D02*
X189666666Y-95261742D01*
X189666666Y-95261742D02*
X189666666Y-95023647D01*
X189666666Y-95023647D02*
X189619047Y-94928409D01*
X189619047Y-94928409D02*
X189571428Y-94880790D01*
X189571428Y-94880790D02*
X189476190Y-94833171D01*
X189476190Y-94833171D02*
X189285714Y-94833171D01*
X189285714Y-94833171D02*
X189190476Y-94880790D01*
X189190476Y-94880790D02*
X189142857Y-94928409D01*
X189142857Y-94928409D02*
X189095238Y-95023647D01*
D11*
X175168095Y-125464819D02*
X175168095Y-126274342D01*
X175168095Y-126274342D02*
X175215714Y-126369580D01*
X175215714Y-126369580D02*
X175263333Y-126417200D01*
X175263333Y-126417200D02*
X175358571Y-126464819D01*
X175358571Y-126464819D02*
X175549047Y-126464819D01*
X175549047Y-126464819D02*
X175644285Y-126417200D01*
X175644285Y-126417200D02*
X175691904Y-126369580D01*
X175691904Y-126369580D02*
X175739523Y-126274342D01*
X175739523Y-126274342D02*
X175739523Y-125464819D01*
X176168095Y-126417200D02*
X176310952Y-126464819D01*
X176310952Y-126464819D02*
X176549047Y-126464819D01*
X176549047Y-126464819D02*
X176644285Y-126417200D01*
X176644285Y-126417200D02*
X176691904Y-126369580D01*
X176691904Y-126369580D02*
X176739523Y-126274342D01*
X176739523Y-126274342D02*
X176739523Y-126179104D01*
X176739523Y-126179104D02*
X176691904Y-126083866D01*
X176691904Y-126083866D02*
X176644285Y-126036247D01*
X176644285Y-126036247D02*
X176549047Y-125988628D01*
X176549047Y-125988628D02*
X176358571Y-125941009D01*
X176358571Y-125941009D02*
X176263333Y-125893390D01*
X176263333Y-125893390D02*
X176215714Y-125845771D01*
X176215714Y-125845771D02*
X176168095Y-125750533D01*
X176168095Y-125750533D02*
X176168095Y-125655295D01*
X176168095Y-125655295D02*
X176215714Y-125560057D01*
X176215714Y-125560057D02*
X176263333Y-125512438D01*
X176263333Y-125512438D02*
X176358571Y-125464819D01*
X176358571Y-125464819D02*
X176596666Y-125464819D01*
X176596666Y-125464819D02*
X176739523Y-125512438D01*
X177501428Y-125941009D02*
X177644285Y-125988628D01*
X177644285Y-125988628D02*
X177691904Y-126036247D01*
X177691904Y-126036247D02*
X177739523Y-126131485D01*
X177739523Y-126131485D02*
X177739523Y-126274342D01*
X177739523Y-126274342D02*
X177691904Y-126369580D01*
X177691904Y-126369580D02*
X177644285Y-126417200D01*
X177644285Y-126417200D02*
X177549047Y-126464819D01*
X177549047Y-126464819D02*
X177168095Y-126464819D01*
X177168095Y-126464819D02*
X177168095Y-125464819D01*
X177168095Y-125464819D02*
X177501428Y-125464819D01*
X177501428Y-125464819D02*
X177596666Y-125512438D01*
X177596666Y-125512438D02*
X177644285Y-125560057D01*
X177644285Y-125560057D02*
X177691904Y-125655295D01*
X177691904Y-125655295D02*
X177691904Y-125750533D01*
X177691904Y-125750533D02*
X177644285Y-125845771D01*
X177644285Y-125845771D02*
X177596666Y-125893390D01*
X177596666Y-125893390D02*
X177501428Y-125941009D01*
X177501428Y-125941009D02*
X177168095Y-125941009D01*
X190704761Y-77880057D02*
X190609523Y-77832438D01*
X190609523Y-77832438D02*
X190514285Y-77737200D01*
X190514285Y-77737200D02*
X190371428Y-77594342D01*
X190371428Y-77594342D02*
X190276190Y-77546723D01*
X190276190Y-77546723D02*
X190180952Y-77546723D01*
X190228571Y-77784819D02*
X190133333Y-77737200D01*
X190133333Y-77737200D02*
X190038095Y-77641961D01*
X190038095Y-77641961D02*
X189990476Y-77451485D01*
X189990476Y-77451485D02*
X189990476Y-77118152D01*
X189990476Y-77118152D02*
X190038095Y-76927676D01*
X190038095Y-76927676D02*
X190133333Y-76832438D01*
X190133333Y-76832438D02*
X190228571Y-76784819D01*
X190228571Y-76784819D02*
X190419047Y-76784819D01*
X190419047Y-76784819D02*
X190514285Y-76832438D01*
X190514285Y-76832438D02*
X190609523Y-76927676D01*
X190609523Y-76927676D02*
X190657142Y-77118152D01*
X190657142Y-77118152D02*
X190657142Y-77451485D01*
X190657142Y-77451485D02*
X190609523Y-77641961D01*
X190609523Y-77641961D02*
X190514285Y-77737200D01*
X190514285Y-77737200D02*
X190419047Y-77784819D01*
X190419047Y-77784819D02*
X190228571Y-77784819D01*
X191609523Y-77784819D02*
X191038095Y-77784819D01*
X191323809Y-77784819D02*
X191323809Y-76784819D01*
X191323809Y-76784819D02*
X191228571Y-76927676D01*
X191228571Y-76927676D02*
X191133333Y-77022914D01*
X191133333Y-77022914D02*
X191038095Y-77070533D01*
D10*
X175147619Y-115557419D02*
X175147619Y-114557419D01*
X176195237Y-115462180D02*
X176147618Y-115509800D01*
X176147618Y-115509800D02*
X176004761Y-115557419D01*
X176004761Y-115557419D02*
X175909523Y-115557419D01*
X175909523Y-115557419D02*
X175766666Y-115509800D01*
X175766666Y-115509800D02*
X175671428Y-115414561D01*
X175671428Y-115414561D02*
X175623809Y-115319323D01*
X175623809Y-115319323D02*
X175576190Y-115128847D01*
X175576190Y-115128847D02*
X175576190Y-114985990D01*
X175576190Y-114985990D02*
X175623809Y-114795514D01*
X175623809Y-114795514D02*
X175671428Y-114700276D01*
X175671428Y-114700276D02*
X175766666Y-114605038D01*
X175766666Y-114605038D02*
X175909523Y-114557419D01*
X175909523Y-114557419D02*
X176004761Y-114557419D01*
X176004761Y-114557419D02*
X176147618Y-114605038D01*
X176147618Y-114605038D02*
X176195237Y-114652657D01*
X176623809Y-115557419D02*
X176623809Y-114557419D01*
X176623809Y-114557419D02*
X176957142Y-115271704D01*
X176957142Y-115271704D02*
X177290475Y-114557419D01*
X177290475Y-114557419D02*
X177290475Y-115557419D01*
X178195237Y-114890752D02*
X178195237Y-115557419D01*
X177957142Y-114509800D02*
X177719047Y-115224085D01*
X177719047Y-115224085D02*
X178338094Y-115224085D01*
X178671428Y-114652657D02*
X178719047Y-114605038D01*
X178719047Y-114605038D02*
X178814285Y-114557419D01*
X178814285Y-114557419D02*
X179052380Y-114557419D01*
X179052380Y-114557419D02*
X179147618Y-114605038D01*
X179147618Y-114605038D02*
X179195237Y-114652657D01*
X179195237Y-114652657D02*
X179242856Y-114747895D01*
X179242856Y-114747895D02*
X179242856Y-114843133D01*
X179242856Y-114843133D02*
X179195237Y-114985990D01*
X179195237Y-114985990D02*
X178623809Y-115557419D01*
X178623809Y-115557419D02*
X179242856Y-115557419D01*
X180099999Y-114557419D02*
X179909523Y-114557419D01*
X179909523Y-114557419D02*
X179814285Y-114605038D01*
X179814285Y-114605038D02*
X179766666Y-114652657D01*
X179766666Y-114652657D02*
X179671428Y-114795514D01*
X179671428Y-114795514D02*
X179623809Y-114985990D01*
X179623809Y-114985990D02*
X179623809Y-115366942D01*
X179623809Y-115366942D02*
X179671428Y-115462180D01*
X179671428Y-115462180D02*
X179719047Y-115509800D01*
X179719047Y-115509800D02*
X179814285Y-115557419D01*
X179814285Y-115557419D02*
X180004761Y-115557419D01*
X180004761Y-115557419D02*
X180099999Y-115509800D01*
X180099999Y-115509800D02*
X180147618Y-115462180D01*
X180147618Y-115462180D02*
X180195237Y-115366942D01*
X180195237Y-115366942D02*
X180195237Y-115128847D01*
X180195237Y-115128847D02*
X180147618Y-115033609D01*
X180147618Y-115033609D02*
X180099999Y-114985990D01*
X180099999Y-114985990D02*
X180004761Y-114938371D01*
X180004761Y-114938371D02*
X179814285Y-114938371D01*
X179814285Y-114938371D02*
X179719047Y-114985990D01*
X179719047Y-114985990D02*
X179671428Y-115033609D01*
X179671428Y-115033609D02*
X179623809Y-115128847D01*
X180766666Y-114985990D02*
X180671428Y-114938371D01*
X180671428Y-114938371D02*
X180623809Y-114890752D01*
X180623809Y-114890752D02*
X180576190Y-114795514D01*
X180576190Y-114795514D02*
X180576190Y-114747895D01*
X180576190Y-114747895D02*
X180623809Y-114652657D01*
X180623809Y-114652657D02*
X180671428Y-114605038D01*
X180671428Y-114605038D02*
X180766666Y-114557419D01*
X180766666Y-114557419D02*
X180957142Y-114557419D01*
X180957142Y-114557419D02*
X181052380Y-114605038D01*
X181052380Y-114605038D02*
X181099999Y-114652657D01*
X181099999Y-114652657D02*
X181147618Y-114747895D01*
X181147618Y-114747895D02*
X181147618Y-114795514D01*
X181147618Y-114795514D02*
X181099999Y-114890752D01*
X181099999Y-114890752D02*
X181052380Y-114938371D01*
X181052380Y-114938371D02*
X180957142Y-114985990D01*
X180957142Y-114985990D02*
X180766666Y-114985990D01*
X180766666Y-114985990D02*
X180671428Y-115033609D01*
X180671428Y-115033609D02*
X180623809Y-115081228D01*
X180623809Y-115081228D02*
X180576190Y-115176466D01*
X180576190Y-115176466D02*
X180576190Y-115366942D01*
X180576190Y-115366942D02*
X180623809Y-115462180D01*
X180623809Y-115462180D02*
X180671428Y-115509800D01*
X180671428Y-115509800D02*
X180766666Y-115557419D01*
X180766666Y-115557419D02*
X180957142Y-115557419D01*
X180957142Y-115557419D02*
X181052380Y-115509800D01*
X181052380Y-115509800D02*
X181099999Y-115462180D01*
X181099999Y-115462180D02*
X181147618Y-115366942D01*
X181147618Y-115366942D02*
X181147618Y-115176466D01*
X181147618Y-115176466D02*
X181099999Y-115081228D01*
X181099999Y-115081228D02*
X181052380Y-115033609D01*
X181052380Y-115033609D02*
X180957142Y-114985990D01*
X181719047Y-114985990D02*
X181623809Y-114938371D01*
X181623809Y-114938371D02*
X181576190Y-114890752D01*
X181576190Y-114890752D02*
X181528571Y-114795514D01*
X181528571Y-114795514D02*
X181528571Y-114747895D01*
X181528571Y-114747895D02*
X181576190Y-114652657D01*
X181576190Y-114652657D02*
X181623809Y-114605038D01*
X181623809Y-114605038D02*
X181719047Y-114557419D01*
X181719047Y-114557419D02*
X181909523Y-114557419D01*
X181909523Y-114557419D02*
X182004761Y-114605038D01*
X182004761Y-114605038D02*
X182052380Y-114652657D01*
X182052380Y-114652657D02*
X182099999Y-114747895D01*
X182099999Y-114747895D02*
X182099999Y-114795514D01*
X182099999Y-114795514D02*
X182052380Y-114890752D01*
X182052380Y-114890752D02*
X182004761Y-114938371D01*
X182004761Y-114938371D02*
X181909523Y-114985990D01*
X181909523Y-114985990D02*
X181719047Y-114985990D01*
X181719047Y-114985990D02*
X181623809Y-115033609D01*
X181623809Y-115033609D02*
X181576190Y-115081228D01*
X181576190Y-115081228D02*
X181528571Y-115176466D01*
X181528571Y-115176466D02*
X181528571Y-115366942D01*
X181528571Y-115366942D02*
X181576190Y-115462180D01*
X181576190Y-115462180D02*
X181623809Y-115509800D01*
X181623809Y-115509800D02*
X181719047Y-115557419D01*
X181719047Y-115557419D02*
X181909523Y-115557419D01*
X181909523Y-115557419D02*
X182004761Y-115509800D01*
X182004761Y-115509800D02*
X182052380Y-115462180D01*
X182052380Y-115462180D02*
X182099999Y-115366942D01*
X182099999Y-115366942D02*
X182099999Y-115176466D01*
X182099999Y-115176466D02*
X182052380Y-115081228D01*
X182052380Y-115081228D02*
X182004761Y-115033609D01*
X182004761Y-115033609D02*
X181909523Y-114985990D01*
D11*
X183418095Y-121314819D02*
X183418095Y-122124342D01*
X183418095Y-122124342D02*
X183465714Y-122219580D01*
X183465714Y-122219580D02*
X183513333Y-122267200D01*
X183513333Y-122267200D02*
X183608571Y-122314819D01*
X183608571Y-122314819D02*
X183799047Y-122314819D01*
X183799047Y-122314819D02*
X183894285Y-122267200D01*
X183894285Y-122267200D02*
X183941904Y-122219580D01*
X183941904Y-122219580D02*
X183989523Y-122124342D01*
X183989523Y-122124342D02*
X183989523Y-121314819D01*
X184370476Y-121314819D02*
X185037142Y-121314819D01*
X185037142Y-121314819D02*
X184608571Y-122314819D01*
X161768095Y-118604819D02*
X161768095Y-119414342D01*
X161768095Y-119414342D02*
X161815714Y-119509580D01*
X161815714Y-119509580D02*
X161863333Y-119557200D01*
X161863333Y-119557200D02*
X161958571Y-119604819D01*
X161958571Y-119604819D02*
X162149047Y-119604819D01*
X162149047Y-119604819D02*
X162244285Y-119557200D01*
X162244285Y-119557200D02*
X162291904Y-119509580D01*
X162291904Y-119509580D02*
X162339523Y-119414342D01*
X162339523Y-119414342D02*
X162339523Y-118604819D01*
X163244285Y-118938152D02*
X163244285Y-119604819D01*
X163006190Y-118557200D02*
X162768095Y-119271485D01*
X162768095Y-119271485D02*
X163387142Y-119271485D01*
D10*
X193957419Y-114452380D02*
X192957419Y-114452380D01*
X193862180Y-113404762D02*
X193909800Y-113452381D01*
X193909800Y-113452381D02*
X193957419Y-113595238D01*
X193957419Y-113595238D02*
X193957419Y-113690476D01*
X193957419Y-113690476D02*
X193909800Y-113833333D01*
X193909800Y-113833333D02*
X193814561Y-113928571D01*
X193814561Y-113928571D02*
X193719323Y-113976190D01*
X193719323Y-113976190D02*
X193528847Y-114023809D01*
X193528847Y-114023809D02*
X193385990Y-114023809D01*
X193385990Y-114023809D02*
X193195514Y-113976190D01*
X193195514Y-113976190D02*
X193100276Y-113928571D01*
X193100276Y-113928571D02*
X193005038Y-113833333D01*
X193005038Y-113833333D02*
X192957419Y-113690476D01*
X192957419Y-113690476D02*
X192957419Y-113595238D01*
X192957419Y-113595238D02*
X193005038Y-113452381D01*
X193005038Y-113452381D02*
X193052657Y-113404762D01*
X193957419Y-112976190D02*
X192957419Y-112976190D01*
X192957419Y-112976190D02*
X193671704Y-112642857D01*
X193671704Y-112642857D02*
X192957419Y-112309524D01*
X192957419Y-112309524D02*
X193957419Y-112309524D01*
X193290752Y-111404762D02*
X193957419Y-111404762D01*
X192909800Y-111642857D02*
X193624085Y-111880952D01*
X193624085Y-111880952D02*
X193624085Y-111261905D01*
X193052657Y-110928571D02*
X193005038Y-110880952D01*
X193005038Y-110880952D02*
X192957419Y-110785714D01*
X192957419Y-110785714D02*
X192957419Y-110547619D01*
X192957419Y-110547619D02*
X193005038Y-110452381D01*
X193005038Y-110452381D02*
X193052657Y-110404762D01*
X193052657Y-110404762D02*
X193147895Y-110357143D01*
X193147895Y-110357143D02*
X193243133Y-110357143D01*
X193243133Y-110357143D02*
X193385990Y-110404762D01*
X193385990Y-110404762D02*
X193957419Y-110976190D01*
X193957419Y-110976190D02*
X193957419Y-110357143D01*
X192957419Y-109500000D02*
X192957419Y-109690476D01*
X192957419Y-109690476D02*
X193005038Y-109785714D01*
X193005038Y-109785714D02*
X193052657Y-109833333D01*
X193052657Y-109833333D02*
X193195514Y-109928571D01*
X193195514Y-109928571D02*
X193385990Y-109976190D01*
X193385990Y-109976190D02*
X193766942Y-109976190D01*
X193766942Y-109976190D02*
X193862180Y-109928571D01*
X193862180Y-109928571D02*
X193909800Y-109880952D01*
X193909800Y-109880952D02*
X193957419Y-109785714D01*
X193957419Y-109785714D02*
X193957419Y-109595238D01*
X193957419Y-109595238D02*
X193909800Y-109500000D01*
X193909800Y-109500000D02*
X193862180Y-109452381D01*
X193862180Y-109452381D02*
X193766942Y-109404762D01*
X193766942Y-109404762D02*
X193528847Y-109404762D01*
X193528847Y-109404762D02*
X193433609Y-109452381D01*
X193433609Y-109452381D02*
X193385990Y-109500000D01*
X193385990Y-109500000D02*
X193338371Y-109595238D01*
X193338371Y-109595238D02*
X193338371Y-109785714D01*
X193338371Y-109785714D02*
X193385990Y-109880952D01*
X193385990Y-109880952D02*
X193433609Y-109928571D01*
X193433609Y-109928571D02*
X193528847Y-109976190D01*
X192957419Y-108785714D02*
X192957419Y-108690476D01*
X192957419Y-108690476D02*
X193005038Y-108595238D01*
X193005038Y-108595238D02*
X193052657Y-108547619D01*
X193052657Y-108547619D02*
X193147895Y-108500000D01*
X193147895Y-108500000D02*
X193338371Y-108452381D01*
X193338371Y-108452381D02*
X193576466Y-108452381D01*
X193576466Y-108452381D02*
X193766942Y-108500000D01*
X193766942Y-108500000D02*
X193862180Y-108547619D01*
X193862180Y-108547619D02*
X193909800Y-108595238D01*
X193909800Y-108595238D02*
X193957419Y-108690476D01*
X193957419Y-108690476D02*
X193957419Y-108785714D01*
X193957419Y-108785714D02*
X193909800Y-108880952D01*
X193909800Y-108880952D02*
X193862180Y-108928571D01*
X193862180Y-108928571D02*
X193766942Y-108976190D01*
X193766942Y-108976190D02*
X193576466Y-109023809D01*
X193576466Y-109023809D02*
X193338371Y-109023809D01*
X193338371Y-109023809D02*
X193147895Y-108976190D01*
X193147895Y-108976190D02*
X193052657Y-108928571D01*
X193052657Y-108928571D02*
X193005038Y-108880952D01*
X193005038Y-108880952D02*
X192957419Y-108785714D01*
X192957419Y-107547619D02*
X192957419Y-108023809D01*
X192957419Y-108023809D02*
X193433609Y-108071428D01*
X193433609Y-108071428D02*
X193385990Y-108023809D01*
X193385990Y-108023809D02*
X193338371Y-107928571D01*
X193338371Y-107928571D02*
X193338371Y-107690476D01*
X193338371Y-107690476D02*
X193385990Y-107595238D01*
X193385990Y-107595238D02*
X193433609Y-107547619D01*
X193433609Y-107547619D02*
X193528847Y-107500000D01*
X193528847Y-107500000D02*
X193766942Y-107500000D01*
X193766942Y-107500000D02*
X193862180Y-107547619D01*
X193862180Y-107547619D02*
X193909800Y-107595238D01*
X193909800Y-107595238D02*
X193957419Y-107690476D01*
X193957419Y-107690476D02*
X193957419Y-107928571D01*
X193957419Y-107928571D02*
X193909800Y-108023809D01*
X193909800Y-108023809D02*
X193862180Y-108071428D01*
D16*
%TO.C,Q1*%
X190800000Y-73370000D02*
X190150000Y-73370000D01*
X190800000Y-73370000D02*
X191450000Y-73370000D01*
X190800000Y-76490000D02*
X190150000Y-76490000D01*
X190800000Y-76490000D02*
X191450000Y-76490000D01*
X192202500Y-76770000D02*
X191722500Y-76770000D01*
X191962500Y-76440000D01*
X192202500Y-76770000D01*
G36*
X192202500Y-76770000D02*
G01*
X191722500Y-76770000D01*
X191962500Y-76440000D01*
X192202500Y-76770000D01*
G37*
D17*
%TO.C,J2*%
X165450000Y-125500000D02*
X165450000Y-126100000D01*
X165450000Y-125500000D02*
X166250000Y-125500000D01*
X165450000Y-130500000D02*
X165450000Y-128800000D01*
X172950000Y-125500000D02*
X172150000Y-125500000D01*
X172950000Y-125500000D02*
X172950000Y-126100000D01*
X172950000Y-130500000D02*
X165450000Y-130500000D01*
X172950000Y-130500000D02*
X172950000Y-128800000D01*
D15*
X165900000Y-125000000D02*
G75*
G02*
X165700000Y-125000000I-100000J0D01*
G01*
X165700000Y-125000000D02*
G75*
G02*
X165900000Y-125000000I100000J0D01*
G01*
D10*
%TO.C,D2*%
X164935000Y-79065000D02*
G75*
G02*
X164835000Y-79065000I-50000J0D01*
G01*
X164835000Y-79065000D02*
G75*
G02*
X164935000Y-79065000I50000J0D01*
G01*
D16*
%TO.C,R3*%
X191020000Y-111646359D02*
X191020000Y-111953641D01*
X191780000Y-111646359D02*
X191780000Y-111953641D01*
%TO.C,U6*%
D18*
X181500000Y-112250000D02*
X178500000Y-112250000D01*
X178500000Y-109750000D01*
X181500000Y-109750000D01*
X181500000Y-112250000D01*
D16*
%TO.C,R1*%
X162553641Y-80085000D02*
X162246359Y-80085000D01*
X162553641Y-80845000D02*
X162246359Y-80845000D01*
%TO.C,R11*%
X188860000Y-73483641D02*
X188860000Y-73176359D01*
X189620000Y-73483641D02*
X189620000Y-73176359D01*
D10*
%TO.C,U7*%
X182986000Y-127380000D02*
X182986000Y-127220000D01*
X182986000Y-127380000D02*
X183146000Y-127380000D01*
X184746000Y-125620000D02*
X184586000Y-125620000D01*
X184746000Y-125620000D02*
X184746000Y-125780000D01*
X184746000Y-127380000D02*
X184586000Y-127380000D01*
X184746000Y-127380000D02*
X184746000Y-127220000D01*
D16*
X182986000Y-125620000D02*
X182486000Y-125620000D01*
X182986000Y-125120000D01*
X182986000Y-125620000D01*
G36*
X182986000Y-125620000D02*
G01*
X182486000Y-125620000D01*
X182986000Y-125120000D01*
X182986000Y-125620000D01*
G37*
%TO.C,R2*%
X161953641Y-78685000D02*
X161646359Y-78685000D01*
X161953641Y-79445000D02*
X161646359Y-79445000D01*
D10*
%TO.C,D5*%
X175645000Y-70800000D02*
G75*
G02*
X175545000Y-70800000I-50000J0D01*
G01*
X175545000Y-70800000D02*
G75*
G02*
X175645000Y-70800000I50000J0D01*
G01*
D16*
%TO.C,U4*%
X165937500Y-120390000D02*
X165137500Y-120390000D01*
X165937500Y-120390000D02*
X166737500Y-120390000D01*
X165937500Y-123510000D02*
X165137500Y-123510000D01*
X165937500Y-123510000D02*
X166737500Y-123510000D01*
X164637500Y-120440000D02*
X164397500Y-120110000D01*
X164877500Y-120110000D01*
X164637500Y-120440000D01*
G36*
X164637500Y-120440000D02*
G01*
X164397500Y-120110000D01*
X164877500Y-120110000D01*
X164637500Y-120440000D01*
G37*
%TO.C,R6*%
X178446359Y-70420000D02*
X178753641Y-70420000D01*
X178446359Y-71180000D02*
X178753641Y-71180000D01*
%TO.C,U5*%
D18*
X186500000Y-109750000D02*
X189500000Y-109750000D01*
X189500000Y-112250000D01*
X186500000Y-112250000D01*
X186500000Y-109750000D01*
D16*
%TO.C,R4*%
X176220000Y-110353641D02*
X176220000Y-110046359D01*
X176980000Y-110353641D02*
X176980000Y-110046359D01*
D10*
%TO.C,D1*%
X165535000Y-80465000D02*
G75*
G02*
X165435000Y-80465000I-50000J0D01*
G01*
X165435000Y-80465000D02*
G75*
G02*
X165535000Y-80465000I50000J0D01*
G01*
D16*
%TO.C,R5*%
X192902500Y-76603641D02*
X192902500Y-76296359D01*
X193662500Y-76603641D02*
X193662500Y-76296359D01*
%TO.C,U1*%
X176890000Y-87890000D02*
X176890000Y-88590000D01*
X176890000Y-102110000D02*
X176890000Y-101410000D01*
X177590000Y-87890000D02*
X176890000Y-87890000D01*
X177590000Y-102110000D02*
X176890000Y-102110000D01*
X190410000Y-87890000D02*
X191110000Y-87890000D01*
X190410000Y-102110000D02*
X191110000Y-102110000D01*
X191110000Y-87890000D02*
X191110000Y-88590000D01*
X191110000Y-102110000D02*
X191110000Y-101410000D01*
X176262500Y-88590000D02*
X175922500Y-88120000D01*
X176602500Y-88120000D01*
X176262500Y-88590000D01*
G36*
X176262500Y-88590000D02*
G01*
X175922500Y-88120000D01*
X176602500Y-88120000D01*
X176262500Y-88590000D01*
G37*
%TD*%
M02*
